
<svg width="16" height="17" viewBox="0 0 16 17" fill="none" xmlns="http://www.w3.org/2000/svg">
<path d="M9.62004 13.0467C9.49337 13.0467 9.3667 13 9.2667 12.9C9.07337 12.7067 9.07337 12.3867 9.2667 12.1933L12.96 8.5L9.2667 4.80667C9.07337 4.61334 9.07337 4.29334 9.2667 4.1C9.46004 3.90667 9.78004 3.90667 9.97337 4.1L14.02 8.14667C14.2134 8.34 14.2134 8.66 14.02 8.85333L9.97337 12.9C9.87337 13 9.7467 13.0467 9.62004 13.0467Z" fill="white"/>
<path d="M13.5534 9H2.33337C2.06004 9 1.83337 8.77333 1.83337 8.5C1.83337 8.22667 2.06004 8 2.33337 8H13.5534C13.8267 8 14.0534 8.22667 14.0534 8.5C14.0534 8.77333 13.8267 9 13.5534 9Z" fill="white"/>
</svg>
