
<svg width="50" height="50" viewBox="0 0 50 50" fill="none" xmlns="http://www.w3.org/2000/svg">
<path d="M50 25C50 38.8071 38.8071 50 25 50C11.1929 50 0 38.8071 0 25C0 11.1929 11.1929 0 25 0C38.8071 0 50 11.1929 50 25ZM2.5 25C2.5 37.4264 12.5736 47.5 25 47.5C37.4264 47.5 47.5 37.4264 47.5 25C47.5 12.5736 37.4264 2.5 25 2.5C12.5736 2.5 2.5 12.5736 2.5 25Z" fill="#202428"/>
<path d="M35.9605 35.9603C38.1282 33.7926 39.6044 31.0307 40.2025 28.024C40.8006 25.0173 40.4936 21.9008 39.3205 19.0685C38.1473 16.2363 36.1606 13.8155 33.6117 12.1123C31.0627 10.4092 28.0659 9.50012 25.0003 9.50012C21.9347 9.50012 18.938 10.4092 16.389 12.1123C13.84 13.8155 11.8534 16.2363 10.6802 19.0685C9.50704 21.9008 9.20009 25.0173 9.79816 28.024C10.3962 31.0307 11.8725 33.7926 14.0402 35.9603L25.0003 25.0001L35.9605 35.9603Z" fill="#202428"/>
</svg>
