
<svg width="230" height="230" viewBox="0 0 230 230" fill="none" xmlns="http://www.w3.org/2000/svg">
<g clip-path="url(#clip0_4009_9196)">
<g filter="url(#filter0_ii_4009_9196)">
<path d="M229 72.5C229 104.256 177.737 130 114.5 130C51.2634 130 0 104.256 0 72.5C0 40.7436 51.2634 15 114.5 15C177.737 15 229 40.7436 229 72.5ZM29.5528 75.5C29.5528 99.3373 67.0327 115.661 114.5 115.661C161.967 115.661 200.447 99.3373 200.447 75.5C200.447 51.6627 161.967 34.3387 114.5 34.3387C67.0327 34.3387 29.5528 51.6627 29.5528 75.5Z" fill="url(#paint0_linear_4009_9196)"/>
</g>
<mask id="path-2-outside-1_4009_9196" maskUnits="userSpaceOnUse" x="-0.999634" y="13.375" width="232" height="203" fill="black">
<rect fill="white" x="-0.999634" y="13.375" width="232" height="203"/>
<path fill-rule="evenodd" clip-rule="evenodd" d="M229.405 72.2295C229.405 87.9761 216.73 102.337 195.999 112.785C175.29 123.221 146.653 129.687 115 129.687C83.3472 129.687 54.7105 123.221 34.0017 112.785C13.27 102.337 0.595116 87.9761 0.595116 72.2295C0.595116 56.4829 13.27 42.122 34.0017 31.6743C54.7105 21.238 83.3472 14.7715 115 14.7715C146.653 14.7715 175.29 21.238 195.999 31.6743C216.73 42.122 229.405 56.4829 229.405 72.2295ZM230 71.3364H229.788C228.841 39.7961 177.812 14.375 115 14.375C51.597 14.375 0.198616 40.2773 0.198616 72.2295C0.198616 72.2957 0.198837 72.3618 0.199278 72.428H0.000366211V94.0614C0.000366211 110.152 12.9373 124.667 33.734 135.148C47.7109 142.191 65.263 147.428 84.8962 150.106C93.4392 156.266 103.683 160.45 114.703 160.45C125.519 160.45 135.586 156.199 144.028 150.25C164.096 147.618 182.035 142.32 196.266 135.148C217.063 124.667 230 110.152 230 94.0614V71.3364ZM143.177 150.36C134.16 151.506 124.721 152.114 115 152.114C104.889 152.114 95.0821 151.456 85.7388 150.22C94.1059 156.103 104.046 160.053 114.703 160.053C125.15 160.053 134.91 156.048 143.177 150.36ZM229.603 75.6581C226.083 106.014 176.119 130.084 115 130.084C53.881 130.084 3.91723 106.014 0.396866 75.658V94.0614C0.396866 109.923 13.1591 124.335 33.9124 134.794C54.6544 145.247 83.3229 151.718 115 151.718C146.677 151.718 175.346 145.247 196.088 134.794C216.841 124.335 229.603 109.923 229.603 94.0614V75.6581ZM174.956 103.83C184.981 98.9981 192.437 92.9955 196.406 86.3267C189.952 75.7764 174.268 66.1944 154.409 61.0685C163.389 71.6262 168.879 85.7694 168.879 101.306C168.879 102.871 168.823 104.967 168.713 106.555C170.887 105.696 172.971 104.786 174.956 103.83ZM168.304 106.715C168.422 105.121 168.482 102.928 168.482 101.306C168.482 68.8432 144.388 42.5577 114.703 42.5577C85.0173 42.5577 60.9234 68.8432 60.9234 101.306C60.9234 102.847 60.9777 104.925 61.0841 106.475C75.7237 112.293 94.5059 115.794 115 115.794C135.209 115.794 153.755 112.389 168.304 106.715ZM60.6759 106.311C58.7214 105.525 56.8418 104.697 55.0433 103.83C39.6915 96.4306 30.3616 86.2853 30.3616 75.2065C30.3616 64.1278 39.6915 53.9825 55.0433 46.5834C70.3669 39.1978 91.5642 34.6187 115 34.6187C138.435 34.6187 159.632 39.1978 174.956 46.5834C190.308 53.9825 199.638 64.1278 199.638 75.2065C199.638 78.9109 198.595 82.5108 196.632 85.9387C190.003 75.2851 174.155 65.7067 154.242 60.6161L154.191 60.8137C144.312 49.3339 130.278 42.1612 114.703 42.1612C99.1264 42.1612 85.0925 49.3345 75.2128 60.8151L75.1619 60.6161C55.2582 65.7043 40.0042 75.2896 33.3798 85.9184L33.7163 86.1281C40.2353 75.6684 55.2708 66.1607 74.9964 61.068C66.0161 71.6258 60.5269 85.7692 60.5269 101.306C60.5269 102.791 60.5771 104.774 60.6759 106.311ZM115 116.191C161.963 116.191 200.034 97.8416 200.034 75.2065C200.034 52.5715 161.963 34.2222 115 34.2222C68.0363 34.2222 29.9651 52.5715 29.9651 75.2065C29.9651 97.8416 68.0363 116.191 115 116.191ZM176.799 143.332C182.634 148.427 185.944 154.306 185.944 160.549C185.944 170.107 178.181 178.813 165.507 185.142C152.845 191.465 135.339 195.381 115.992 195.381C96.644 195.381 79.1379 191.465 66.476 185.142C53.8021 178.813 46.0389 170.107 46.0389 160.549C46.0389 154.479 49.1679 148.754 54.7051 143.758L54.4395 143.464C48.8485 148.508 45.6424 154.332 45.6424 160.549L45.6427 160.649H45.6424V175.435C45.6424 186.58 53.565 196.632 66.2892 203.886C79.0191 211.143 96.5919 215.625 115.992 215.625C135.391 215.625 152.964 211.143 165.694 203.886C178.418 196.632 186.341 186.58 186.341 175.435V160.549V159.259H186.295C185.871 153.351 182.551 147.829 177.06 143.034L176.799 143.332ZM165.684 185.497C176.745 179.974 184.193 172.59 185.944 164.318V175.435C185.944 186.376 178.163 196.321 165.498 203.541C152.838 210.758 135.335 215.228 115.992 215.228C96.648 215.228 79.1454 210.758 66.4856 203.541C53.8201 196.321 46.0389 186.376 46.0389 175.435V164.318C47.7901 172.59 55.2379 179.974 66.2988 185.497C79.0266 191.853 96.5959 195.778 115.992 195.778C135.387 195.778 152.957 191.853 165.684 185.497Z"/>
</mask>
<path fill-rule="evenodd" clip-rule="evenodd" d="M229.405 72.2295C229.405 87.9761 216.73 102.337 195.999 112.785C175.29 123.221 146.653 129.687 115 129.687C83.3472 129.687 54.7105 123.221 34.0017 112.785C13.27 102.337 0.595116 87.9761 0.595116 72.2295C0.595116 56.4829 13.27 42.122 34.0017 31.6743C54.7105 21.238 83.3472 14.7715 115 14.7715C146.653 14.7715 175.29 21.238 195.999 31.6743C216.73 42.122 229.405 56.4829 229.405 72.2295ZM230 71.3364H229.788C228.841 39.7961 177.812 14.375 115 14.375C51.597 14.375 0.198616 40.2773 0.198616 72.2295C0.198616 72.2957 0.198837 72.3618 0.199278 72.428H0.000366211V94.0614C0.000366211 110.152 12.9373 124.667 33.734 135.148C47.7109 142.191 65.263 147.428 84.8962 150.106C93.4392 156.266 103.683 160.45 114.703 160.45C125.519 160.45 135.586 156.199 144.028 150.25C164.096 147.618 182.035 142.32 196.266 135.148C217.063 124.667 230 110.152 230 94.0614V71.3364ZM143.177 150.36C134.16 151.506 124.721 152.114 115 152.114C104.889 152.114 95.0821 151.456 85.7388 150.22C94.1059 156.103 104.046 160.053 114.703 160.053C125.15 160.053 134.91 156.048 143.177 150.36ZM229.603 75.6581C226.083 106.014 176.119 130.084 115 130.084C53.881 130.084 3.91723 106.014 0.396866 75.658V94.0614C0.396866 109.923 13.1591 124.335 33.9124 134.794C54.6544 145.247 83.3229 151.718 115 151.718C146.677 151.718 175.346 145.247 196.088 134.794C216.841 124.335 229.603 109.923 229.603 94.0614V75.6581ZM174.956 103.83C184.981 98.9981 192.437 92.9955 196.406 86.3267C189.952 75.7764 174.268 66.1944 154.409 61.0685C163.389 71.6262 168.879 85.7694 168.879 101.306C168.879 102.871 168.823 104.967 168.713 106.555C170.887 105.696 172.971 104.786 174.956 103.83ZM168.304 106.715C168.422 105.121 168.482 102.928 168.482 101.306C168.482 68.8432 144.388 42.5577 114.703 42.5577C85.0173 42.5577 60.9234 68.8432 60.9234 101.306C60.9234 102.847 60.9777 104.925 61.0841 106.475C75.7237 112.293 94.5059 115.794 115 115.794C135.209 115.794 153.755 112.389 168.304 106.715ZM60.6759 106.311C58.7214 105.525 56.8418 104.697 55.0433 103.83C39.6915 96.4306 30.3616 86.2853 30.3616 75.2065C30.3616 64.1278 39.6915 53.9825 55.0433 46.5834C70.3669 39.1978 91.5642 34.6187 115 34.6187C138.435 34.6187 159.632 39.1978 174.956 46.5834C190.308 53.9825 199.638 64.1278 199.638 75.2065C199.638 78.9109 198.595 82.5108 196.632 85.9387C190.003 75.2851 174.155 65.7067 154.242 60.6161L154.191 60.8137C144.312 49.3339 130.278 42.1612 114.703 42.1612C99.1264 42.1612 85.0925 49.3345 75.2128 60.8151L75.1619 60.6161C55.2582 65.7043 40.0042 75.2896 33.3798 85.9184L33.7163 86.1281C40.2353 75.6684 55.2708 66.1607 74.9964 61.068C66.0161 71.6258 60.5269 85.7692 60.5269 101.306C60.5269 102.791 60.5771 104.774 60.6759 106.311ZM115 116.191C161.963 116.191 200.034 97.8416 200.034 75.2065C200.034 52.5715 161.963 34.2222 115 34.2222C68.0363 34.2222 29.9651 52.5715 29.9651 75.2065C29.9651 97.8416 68.0363 116.191 115 116.191ZM176.799 143.332C182.634 148.427 185.944 154.306 185.944 160.549C185.944 170.107 178.181 178.813 165.507 185.142C152.845 191.465 135.339 195.381 115.992 195.381C96.644 195.381 79.1379 191.465 66.476 185.142C53.8021 178.813 46.0389 170.107 46.0389 160.549C46.0389 154.479 49.1679 148.754 54.7051 143.758L54.4395 143.464C48.8485 148.508 45.6424 154.332 45.6424 160.549L45.6427 160.649H45.6424V175.435C45.6424 186.58 53.565 196.632 66.2892 203.886C79.0191 211.143 96.5919 215.625 115.992 215.625C135.391 215.625 152.964 211.143 165.694 203.886C178.418 196.632 186.341 186.58 186.341 175.435V160.549V159.259H186.295C185.871 153.351 182.551 147.829 177.06 143.034L176.799 143.332ZM165.684 185.497C176.745 179.974 184.193 172.59 185.944 164.318V175.435C185.944 186.376 178.163 196.321 165.498 203.541C152.838 210.758 135.335 215.228 115.992 215.228C96.648 215.228 79.1454 210.758 66.4856 203.541C53.8201 196.321 46.0389 186.376 46.0389 175.435V164.318C47.7901 172.59 55.2379 179.974 66.2988 185.497C79.0266 191.853 96.5959 195.778 115.992 195.778C135.387 195.778 152.957 191.853 165.684 185.497Z" fill="black"/>
<path d="M195.999 112.785L195.864 112.517L195.999 112.785ZM34.0017 112.785L34.1367 112.517L34.0017 112.785ZM34.0017 31.6743L34.1367 31.9422V31.9422L34.0017 31.6743ZM195.999 31.6743L195.864 31.9422V31.9422L195.999 31.6743ZM229.788 71.3364L229.488 71.3454L229.497 71.6364H229.788V71.3364ZM230 71.3364H230.3V71.0364H230V71.3364ZM0.199278 72.428V72.728H0.501284L0.499271 72.426L0.199278 72.428ZM0.000366211 72.428V72.128H-0.299634V72.428H0.000366211ZM33.734 135.148L33.599 135.416L33.734 135.148ZM84.8962 150.106L85.0717 149.863L85.011 149.819L84.9368 149.809L84.8962 150.106ZM144.028 150.25L143.989 149.953L143.916 149.963L143.856 150.005L144.028 150.25ZM196.266 135.148L196.401 135.416L196.266 135.148ZM143.177 150.36L143.347 150.607L143.139 150.063L143.177 150.36ZM85.7388 150.22L85.7782 149.922L85.5662 150.465L85.7388 150.22ZM229.603 75.6581H229.903L229.305 75.6235L229.603 75.6581ZM0.396866 75.658L0.694869 75.6235L0.096866 75.658H0.396866ZM33.9124 134.794L34.0474 134.526L33.9124 134.794ZM196.088 134.794L195.953 134.526L196.088 134.794ZM196.406 86.3267L196.663 86.4801L196.756 86.3245L196.661 86.1701L196.406 86.3267ZM174.956 103.83L174.826 103.559L174.956 103.83ZM154.409 61.0685L154.484 60.778L153.567 60.5412L154.181 61.2628L154.409 61.0685ZM168.713 106.555L168.414 106.534L168.381 107.008L168.823 106.834L168.713 106.555ZM168.304 106.715L168.413 106.995L168.589 106.926L168.603 106.737L168.304 106.715ZM61.0841 106.475L60.7848 106.495L60.7978 106.684L60.9733 106.754L61.0841 106.475ZM60.6759 106.311L60.5639 106.59L61.0058 106.768L60.9753 106.292L60.6759 106.311ZM55.0433 103.83L55.1735 103.559L55.0433 103.83ZM55.0433 46.5834L54.913 46.3131L55.0433 46.5834ZM174.956 46.5834L175.086 46.3131L174.956 46.5834ZM196.632 85.9387L196.377 86.0972L196.643 86.5238L196.892 86.0877L196.632 85.9387ZM154.242 60.6161L154.316 60.3254L154.026 60.2511L153.951 60.5418L154.242 60.6161ZM154.191 60.8137L153.964 61.0094L154.339 61.4457L154.482 60.888L154.191 60.8137ZM75.2128 60.8151L74.9222 60.8894L75.0647 61.4471L75.4402 61.0107L75.2128 60.8151ZM75.1619 60.6161L75.4526 60.5418L75.3783 60.2511L75.0876 60.3254L75.1619 60.6161ZM33.3798 85.9184L33.1252 85.7597L32.9665 86.0143L33.2211 86.173L33.3798 85.9184ZM33.7163 86.1281L33.5576 86.3827L33.8122 86.5414L33.9709 86.2868L33.7163 86.1281ZM74.9964 61.068L75.2249 61.2623L75.8388 60.5407L74.9214 60.7775L74.9964 61.068ZM176.799 143.332L176.573 143.135L176.375 143.361L176.601 143.558L176.799 143.332ZM165.507 185.142L165.641 185.411H165.641L165.507 185.142ZM66.476 185.142L66.3419 185.411L66.476 185.142ZM54.7051 143.758L54.9061 143.981L55.1288 143.78L54.9278 143.557L54.7051 143.758ZM54.4395 143.464L54.6622 143.263L54.4613 143.04L54.2385 143.241L54.4395 143.464ZM45.6424 160.549H45.3424V160.55L45.6424 160.549ZM45.6427 160.649V160.949H45.9435L45.9427 160.648L45.6427 160.649ZM45.6424 160.649V160.349H45.3424V160.649H45.6424ZM66.2892 203.886L66.4378 203.625L66.2892 203.886ZM165.694 203.886L165.843 204.146L165.694 203.886ZM186.341 159.259H186.641V158.959H186.341V159.259ZM186.295 159.259L185.995 159.281L186.015 159.559H186.295V159.259ZM177.06 143.034L177.257 142.808L177.031 142.61L176.834 142.836L177.06 143.034ZM185.944 164.318H186.244L185.651 164.256L185.944 164.318ZM165.684 185.497L165.55 185.228H165.55L165.684 185.497ZM165.498 203.541L165.646 203.802L165.498 203.541ZM66.4856 203.541L66.337 203.802L66.4856 203.541ZM46.0389 164.318L46.3324 164.256L45.7389 164.318H46.0389ZM66.2988 185.497L66.4328 185.228L66.2988 185.497ZM196.134 113.053C216.898 102.588 229.705 88.1497 229.705 72.2295H229.105C229.105 87.8025 216.563 102.086 195.864 112.517L196.134 113.053ZM115 129.987C146.69 129.987 175.375 123.514 196.134 113.053L195.864 112.517C175.205 122.928 146.616 129.387 115 129.387V129.987ZM33.8666 113.053C54.6255 123.514 83.3104 129.987 115 129.987V129.387C83.384 129.387 54.7955 122.928 34.1367 112.517L33.8666 113.053ZM0.295116 72.2295C0.295116 88.1497 13.1021 102.588 33.8666 113.053L34.1367 112.517C13.4378 102.086 0.895116 87.8025 0.895116 72.2295H0.295116ZM33.8666 31.4064C13.1021 41.8707 0.295116 56.3093 0.295116 72.2295H0.895116C0.895116 56.6564 13.4378 42.3734 34.1367 31.9422L33.8666 31.4064ZM115 14.4715C83.3104 14.4715 54.6255 20.9449 33.8666 31.4064L34.1367 31.9422C54.7955 21.5311 83.384 15.0715 115 15.0715V14.4715ZM196.134 31.4064C175.375 20.9449 146.69 14.4715 115 14.4715V15.0715C146.616 15.0715 175.205 21.5311 195.864 31.9422L196.134 31.4064ZM229.705 72.2295C229.705 56.3093 216.898 41.8707 196.134 31.4064L195.864 31.9422C216.563 42.3734 229.105 56.6564 229.105 72.2295H229.705ZM229.788 71.6364H230V71.0364H229.788V71.6364ZM115 14.675C146.369 14.675 174.782 21.0235 195.46 31.2967C216.155 41.5785 229.02 55.7445 229.488 71.3454L230.088 71.3274C229.61 55.388 216.486 41.0733 195.727 30.7594C174.95 20.4371 146.442 14.075 115 14.075V14.675ZM0.498616 72.2295C0.498616 56.427 13.216 42.0412 33.9582 31.5881C54.6832 21.1437 83.3354 14.675 115 14.675V14.075C83.2618 14.075 54.5132 20.5575 33.6882 31.0523C12.8804 41.5384 -0.101384 56.0798 -0.101384 72.2295H0.498616ZM0.499271 72.426C0.498835 72.3605 0.498616 72.295 0.498616 72.2295H-0.101384C-0.101384 72.2963 -0.101161 72.3632 -0.100716 72.43L0.499271 72.426ZM0.000366211 72.728H0.199278V72.128H0.000366211V72.728ZM0.300366 94.0614V72.428H-0.299634V94.0614H0.300366ZM33.869 134.88C13.1051 124.416 0.300366 109.979 0.300366 94.0614H-0.299634C-0.299634 110.326 12.7696 124.919 33.599 135.416L33.869 134.88ZM84.9368 149.809C65.33 147.134 47.8109 141.906 33.869 134.88L33.599 135.416C47.6108 142.477 65.1961 147.721 84.8557 150.404L84.9368 149.809ZM114.703 160.15C103.76 160.15 93.5764 155.995 85.0717 149.863L84.7208 150.35C93.302 156.537 103.606 160.75 114.703 160.75V160.15ZM143.856 150.005C135.447 155.93 125.439 160.15 114.703 160.15V160.75C125.598 160.75 135.724 156.468 144.201 150.496L143.856 150.005ZM196.131 134.88C181.935 142.034 164.03 147.324 143.989 149.953L144.068 150.548C164.162 147.912 182.134 142.606 196.401 135.416L196.131 134.88ZM229.7 94.0614C229.7 109.979 216.895 124.416 196.131 134.88L196.401 135.416C217.231 124.919 230.3 110.326 230.3 94.0614H229.7ZM229.7 71.3364V94.0614H230.3V71.3364H229.7ZM143.139 150.063C134.135 151.207 124.708 151.814 115 151.814V152.414C124.733 152.414 134.185 151.805 143.214 150.658L143.139 150.063ZM115 151.814C104.902 151.814 95.1082 151.157 85.7782 149.922L85.6994 150.517C95.056 151.755 104.876 152.414 115 152.414V151.814ZM85.5662 150.465C93.9716 156.376 103.97 160.353 114.703 160.353V159.753C104.121 159.753 94.2403 155.831 85.9114 149.974L85.5662 150.465ZM114.703 160.353C125.228 160.353 135.046 156.319 143.347 150.607L143.007 150.113C134.774 155.777 125.073 159.753 114.703 159.753V160.353ZM115 130.384C145.596 130.384 173.412 124.36 194.03 114.525C214.633 104.698 228.123 91.0265 229.901 75.6926L229.305 75.6235C227.563 90.6458 214.312 104.187 193.772 113.984C173.249 123.773 145.524 129.784 115 129.784V130.384ZM0.0988632 75.6926C1.87712 91.0265 15.3675 104.698 35.9698 114.525C56.5883 124.36 84.4047 130.384 115 130.384V129.784C84.4765 129.784 56.7514 123.773 36.2281 113.984C15.6887 104.187 2.43698 90.6457 0.694869 75.6235L0.0988632 75.6926ZM0.696866 94.0614V75.658H0.096866V94.0614H0.696866ZM34.0474 134.526C13.3269 124.084 0.696866 109.749 0.696866 94.0614H0.096866C0.096866 110.096 12.9913 124.586 33.7774 135.062L34.0474 134.526ZM115 151.418C83.3597 151.418 54.7393 144.953 34.0474 134.526L33.7774 135.062C54.5694 145.54 83.2861 152.018 115 152.018V151.418ZM195.953 134.526C175.261 144.953 146.641 151.418 115 151.418V152.018C146.714 152.018 175.431 145.54 196.223 135.062L195.953 134.526ZM229.303 94.0614C229.303 109.749 216.673 124.084 195.953 134.526L196.223 135.062C217.009 124.586 229.903 110.096 229.903 94.0614H229.303ZM229.303 75.6581V94.0614H229.903V75.6581H229.303ZM196.148 86.1733C192.221 92.7724 184.822 98.7417 174.826 103.559L175.086 104.1C185.14 99.2545 192.654 93.2186 196.663 86.4801L196.148 86.1733ZM154.334 61.3589C174.161 66.4767 189.755 76.0299 196.15 86.4832L196.661 86.1701C190.148 75.523 174.374 65.9121 154.484 60.778L154.334 61.3589ZM154.181 61.2628C163.115 71.7661 168.579 85.8404 168.579 101.306H169.179C169.179 85.6985 163.664 71.4863 154.638 60.8741L154.181 61.2628ZM168.579 101.306C168.579 102.866 168.523 104.955 168.414 106.534L169.012 106.575C169.123 104.979 169.179 102.876 169.179 101.306H168.579ZM174.826 103.559C172.848 104.513 170.771 105.42 168.603 106.276L168.823 106.834C171.004 105.973 173.094 105.06 175.086 104.1L174.826 103.559ZM168.603 106.737C168.722 105.133 168.782 102.933 168.782 101.306H168.182C168.182 102.923 168.122 105.108 168.005 106.693L168.603 106.737ZM168.782 101.306C168.782 68.7029 144.578 42.2577 114.703 42.2577V42.8577C144.198 42.8577 168.182 68.9835 168.182 101.306H168.782ZM114.703 42.2577C84.8273 42.2577 60.6234 68.7029 60.6234 101.306H61.2234C61.2234 68.9835 85.2073 42.8577 114.703 42.8577V42.2577ZM60.6234 101.306C60.6234 102.852 60.6778 104.937 60.7848 106.495L61.3834 106.454C61.2776 104.913 61.2234 102.842 61.2234 101.306H60.6234ZM115 115.494C94.5377 115.494 75.7939 111.998 61.1949 106.196L60.9733 106.754C75.6534 112.588 94.4741 116.094 115 116.094V115.494ZM168.195 106.436C153.685 112.094 135.178 115.494 115 115.494V116.094C135.241 116.094 153.824 112.684 168.413 106.995L168.195 106.436ZM60.7879 106.033C58.8392 105.249 56.9658 104.423 55.1735 103.559L54.913 104.1C56.7179 104.97 58.6035 105.801 60.5639 106.59L60.7879 106.033ZM55.1735 103.559C39.8495 96.1737 30.6616 86.1047 30.6616 75.2065H30.0616C30.0616 86.4659 39.5336 96.6875 54.913 104.1L55.1735 103.559ZM30.6616 75.2065C30.6616 64.3084 39.8495 54.2394 55.1735 46.8536L54.913 46.3131C39.5336 53.7256 30.0616 63.9472 30.0616 75.2065H30.6616ZM55.1735 46.8536C70.4483 39.4916 91.5992 34.9187 115 34.9187V34.3187C91.5292 34.3187 70.2855 38.904 54.913 46.3131L55.1735 46.8536ZM115 34.9187C138.4 34.9187 159.551 39.4916 174.826 46.8536L175.086 46.3131C159.714 38.904 138.47 34.3187 115 34.3187V34.9187ZM174.826 46.8536C190.15 54.2394 199.338 64.3084 199.338 75.2065H199.938C199.938 63.9472 190.466 53.7256 175.086 46.3131L174.826 46.8536ZM199.338 75.2065C199.338 78.8524 198.311 82.4015 196.372 85.7896L196.892 86.0877C198.878 82.6202 199.938 78.9693 199.938 75.2065H199.338ZM196.887 85.7802C190.198 75.0311 174.261 65.4242 154.316 60.3254L154.168 60.9067C174.048 65.9891 189.808 75.5391 196.377 86.0972L196.887 85.7802ZM153.951 60.5418L153.901 60.7394L154.482 60.888L154.533 60.6904L153.951 60.5418ZM114.703 42.4612C130.183 42.4612 144.136 49.5892 153.964 61.0094L154.419 60.618C144.488 49.0786 130.374 41.8612 114.703 41.8612V42.4612ZM75.4402 61.0107C85.2686 49.5897 99.2222 42.4612 114.703 42.4612V41.8612C99.0307 41.8612 84.9164 49.0792 74.9854 60.6194L75.4402 61.0107ZM75.5035 60.7408L75.4526 60.5418L74.8713 60.6904L74.9222 60.8894L75.5035 60.7408ZM75.0876 60.3254C55.1472 65.4231 39.8074 75.0382 33.1252 85.7597L33.6344 86.0771C40.201 75.541 55.3692 65.9856 75.2362 60.9067L75.0876 60.3254ZM33.2211 86.173L33.5576 86.3827L33.875 85.8735L33.5385 85.6638L33.2211 86.173ZM33.9709 86.2868C40.4323 75.9195 55.3825 66.4417 75.0714 61.3585L74.9214 60.7775C55.1592 65.8797 40.0383 75.4173 33.4617 85.9694L33.9709 86.2868ZM60.8269 101.306C60.8269 85.8401 66.291 71.7657 75.2249 61.2623L74.7679 60.8736C65.7413 71.4859 60.2269 85.6982 60.2269 101.306H60.8269ZM60.9753 106.292C60.8769 104.763 60.8269 102.786 60.8269 101.306H60.2269C60.2269 102.796 60.2772 104.786 60.3765 106.331L60.9753 106.292ZM199.734 75.2065C199.734 86.3434 190.358 96.5132 174.998 103.917C159.658 111.31 138.446 115.891 115 115.891V116.491C138.516 116.491 159.821 111.897 175.258 104.457C190.674 97.0271 200.334 86.7047 200.334 75.2065H199.734ZM115 34.5222C138.446 34.5222 159.658 39.1033 174.998 46.4965C190.358 53.8999 199.734 64.0697 199.734 75.2065H200.334C200.334 63.7084 190.674 53.386 175.258 45.956C159.821 38.5157 138.516 33.9222 115 33.9222V34.5222ZM30.2651 75.2065C30.2651 64.0697 39.6408 53.8999 55.0014 46.4965C70.3407 39.1033 91.5529 34.5222 115 34.5222V33.9222C91.483 33.9222 70.1779 38.5157 54.7408 45.956C39.325 53.386 29.6651 63.7084 29.6651 75.2065H30.2651ZM115 115.891C91.5529 115.891 70.3407 111.31 55.0014 103.917C39.6408 96.5132 30.2651 86.3434 30.2651 75.2065H29.6651C29.6651 86.7047 39.325 97.0271 54.7408 104.457C70.1779 111.897 91.483 116.491 115 116.491V115.891ZM186.244 160.549C186.244 154.191 182.873 148.237 176.996 143.106L176.601 143.558C182.396 148.618 185.644 154.42 185.644 160.549H186.244ZM165.641 185.411C178.347 179.066 186.244 170.282 186.244 160.549H185.644C185.644 169.932 178.015 178.561 165.373 184.874L165.641 185.411ZM115.992 195.681C135.376 195.681 152.93 191.758 165.641 185.411L165.373 184.874C152.761 191.172 135.303 195.081 115.992 195.081V195.681ZM66.3419 185.411C79.0537 191.758 96.6076 195.681 115.992 195.681V195.081C96.6805 195.081 79.2221 191.172 66.61 184.874L66.3419 185.411ZM45.7389 160.549C45.7389 170.282 53.6363 179.066 66.3419 185.411L66.61 184.874C53.9679 178.561 46.3389 169.932 46.3389 160.549H45.7389ZM54.5041 143.535C48.9262 148.568 45.7389 154.368 45.7389 160.549H46.3389C46.3389 154.59 49.4095 148.94 54.9061 143.981L54.5041 143.535ZM54.2168 143.664L54.4824 143.959L54.9278 143.557L54.6622 143.263L54.2168 143.664ZM45.9424 160.549C45.9424 154.443 49.0901 148.694 54.6405 143.686L54.2385 143.241C48.6068 148.322 45.3424 154.221 45.3424 160.549H45.9424ZM45.9427 160.648L45.9424 160.549L45.3424 160.55L45.3427 160.649L45.9427 160.648ZM45.6424 160.949H45.6427V160.349H45.6424V160.949ZM45.9424 175.435V160.649H45.3424V175.435H45.9424ZM66.4378 203.625C53.758 196.396 45.9424 186.426 45.9424 175.435H45.3424C45.3424 186.735 53.3721 196.867 66.1406 204.146L66.4378 203.625ZM115.992 215.325C96.6344 215.325 79.1146 210.852 66.4378 203.625L66.1406 204.146C78.9235 211.433 96.5495 215.925 115.992 215.925V215.325ZM165.545 203.625C152.869 210.852 135.349 215.325 115.992 215.325V215.925C135.434 215.925 153.06 211.433 165.843 204.146L165.545 203.625ZM186.041 175.435C186.041 186.426 178.225 196.396 165.545 203.625L165.843 204.146C178.611 196.867 186.641 186.735 186.641 175.435H186.041ZM186.041 160.549V175.435H186.641V160.549H186.041ZM186.041 159.259V160.549H186.641V159.259H186.041ZM186.295 159.559H186.341V158.959H186.295V159.559ZM176.862 143.26C182.316 148.021 185.579 153.476 185.995 159.281L186.594 159.238C186.163 153.226 182.787 147.636 177.257 142.808L176.862 143.26ZM177.025 143.53L177.286 143.231L176.834 142.836L176.573 143.135L177.025 143.53ZM185.651 164.256C183.928 172.395 176.579 179.721 165.55 185.228L165.818 185.765C176.912 180.226 184.459 172.784 186.238 164.38L185.651 164.256ZM186.244 175.435V164.318H185.644V175.435H186.244ZM165.646 203.802C178.356 196.556 186.244 186.531 186.244 175.435H185.644C185.644 186.222 177.97 196.085 165.349 203.28L165.646 203.802ZM115.992 215.528C135.378 215.528 152.933 211.049 165.646 203.802L165.349 203.28C152.742 210.467 135.293 214.928 115.992 214.928V215.528ZM66.337 203.802C79.0498 211.049 96.6056 215.528 115.992 215.528V214.928C96.6904 214.928 79.241 210.467 66.6341 203.28L66.337 203.802ZM45.7389 175.435C45.7389 186.531 53.6271 196.556 66.337 203.802L66.6341 203.28C54.013 196.085 46.3389 186.222 46.3389 175.435H45.7389ZM45.7389 164.318V175.435H46.3389V164.318H45.7389ZM66.4328 185.228C55.4041 179.721 48.0556 172.395 46.3324 164.256L45.7454 164.38C47.5246 172.784 55.0716 180.226 66.1648 185.765L66.4328 185.228ZM115.992 195.478C96.6323 195.478 79.1108 191.559 66.4328 185.228L66.1648 185.765C78.9423 192.146 96.5595 196.078 115.992 196.078V195.478ZM165.55 185.228C152.872 191.559 135.351 195.478 115.992 195.478V196.078C135.424 196.078 153.041 192.146 165.818 185.765L165.55 185.228Z" fill="black" mask="url(#path-2-outside-1_4009_9196)"/>
</g>
<defs>
<filter id="filter0_ii_4009_9196" x="0" y="15" width="229" height="115" filterUnits="userSpaceOnUse" color-interpolation-filters="sRGB">
<feFlood flood-opacity="0" result="BackgroundImageFix"/>
<feBlend mode="normal" in="SourceGraphic" in2="BackgroundImageFix" result="shape"/>
<feColorMatrix in="SourceAlpha" type="matrix" values="0 0 0 0 0 0 0 0 0 0 0 0 0 0 0 0 0 0 127 0" result="hardAlpha"/>
<feOffset/>
<feGaussianBlur stdDeviation="5"/>
<feComposite in2="hardAlpha" operator="arithmetic" k2="-1" k3="1"/>
<feColorMatrix type="matrix" values="0 0 0 0 1 0 0 0 0 1 0 0 0 0 1 0 0 0 0.3 0"/>
<feBlend mode="normal" in2="shape" result="effect1_innerShadow_4009_9196"/>
<feColorMatrix in="SourceAlpha" type="matrix" values="0 0 0 0 0 0 0 0 0 0 0 0 0 0 0 0 0 0 127 0" result="hardAlpha"/>
<feOffset/>
<feGaussianBlur stdDeviation="1.5"/>
<feComposite in2="hardAlpha" operator="arithmetic" k2="-1" k3="1"/>
<feColorMatrix type="matrix" values="0 0 0 0 0 0 0 0 0 0 0 0 0 0 0 0 0 0 0.1 0"/>
<feBlend mode="normal" in2="effect1_innerShadow_4009_9196" result="effect2_innerShadow_4009_9196"/>
</filter>
<linearGradient id="paint0_linear_4009_9196" x1="114.5" y1="15" x2="114.5" y2="130" gradientUnits="userSpaceOnUse">
<stop stop-color="#CAEBFF"/>
<stop offset="1" stop-color="#CAEBFF" stop-opacity="0"/>
</linearGradient>
<clipPath id="clip0_4009_9196">
<rect width="230" height="230" fill="white"/>
</clipPath>
</defs>
</svg>
