
<svg width="24" height="24" viewBox="0 0 24 24" fill="none" xmlns="http://www.w3.org/2000/svg">
<g clip-path="url(#clip0_2421_17248)">
<path d="M21.341 5.125C21.0608 4.77324 20.7047 4.48935 20.2993 4.29454C19.8939 4.09973 19.4498 3.99905 19 4H14.673L14.8 2.89C14.827 2.646 14.9428 2.42045 15.1254 2.25632C15.308 2.0922 15.5445 2.00097 15.79 2H20C20.2652 2 20.5196 1.89464 20.7071 1.70711C20.8947 1.51957 21 1.26522 21 1C21 0.734784 20.8947 0.48043 20.7071 0.292893C20.5196 0.105357 20.2652 0 20 0L15.79 0C15.0518 0.000168296 14.3396 0.272519 13.7896 0.764943C13.2396 1.25737 12.8905 1.93529 12.809 2.669L12.661 4H5.00003C4.56041 4.00408 4.12699 4.10409 3.73004 4.29305C3.33309 4.482 2.98218 4.75535 2.70182 5.09399C2.42146 5.43262 2.21842 5.82839 2.10688 6.25363C1.99533 6.67888 1.97798 7.12335 2.05603 7.556L3.56803 19.622C3.72123 20.8302 4.30943 21.9411 5.22257 22.747C6.1357 23.5528 7.31118 23.9982 8.52903 24H15.47C16.6881 23.998 17.8637 23.5524 18.777 22.7464C19.6902 21.9404 20.2786 20.8294 20.432 19.621L21.932 7.653C22.0305 7.21433 22.0284 6.75908 21.9261 6.32131C21.8237 5.88354 21.6237 5.47457 21.341 5.125ZM19 6C19.15 5.99994 19.2981 6.03362 19.4332 6.09853C19.5684 6.16344 19.6873 6.25793 19.781 6.375C19.8814 6.50662 19.9499 6.65979 19.981 6.8224C20.012 6.98502 20.0049 7.15263 19.96 7.312L19.622 10H14.006L14.451 6H19ZM4.22103 6.374C4.31464 6.25738 4.43323 6.16324 4.56804 6.09851C4.70286 6.03379 4.85048 6.00012 5.00003 6H12.437L11.992 10H4.37403L4.02403 7.216C3.99125 7.06988 3.99194 6.91824 4.02606 6.77243C4.06017 6.62662 4.12683 6.49041 4.22103 6.374ZM18.447 19.374C18.3549 20.0988 18.0018 20.7652 17.4539 21.2486C16.9059 21.7319 16.2007 21.999 15.47 22H8.52903C7.79825 21.9999 7.09266 21.733 6.54471 21.2495C5.99676 20.766 5.64413 20.0991 5.55303 19.374L4.62603 12H19.371L18.447 19.374ZM13.438 15.11L12.994 19.11C12.9796 19.2405 12.9396 19.3669 12.8763 19.482C12.813 19.5971 12.7276 19.6986 12.6251 19.7806C12.5226 19.8627 12.4049 19.9238 12.2788 19.9604C12.1527 19.997 12.0206 20.0084 11.89 19.994C11.7595 19.9796 11.6331 19.9395 11.518 19.8762C11.4029 19.8129 11.3015 19.7276 11.2194 19.6251C11.1373 19.5226 11.0762 19.4049 11.0396 19.2788C11.003 19.1526 10.9916 19.0205 11.006 18.89L11.45 14.89C11.4827 14.6277 11.6164 14.3885 11.8228 14.2234C12.0292 14.0583 12.292 13.9803 12.555 14.006C12.8185 14.0354 13.0595 14.1682 13.2251 14.3752C13.3906 14.5822 13.4672 14.8465 13.438 15.11Z" fill="#fff"/>
</g>
<defs>
<clipPath id="clip0_2421_17248">
<rect width="24" height="24" fill="white"/>
</clipPath>
</defs>
</svg>
