
<svg width="250" height="250" viewBox="0 0 250 250" fill="none" xmlns="http://www.w3.org/2000/svg">
<g clip-path="url(#clip0_4009_9159)">
<g filter="url(#filter0_ii_4009_9159)">
<path d="M117.5 1L15.5 64.5L120.5 132.5L224 67L117.5 1Z" fill="url(#paint0_linear_4009_9159)"/>
</g>
<g filter="url(#filter1_ii_4009_9159)">
<path d="M235.5 171L196.5 195.5V240L235.5 215V171Z" fill="url(#paint1_linear_4009_9159)"/>
</g>
<mask id="path-3-outside-1_4009_9159" maskUnits="userSpaceOnUse" x="12.6719" y="-1" width="224" height="252" fill="black">
<rect fill="white" x="12.6719" y="-1" width="224" height="252"/>
<path fill-rule="evenodd" clip-rule="evenodd" d="M225.146 66.5316L117.381 0L13.6719 64.5658V182.231L120.213 250L163.231 220.589L162.954 220.184L120.454 249.239L120.699 133.307L224.658 67.372L225.076 161.938L225.568 161.936L225.146 66.5316ZM224.658 67.3595L224.655 66.8067L117.382 0.578471L14.5365 64.6066L120.455 132.88L224.4 66.9532L224.658 67.3595ZM14.1634 64.951V181.961L119.963 249.259L120.207 133.306L14.1634 64.951ZM38.4928 108.755L99.5636 147.419V212.053L38.4928 172.15V108.755ZM38.9844 171.572L88.0499 140.712L38.9844 109.648V171.572ZM88.5101 141.003L39.194 172.02L99.0721 211.144V147.69L88.5101 141.003ZM187.913 137.918L236.328 169.425V215.299L196.023 240.901L147.855 210.012V164.386L187.913 137.918ZM187.915 138.506L148.347 164.65V209.743L195.532 240.002V195.139L148.461 165.464L148.723 165.048L195.778 194.713L235.46 169.841L235.721 170.258L196.024 195.14V240.317L196.024 240.317L235.837 215.028V169.691L187.915 138.506Z"/>
</mask>
<path fill-rule="evenodd" clip-rule="evenodd" d="M225.146 66.5316L117.381 0L13.6719 64.5658V182.231L120.213 250L163.231 220.589L162.954 220.184L120.454 249.239L120.699 133.307L224.658 67.372L225.076 161.938L225.568 161.936L225.146 66.5316ZM224.658 67.3595L224.655 66.8067L117.382 0.578471L14.5365 64.6066L120.455 132.88L224.4 66.9532L224.658 67.3595ZM14.1634 64.951V181.961L119.963 249.259L120.207 133.306L14.1634 64.951ZM38.4928 108.755L99.5636 147.419V212.053L38.4928 172.15V108.755ZM38.9844 171.572L88.0499 140.712L38.9844 109.648V171.572ZM88.5101 141.003L39.194 172.02L99.0721 211.144V147.69L88.5101 141.003ZM187.913 137.918L236.328 169.425V215.299L196.023 240.901L147.855 210.012V164.386L187.913 137.918ZM187.915 138.506L148.347 164.65V209.743L195.532 240.002V195.139L148.461 165.464L148.723 165.048L195.778 194.713L235.46 169.841L235.721 170.258L196.024 195.14V240.317L196.024 240.317L235.837 215.028V169.691L187.915 138.506Z" fill="black"/>
<path d="M117.381 0L117.539 -0.25527L117.38 -0.352976L117.222 -0.254678L117.381 0ZM225.146 66.5316L225.446 66.5303L225.445 66.3638L225.303 66.2763L225.146 66.5316ZM13.6719 64.5658L13.5133 64.3111L13.3719 64.3991V64.5658H13.6719ZM13.6719 182.231H13.3719V182.396L13.5109 182.485L13.6719 182.231ZM120.213 250L120.052 250.253L120.219 250.359L120.382 250.248L120.213 250ZM163.231 220.589L163.4 220.837L163.648 220.668L163.479 220.42L163.231 220.589ZM162.954 220.184L163.201 220.014L163.032 219.766L162.784 219.936L162.954 220.184ZM120.454 249.239L120.154 249.238L120.153 249.808L120.624 249.487L120.454 249.239ZM120.699 133.307L120.538 133.054L120.399 133.142L120.399 133.307L120.699 133.307ZM224.658 67.372L224.958 67.3707L224.955 66.828L224.497 67.1187L224.658 67.372ZM225.076 161.938L224.776 161.939L224.777 162.239L225.077 162.238L225.076 161.938ZM225.568 161.936L225.569 162.236L225.869 162.234L225.868 161.934L225.568 161.936ZM224.655 66.8067L224.955 66.8054L224.954 66.6389L224.813 66.5514L224.655 66.8067ZM224.658 67.3595L224.404 67.5201L224.962 68.4005L224.958 67.3581L224.658 67.3595ZM117.382 0.578471L117.54 0.323201L117.381 0.225494L117.224 0.323793L117.382 0.578471ZM14.5365 64.6066L14.3779 64.3519L13.9759 64.6022L14.374 64.8588L14.5365 64.6066ZM120.455 132.88L120.292 133.132L120.453 133.236L120.615 133.133L120.455 132.88ZM224.4 66.9532L224.654 66.7926L224.493 66.5391L224.24 66.6998L224.4 66.9532ZM14.1634 181.961H13.8634V182.126L14.0024 182.215L14.1634 181.961ZM14.1634 64.951L14.3259 64.6989L13.8634 64.4007V64.951H14.1634ZM119.963 249.259L119.802 249.512L120.262 249.804L120.263 249.259L119.963 249.259ZM120.207 133.306L120.507 133.306L120.508 133.142L120.37 133.054L120.207 133.306ZM99.5636 147.419H99.8636V147.254L99.724 147.165L99.5636 147.419ZM38.4928 108.755L38.6533 108.501L38.1928 108.21V108.755H38.4928ZM99.5636 212.053L99.3995 212.304L99.8636 212.607V212.053H99.5636ZM38.4928 172.15H38.1928V172.312L38.3287 172.401L38.4928 172.15ZM88.0499 140.712L88.2097 140.966L88.6121 140.712L88.2104 140.458L88.0499 140.712ZM38.9844 171.572H38.6844V172.115L39.1441 171.825L38.9844 171.572ZM38.9844 109.648L39.1448 109.395L38.6844 109.103V109.648H38.9844ZM39.194 172.02L39.0343 171.767L38.6382 172.016L39.0299 172.272L39.194 172.02ZM88.5101 141.003L88.6706 140.749L88.5107 140.648L88.3504 140.749L88.5101 141.003ZM99.0721 211.144L98.908 211.396L99.3721 211.699V211.144H99.0721ZM99.0721 147.69H99.3721V147.525L99.2325 147.436L99.0721 147.69ZM236.328 169.425H236.628V169.262L236.492 169.173L236.328 169.425ZM187.913 137.918L188.076 137.666L187.912 137.559L187.747 137.668L187.913 137.918ZM236.328 215.299L236.489 215.552L236.628 215.463V215.299H236.328ZM196.023 240.901L195.861 241.153L196.022 241.257L196.184 241.154L196.023 240.901ZM147.855 210.012H147.555V210.176L147.693 210.265L147.855 210.012ZM147.855 164.386L147.69 164.135L147.555 164.224V164.386H147.855ZM148.347 164.65L148.182 164.4L148.047 164.489V164.65H148.347ZM187.915 138.506L188.079 138.254L187.914 138.147L187.749 138.256L187.915 138.506ZM148.347 209.743H148.047V209.907L148.185 209.996L148.347 209.743ZM195.532 240.002L195.37 240.254L195.832 240.55V240.002H195.532ZM195.532 195.139H195.832V194.974L195.692 194.886L195.532 195.139ZM148.461 165.464L148.208 165.304L148.048 165.558L148.301 165.717L148.461 165.464ZM148.723 165.048L148.883 164.794L148.63 164.634L148.47 164.888L148.723 165.048ZM195.778 194.713L195.618 194.967L195.778 195.068L195.938 194.968L195.778 194.713ZM235.46 169.841L235.714 169.682L235.555 169.428L235.301 169.587L235.46 169.841ZM235.721 170.258L235.88 170.512L236.135 170.353L235.975 170.099L235.721 170.258ZM196.024 195.14L195.864 194.886L195.724 194.974V195.14H196.024ZM196.024 240.317H195.724V240.48L195.86 240.569L196.024 240.317ZM196.024 240.317L195.861 240.569L196.023 240.674L196.185 240.571L196.024 240.317ZM235.837 215.028L235.997 215.281L236.137 215.193V215.028H235.837ZM235.837 169.691H236.137V169.529L236 169.44L235.837 169.691ZM117.223 0.25527L224.988 66.7869L225.303 66.2763L117.539 -0.25527L117.223 0.25527ZM13.8304 64.8204L117.54 0.254678L117.222 -0.254678L13.5133 64.3111L13.8304 64.8204ZM13.9719 182.231V64.5658H13.3719V182.231H13.9719ZM120.374 249.747L13.8329 181.978L13.5109 182.485L120.052 250.253L120.374 249.747ZM163.062 220.342L120.043 249.752L120.382 250.248L163.4 220.837L163.062 220.342ZM162.706 220.353L162.983 220.759L163.479 220.42L163.201 220.014L162.706 220.353ZM120.624 249.487L163.123 220.431L162.784 219.936L120.285 248.991L120.624 249.487ZM120.399 133.307L120.154 249.238L120.754 249.24L120.999 133.308L120.399 133.307ZM224.497 67.1187L120.538 133.054L120.86 133.561L224.818 67.6254L224.497 67.1187ZM225.376 161.936L224.958 67.3707L224.358 67.3733L224.776 161.939L225.376 161.936ZM225.566 161.635L225.075 161.638L225.077 162.238L225.569 162.236L225.566 161.635ZM224.846 66.5329L225.268 161.937L225.868 161.934L225.446 66.5303L224.846 66.5329ZM224.355 66.808L224.358 67.3608L224.958 67.3581L224.955 66.8054L224.355 66.808ZM117.224 0.833741L224.498 67.062L224.813 66.5514L117.54 0.323201L117.224 0.833741ZM14.6951 64.8613L117.541 0.833148L117.224 0.323793L14.3779 64.3519L14.6951 64.8613ZM120.617 132.628L14.699 64.3545L14.374 64.8588L120.292 133.132L120.617 132.628ZM224.24 66.6998L120.294 132.627L120.615 133.133L224.561 67.2065L224.24 66.6998ZM224.911 67.1989L224.654 66.7926L224.147 67.1138L224.404 67.5201L224.911 67.1989ZM14.4634 181.961V64.951H13.8634V181.961H14.4634ZM120.124 249.005L14.3244 181.708L14.0024 182.215L119.802 249.512L120.124 249.005ZM119.907 133.305L119.663 249.258L120.263 249.259L120.507 133.306L119.907 133.305ZM14.0009 65.2032L120.045 133.558L120.37 133.054L14.3259 64.6989L14.0009 65.2032ZM99.724 147.165L38.6533 108.501L38.3324 109.008L99.4031 147.672L99.724 147.165ZM99.8636 212.053V147.419H99.2636V212.053H99.8636ZM38.3287 172.401L99.3995 212.304L99.7277 211.802L38.6569 171.898L38.3287 172.401ZM38.1928 108.755V172.15H38.7928V108.755H38.1928ZM87.8902 140.458L38.8246 171.318L39.1441 171.825L88.2097 140.966L87.8902 140.458ZM38.8239 109.901L87.8895 140.965L88.2104 140.458L39.1448 109.395L38.8239 109.901ZM39.2844 171.572V109.648H38.6844V171.572H39.2844ZM39.3537 172.274L88.6699 141.257L88.3504 140.749L39.0343 171.767L39.3537 172.274ZM99.2361 210.893L39.3581 171.769L39.0299 172.272L98.908 211.396L99.2361 210.893ZM98.772 147.69V211.144H99.3721V147.69H98.772ZM88.3497 141.256L98.9116 147.943L99.2325 147.436L88.6706 140.749L88.3497 141.256ZM236.492 169.173L188.076 137.666L187.749 138.169L236.164 169.676L236.492 169.173ZM236.628 215.299V169.425H236.028V215.299H236.628ZM196.184 241.154L236.489 215.552L236.167 215.045L195.862 240.647L196.184 241.154ZM147.693 210.265L195.861 241.153L196.185 240.648L148.017 209.759L147.693 210.265ZM147.555 164.386V210.012H148.155V164.386H147.555ZM187.747 137.668L147.69 164.135L148.021 164.636L188.078 138.168L187.747 137.668ZM148.512 164.901L188.08 138.756L187.749 138.256L148.182 164.4L148.512 164.901ZM148.647 209.743V164.65H148.047V209.743H148.647ZM195.694 239.749L148.509 209.491L148.185 209.996L195.37 240.254L195.694 239.749ZM195.832 240.002V195.139H195.232V240.002H195.832ZM195.692 194.886L148.621 165.21L148.301 165.717L195.372 195.393L195.692 194.886ZM148.715 165.624L148.977 165.208L148.47 164.888L148.208 165.304L148.715 165.624ZM148.564 165.301L195.618 194.967L195.938 194.46L148.883 164.794L148.564 165.301ZM195.938 194.968L235.619 170.096L235.301 169.587L195.619 194.459L195.938 194.968ZM235.206 170.001L235.467 170.417L235.975 170.099L235.714 169.682L235.206 170.001ZM235.562 170.004L195.864 194.886L196.183 195.394L235.88 170.512L235.562 170.004ZM195.724 195.14V240.317H196.324V195.14H195.724ZM196.188 240.066L196.187 240.065L195.86 240.569L195.861 240.569L196.188 240.066ZM235.676 214.775L195.864 240.064L196.185 240.571L235.997 215.281L235.676 214.775ZM235.537 169.691V215.028H236.137V169.691H235.537ZM187.751 138.757L235.673 169.943L236 169.44L188.079 138.254L187.751 138.757Z" fill="black" mask="url(#path-3-outside-1_4009_9159)"/>
</g>
<defs>
<filter id="filter0_ii_4009_9159" x="15.5" y="1" width="208.5" height="131.5" filterUnits="userSpaceOnUse" color-interpolation-filters="sRGB">
<feFlood flood-opacity="0" result="BackgroundImageFix"/>
<feBlend mode="normal" in="SourceGraphic" in2="BackgroundImageFix" result="shape"/>
<feColorMatrix in="SourceAlpha" type="matrix" values="0 0 0 0 0 0 0 0 0 0 0 0 0 0 0 0 0 0 127 0" result="hardAlpha"/>
<feOffset/>
<feGaussianBlur stdDeviation="5"/>
<feComposite in2="hardAlpha" operator="arithmetic" k2="-1" k3="1"/>
<feColorMatrix type="matrix" values="0 0 0 0 1 0 0 0 0 1 0 0 0 0 1 0 0 0 0.3 0"/>
<feBlend mode="normal" in2="shape" result="effect1_innerShadow_4009_9159"/>
<feColorMatrix in="SourceAlpha" type="matrix" values="0 0 0 0 0 0 0 0 0 0 0 0 0 0 0 0 0 0 127 0" result="hardAlpha"/>
<feOffset/>
<feGaussianBlur stdDeviation="1.5"/>
<feComposite in2="hardAlpha" operator="arithmetic" k2="-1" k3="1"/>
<feColorMatrix type="matrix" values="0 0 0 0 0 0 0 0 0 0 0 0 0 0 0 0 0 0 0.1 0"/>
<feBlend mode="normal" in2="effect1_innerShadow_4009_9159" result="effect2_innerShadow_4009_9159"/>
</filter>
<filter id="filter1_ii_4009_9159" x="196.5" y="171" width="39" height="69" filterUnits="userSpaceOnUse" color-interpolation-filters="sRGB">
<feFlood flood-opacity="0" result="BackgroundImageFix"/>
<feBlend mode="normal" in="SourceGraphic" in2="BackgroundImageFix" result="shape"/>
<feColorMatrix in="SourceAlpha" type="matrix" values="0 0 0 0 0 0 0 0 0 0 0 0 0 0 0 0 0 0 127 0" result="hardAlpha"/>
<feOffset/>
<feGaussianBlur stdDeviation="5"/>
<feComposite in2="hardAlpha" operator="arithmetic" k2="-1" k3="1"/>
<feColorMatrix type="matrix" values="0 0 0 0 1 0 0 0 0 1 0 0 0 0 1 0 0 0 0.3 0"/>
<feBlend mode="normal" in2="shape" result="effect1_innerShadow_4009_9159"/>
<feColorMatrix in="SourceAlpha" type="matrix" values="0 0 0 0 0 0 0 0 0 0 0 0 0 0 0 0 0 0 127 0" result="hardAlpha"/>
<feOffset/>
<feGaussianBlur stdDeviation="1.5"/>
<feComposite in2="hardAlpha" operator="arithmetic" k2="-1" k3="1"/>
<feColorMatrix type="matrix" values="0 0 0 0 0 0 0 0 0 0 0 0 0 0 0 0 0 0 0.1 0"/>
<feBlend mode="normal" in2="effect1_innerShadow_4009_9159" result="effect2_innerShadow_4009_9159"/>
</filter>
<linearGradient id="paint0_linear_4009_9159" x1="119.75" y1="1" x2="119.75" y2="132.5" gradientUnits="userSpaceOnUse">
<stop stop-color="#CAEBFF"/>
<stop offset="1" stop-color="#CAEBFF" stop-opacity="0"/>
</linearGradient>
<linearGradient id="paint1_linear_4009_9159" x1="216" y1="171" x2="216" y2="240" gradientUnits="userSpaceOnUse">
<stop stop-color="#CAEBFF"/>
<stop offset="1" stop-color="#CAEBFF" stop-opacity="0"/>
</linearGradient>
<clipPath id="clip0_4009_9159">
<rect width="250" height="250" fill="white"/>
</clipPath>
</defs>
</svg>
