
<svg width="250" height="250" viewBox="0 0 250 250" fill="none" xmlns="http://www.w3.org/2000/svg">
<g clip-path="url(#clip0_4009_9140)">
<mask id="path-1-outside-1_4009_9140" maskUnits="userSpaceOnUse" x="18.7754" y="-1" width="212" height="252" fill="black">
<rect fill="white" x="18.7754" y="-1" width="212" height="252"/>
<path fill-rule="evenodd" clip-rule="evenodd" d="M180.707 11.1748C193.393 16.7017 204.493 24.1644 213.344 33.1049L169.146 59.1337C164.868 54.8281 159.52 51.2427 153.428 48.588C147.206 45.8775 140.337 44.1936 133.248 43.6388C126.158 43.0839 118.997 43.6697 112.21 45.3604C105.423 47.0511 99.1507 49.8116 93.7868 53.474C88.4229 57.1364 84.0789 61.6246 81.0336 66.6638C77.9878 71.7038 76.3079 77.1849 76.1065 82.7642C75.9051 88.3437 77.1869 93.8911 79.8656 99.0585C82.4564 104.056 86.2983 108.592 91.1569 112.405L52.2825 143.095C41.8941 135.095 33.7255 125.538 28.27 115.014C22.7625 104.39 20.1364 93.0054 20.5494 81.5682C20.9623 70.1309 24.4059 58.8763 30.6729 48.506C36.9404 38.1348 45.8987 28.8688 56.9964 21.2914C68.094 13.714 81.0896 7.99037 95.1737 4.48204C109.258 0.973736 124.123 -0.242858 138.842 0.909127C153.561 2.06112 167.812 5.55664 180.707 11.1748ZM180.902 10.7276C193.68 16.2949 204.865 23.822 213.777 32.8497C213.895 32.969 214.012 33.0885 214.129 33.2084L213.986 33.2927H214.252V69.878H214.179L214.253 70.0039L169.024 96.6396L168.891 96.5029C164.641 92.15 159.278 88.5207 153.135 85.8442C146.992 83.1677 140.203 81.5024 133.19 80.9536C126.178 80.4048 119.096 80.9844 112.386 82.6558C105.677 84.3271 99.4857 87.0539 94.199 90.6636C89.3545 93.9714 85.366 97.9546 82.4354 102.399L82.3976 102.374C84.7953 105.949 87.8794 109.227 91.5508 112.094C91.6827 112.197 91.8153 112.3 91.9487 112.402L91.7482 112.56L91.8355 112.559L92.0794 149.023L91.9772 149.023L92.0995 149.178L52.2889 180.607L52.1385 180.492C41.5306 172.387 33.1828 162.667 27.6202 151.936C22.0574 141.206 19.4003 129.696 19.818 118.127C20.0145 112.686 20.8891 107.287 22.419 102.005L22.5771 102.051C20.6629 95.3407 19.8127 88.4559 20.062 81.5506C20.4781 70.0256 23.9481 58.6908 30.2555 48.2537C36.5629 37.8166 45.5722 28.5011 56.7214 20.8886C67.8705 13.2761 80.9201 7.5299 95.0558 4.00869C109.191 0.487485 124.11 -0.733201 138.88 0.422809C153.65 1.57882 167.955 5.08672 180.902 10.7276ZM52.5742 143.486L91.3498 112.874L91.5911 148.958L52.5742 179.76V143.486ZM52.0864 143.559C41.5993 135.504 33.3463 125.866 27.837 115.239C25.711 111.138 24.011 106.923 22.7464 102.635C21.3147 107.722 20.4943 112.914 20.3054 118.145C19.8909 129.626 22.5273 141.052 28.0532 151.712C33.5185 162.255 41.6952 171.825 52.0864 179.837V143.559ZM52.1395 179.878L52.2842 179.989L52.4251 179.878H52.1395ZM213.764 69.7254V33.4233L169.257 59.6341H169.26V95.9344L213.764 69.7254ZM153.233 49.0353C159.349 51.6999 164.699 55.3068 168.955 59.6341H168.773V95.6911C164.552 91.4981 159.303 87.9993 153.33 85.397C147.135 82.6978 140.292 81.0201 133.228 80.4673C126.165 79.9144 119.03 80.4981 112.269 82.1824C105.507 83.8667 99.2622 86.6159 93.924 90.2608C89.0893 93.5619 85.0911 97.5344 82.1324 101.973C81.4645 100.95 80.8525 99.9023 80.2986 98.834C77.6568 93.7378 76.3956 88.2734 76.5939 82.7818C76.7922 77.2902 78.4456 71.8893 81.451 66.9161C84.4564 61.9429 88.7493 57.5042 94.0618 53.8769C99.3742 50.2496 105.592 47.5116 112.328 45.8338C119.063 44.1559 126.172 43.5743 133.21 44.1251C140.248 44.6759 147.064 46.3474 153.233 49.0353ZM169.106 96.0255L169.056 95.9756H169.19L169.106 96.0255ZM208.837 111.503L169.088 135.28C176.173 142.187 179.603 150.871 178.63 159.633C177.636 168.58 172.134 176.862 163.317 182.81C154.5 188.757 143.012 191.939 131.201 191.725C119.528 191.514 108.379 188.002 99.9826 181.875L64.2825 208.987C81.8837 221.866 105.345 229.29 129.97 229.735C154.839 230.184 178.982 223.481 197.463 211.015C215.943 198.55 227.344 181.283 229.401 162.768C231.446 144.365 224.113 126.041 208.837 111.503ZM63.8773 209.295C81.5828 222.293 105.195 229.775 129.961 230.223C154.918 230.674 179.162 223.947 197.736 211.419C214.865 199.866 225.978 184.182 229.231 167.157C230.06 172.148 230.208 177.223 229.643 182.307C227.577 200.907 216.126 218.233 197.599 230.729C179.072 243.226 154.878 249.941 129.965 249.491C105.118 249.042 81.4445 241.5 63.7557 228.415H63.7921V209.232L63.8773 209.295ZM63.6758 209.146C63.6066 209.095 63.5374 209.044 63.4684 208.993L99.9781 181.266C108.315 187.459 119.487 191.026 131.21 191.238C142.932 191.449 154.32 188.29 163.044 182.406C169.415 178.108 174.014 172.595 176.411 166.516L176.321 166.55C174.734 162.345 172.074 158.376 168.366 154.879L168.481 154.756H168.285V135.366H168.476C168.414 135.307 168.352 135.248 168.289 135.189L208.903 110.895C224.456 125.562 231.962 144.137 229.886 162.822C229.765 163.91 229.612 164.994 229.428 166.073L229.533 166.053C230.525 171.416 230.736 176.884 230.128 182.361C228.043 201.131 216.492 218.574 197.872 231.134C179.252 243.693 154.957 250.431 129.956 249.979C104.955 249.527 81.1186 241.92 63.3227 228.701L63.5351 228.415H63.3043V209.146H63.6758ZM168.773 154.592V135.653C175.749 142.467 179.098 150.999 178.145 159.579C177.903 161.756 177.389 163.894 176.62 165.97C175 161.87 172.374 158.007 168.773 154.592ZM97.5219 124.093C96.9131 126.302 96.5908 128.606 96.5908 130.976C96.5908 147.376 112.058 160.732 131.219 160.732C150.379 160.732 165.846 147.376 165.846 130.976C165.846 128.606 165.524 126.301 164.915 124.092C160.944 136.904 147.362 146.341 131.218 146.341C115.075 146.341 101.494 136.904 97.5219 124.093ZM97.3084 123.368L97.2304 123.344C96.4947 125.782 96.1031 128.339 96.1031 130.976C96.1031 147.712 111.861 161.219 131.219 161.219C150.577 161.219 166.334 147.712 166.334 130.976C166.334 128.428 165.968 125.954 165.28 123.59L165.046 123.659C165.728 121.317 166.09 118.865 166.09 116.341C166.09 99.7729 150.478 86.3415 131.218 86.3415C111.959 86.3415 96.3468 99.7729 96.3468 116.341C96.3468 118.761 96.6797 121.114 97.3084 123.368ZM165.602 116.341C165.602 132.574 150.28 145.854 131.218 145.854C112.157 145.854 96.8345 132.574 96.8345 116.341C96.8345 100.109 112.157 86.8293 131.218 86.8293C150.28 86.8293 165.602 100.109 165.602 116.341Z"/>
</mask>
<path fill-rule="evenodd" clip-rule="evenodd" d="M180.707 11.1748C193.393 16.7017 204.493 24.1644 213.344 33.1049L169.146 59.1337C164.868 54.8281 159.52 51.2427 153.428 48.588C147.206 45.8775 140.337 44.1936 133.248 43.6388C126.158 43.0839 118.997 43.6697 112.21 45.3604C105.423 47.0511 99.1507 49.8116 93.7868 53.474C88.4229 57.1364 84.0789 61.6246 81.0336 66.6638C77.9878 71.7038 76.3079 77.1849 76.1065 82.7642C75.9051 88.3437 77.1869 93.8911 79.8656 99.0585C82.4564 104.056 86.2983 108.592 91.1569 112.405L52.2825 143.095C41.8941 135.095 33.7255 125.538 28.27 115.014C22.7625 104.39 20.1364 93.0054 20.5494 81.5682C20.9623 70.1309 24.4059 58.8763 30.6729 48.506C36.9404 38.1348 45.8987 28.8688 56.9964 21.2914C68.094 13.714 81.0896 7.99037 95.1737 4.48204C109.258 0.973736 124.123 -0.242858 138.842 0.909127C153.561 2.06112 167.812 5.55664 180.707 11.1748ZM180.902 10.7276C193.68 16.2949 204.865 23.822 213.777 32.8497C213.895 32.969 214.012 33.0885 214.129 33.2084L213.986 33.2927H214.252V69.878H214.179L214.253 70.0039L169.024 96.6396L168.891 96.5029C164.641 92.15 159.278 88.5207 153.135 85.8442C146.992 83.1677 140.203 81.5024 133.19 80.9536C126.178 80.4048 119.096 80.9844 112.386 82.6558C105.677 84.3271 99.4857 87.0539 94.199 90.6636C89.3545 93.9714 85.366 97.9546 82.4354 102.399L82.3976 102.374C84.7953 105.949 87.8794 109.227 91.5508 112.094C91.6827 112.197 91.8153 112.3 91.9487 112.402L91.7482 112.56L91.8355 112.559L92.0794 149.023L91.9772 149.023L92.0995 149.178L52.2889 180.607L52.1385 180.492C41.5306 172.387 33.1828 162.667 27.6202 151.936C22.0574 141.206 19.4003 129.696 19.818 118.127C20.0145 112.686 20.8891 107.287 22.419 102.005L22.5771 102.051C20.6629 95.3407 19.8127 88.4559 20.062 81.5506C20.4781 70.0256 23.9481 58.6908 30.2555 48.2537C36.5629 37.8166 45.5722 28.5011 56.7214 20.8886C67.8705 13.2761 80.9201 7.5299 95.0558 4.00869C109.191 0.487485 124.11 -0.733201 138.88 0.422809C153.65 1.57882 167.955 5.08672 180.902 10.7276ZM52.5742 143.486L91.3498 112.874L91.5911 148.958L52.5742 179.76V143.486ZM52.0864 143.559C41.5993 135.504 33.3463 125.866 27.837 115.239C25.711 111.138 24.011 106.923 22.7464 102.635C21.3147 107.722 20.4943 112.914 20.3054 118.145C19.8909 129.626 22.5273 141.052 28.0532 151.712C33.5185 162.255 41.6952 171.825 52.0864 179.837V143.559ZM52.1395 179.878L52.2842 179.989L52.4251 179.878H52.1395ZM213.764 69.7254V33.4233L169.257 59.6341H169.26V95.9344L213.764 69.7254ZM153.233 49.0353C159.349 51.6999 164.699 55.3068 168.955 59.6341H168.773V95.6911C164.552 91.4981 159.303 87.9993 153.33 85.397C147.135 82.6978 140.292 81.0201 133.228 80.4673C126.165 79.9144 119.03 80.4981 112.269 82.1824C105.507 83.8667 99.2622 86.6159 93.924 90.2608C89.0893 93.5619 85.0911 97.5344 82.1324 101.973C81.4645 100.95 80.8525 99.9023 80.2986 98.834C77.6568 93.7378 76.3956 88.2734 76.5939 82.7818C76.7922 77.2902 78.4456 71.8893 81.451 66.9161C84.4564 61.9429 88.7493 57.5042 94.0618 53.8769C99.3742 50.2496 105.592 47.5116 112.328 45.8338C119.063 44.1559 126.172 43.5743 133.21 44.1251C140.248 44.6759 147.064 46.3474 153.233 49.0353ZM169.106 96.0255L169.056 95.9756H169.19L169.106 96.0255ZM208.837 111.503L169.088 135.28C176.173 142.187 179.603 150.871 178.63 159.633C177.636 168.58 172.134 176.862 163.317 182.81C154.5 188.757 143.012 191.939 131.201 191.725C119.528 191.514 108.379 188.002 99.9826 181.875L64.2825 208.987C81.8837 221.866 105.345 229.29 129.97 229.735C154.839 230.184 178.982 223.481 197.463 211.015C215.943 198.55 227.344 181.283 229.401 162.768C231.446 144.365 224.113 126.041 208.837 111.503ZM63.8773 209.295C81.5828 222.293 105.195 229.775 129.961 230.223C154.918 230.674 179.162 223.947 197.736 211.419C214.865 199.866 225.978 184.182 229.231 167.157C230.06 172.148 230.208 177.223 229.643 182.307C227.577 200.907 216.126 218.233 197.599 230.729C179.072 243.226 154.878 249.941 129.965 249.491C105.118 249.042 81.4445 241.5 63.7557 228.415H63.7921V209.232L63.8773 209.295ZM63.6758 209.146C63.6066 209.095 63.5374 209.044 63.4684 208.993L99.9781 181.266C108.315 187.459 119.487 191.026 131.21 191.238C142.932 191.449 154.32 188.29 163.044 182.406C169.415 178.108 174.014 172.595 176.411 166.516L176.321 166.55C174.734 162.345 172.074 158.376 168.366 154.879L168.481 154.756H168.285V135.366H168.476C168.414 135.307 168.352 135.248 168.289 135.189L208.903 110.895C224.456 125.562 231.962 144.137 229.886 162.822C229.765 163.91 229.612 164.994 229.428 166.073L229.533 166.053C230.525 171.416 230.736 176.884 230.128 182.361C228.043 201.131 216.492 218.574 197.872 231.134C179.252 243.693 154.957 250.431 129.956 249.979C104.955 249.527 81.1186 241.92 63.3227 228.701L63.5351 228.415H63.3043V209.146H63.6758ZM168.773 154.592V135.653C175.749 142.467 179.098 150.999 178.145 159.579C177.903 161.756 177.389 163.894 176.62 165.97C175 161.87 172.374 158.007 168.773 154.592ZM97.5219 124.093C96.9131 126.302 96.5908 128.606 96.5908 130.976C96.5908 147.376 112.058 160.732 131.219 160.732C150.379 160.732 165.846 147.376 165.846 130.976C165.846 128.606 165.524 126.301 164.915 124.092C160.944 136.904 147.362 146.341 131.218 146.341C115.075 146.341 101.494 136.904 97.5219 124.093ZM97.3084 123.368L97.2304 123.344C96.4947 125.782 96.1031 128.339 96.1031 130.976C96.1031 147.712 111.861 161.219 131.219 161.219C150.577 161.219 166.334 147.712 166.334 130.976C166.334 128.428 165.968 125.954 165.28 123.59L165.046 123.659C165.728 121.317 166.09 118.865 166.09 116.341C166.09 99.7729 150.478 86.3415 131.218 86.3415C111.959 86.3415 96.3468 99.7729 96.3468 116.341C96.3468 118.761 96.6797 121.114 97.3084 123.368ZM165.602 116.341C165.602 132.574 150.28 145.854 131.218 145.854C112.157 145.854 96.8345 132.574 96.8345 116.341C96.8345 100.109 112.157 86.8293 131.218 86.8293C150.28 86.8293 165.602 100.109 165.602 116.341Z" fill="black"/>
<path d="M213.344 33.1049L213.496 33.3635L213.828 33.1678L213.557 32.8939L213.344 33.1049ZM180.707 11.1748L180.587 11.4498L180.707 11.1748ZM169.146 59.1337L168.933 59.3452L169.097 59.5105L169.298 59.3922L169.146 59.1337ZM153.428 48.588L153.308 48.8631L153.428 48.588ZM133.248 43.6388L133.271 43.3397L133.248 43.6388ZM112.21 45.3604L112.282 45.6515L112.21 45.3604ZM93.7868 53.474L93.956 53.7217L93.7868 53.474ZM81.0336 66.6638L81.2904 66.8189L81.0336 66.6638ZM76.1065 82.7642L76.4063 82.775L76.1065 82.7642ZM79.8656 99.0585L79.5993 99.1966L79.8656 99.0585ZM91.1569 112.405L91.3428 112.641L91.6419 112.405L91.3421 112.169L91.1569 112.405ZM52.2825 143.095L52.0994 143.332L52.2848 143.475L52.4684 143.33L52.2825 143.095ZM28.27 115.014L28.0036 115.152L28.27 115.014ZM20.5494 81.5682L20.8492 81.579L20.5494 81.5682ZM30.6729 48.506L30.4161 48.3508L30.6729 48.506ZM56.9964 21.2914L56.8272 21.0437L56.9964 21.2914ZM95.1737 4.48204L95.2462 4.77314L95.1737 4.48204ZM138.842 0.909127L138.819 1.20821L138.842 0.909127ZM213.777 32.8497L213.991 32.6389V32.6389L213.777 32.8497ZM180.902 10.7276L181.022 10.4526L180.902 10.7276ZM214.129 33.2084L214.282 33.4669L214.611 33.2726L214.344 32.9988L214.129 33.2084ZM213.986 33.2927L213.834 33.0342L212.886 33.5927H213.986V33.2927ZM214.252 33.2927H214.552V32.9927H214.252V33.2927ZM214.252 69.878V70.178H214.552V69.878H214.252ZM214.179 69.878V69.578H213.654L213.92 70.0302L214.179 69.878ZM214.253 70.0039L214.405 70.2624L214.664 70.1102L214.511 69.8517L214.253 70.0039ZM169.024 96.6396L168.809 96.8492L168.974 97.0175L169.176 96.8981L169.024 96.6396ZM168.891 96.5029L169.105 96.2933V96.2933L168.891 96.5029ZM153.135 85.8442L153.015 86.1192L153.135 85.8442ZM133.19 80.9536L133.167 81.2527L133.19 80.9536ZM112.386 82.6558L112.314 82.3646L112.386 82.6558ZM94.199 90.6636L94.0298 90.4159L94.199 90.6636ZM82.4354 102.399L82.2702 102.65L82.5206 102.815L82.6858 102.564L82.4354 102.399ZM82.3976 102.374L82.5627 102.124L82.1484 102.541L82.3976 102.374ZM91.5508 112.094L91.7355 111.858L91.5508 112.094ZM91.9487 112.402L92.1346 112.637L92.4378 112.398L92.1309 112.163L91.9487 112.402ZM91.7482 112.56L91.5623 112.324L90.8766 112.866L91.7502 112.86L91.7482 112.56ZM91.8355 112.559L92.1355 112.557L92.1335 112.257L91.8335 112.259L91.8355 112.559ZM92.0794 149.023L92.0814 149.323L92.3814 149.321L92.3794 149.021L92.0794 149.023ZM91.9772 149.023L91.9752 148.723L91.3616 148.728L91.7418 149.209L91.9772 149.023ZM92.0995 149.178L92.2854 149.414L92.5208 149.228L92.335 148.992L92.0995 149.178ZM52.2889 180.607L52.1068 180.845L52.2919 180.987L52.4748 180.842L52.2889 180.607ZM52.1385 180.492L52.3206 180.254H52.3206L52.1385 180.492ZM27.6202 151.936L27.8866 151.798L27.6202 151.936ZM19.818 118.127L19.5182 118.116L19.818 118.127ZM22.419 102.005L22.5025 101.717L22.2143 101.634L22.1309 101.922L22.419 102.005ZM22.5771 102.051L22.4936 102.339L23.0143 102.49L22.8655 101.969L22.5771 102.051ZM20.062 81.5506L19.7622 81.5398L20.062 81.5506ZM30.2555 48.2537L29.9987 48.0985L30.2555 48.2537ZM56.7214 20.8886L56.5522 20.6408L56.7214 20.8886ZM95.0558 4.00869L95.1283 4.2998L95.0558 4.00869ZM138.88 0.422809L138.903 0.123724L138.88 0.422809ZM91.3498 112.874L91.6498 112.872L91.6457 112.259L91.1639 112.639L91.3498 112.874ZM52.5742 143.486L52.3883 143.25L52.2742 143.341V143.486H52.5742ZM91.5911 148.958L91.777 149.194L91.8921 149.103L91.8911 148.956L91.5911 148.958ZM52.5742 179.76H52.2742V180.379L52.7601 179.996L52.5742 179.76ZM27.837 115.239L27.5706 115.377L27.837 115.239ZM52.0864 143.559H52.3864V143.411L52.2691 143.321L52.0864 143.559ZM22.7464 102.635L23.0342 102.55L22.7397 101.552L22.4576 102.554L22.7464 102.635ZM20.3054 118.145L20.0056 118.134L20.3054 118.145ZM28.0532 151.712L28.3195 151.574L28.0532 151.712ZM52.0864 179.837L51.9032 180.075L52.3864 180.447V179.837H52.0864ZM52.2842 179.989L52.1014 180.227L52.2867 180.37L52.4701 180.225L52.2842 179.989ZM52.1395 179.878V179.578H51.2568L51.9567 180.116L52.1395 179.878ZM52.4251 179.878L52.611 180.114L53.2892 179.578H52.4251V179.878ZM213.764 33.4233H214.064V32.8985L213.612 33.1648L213.764 33.4233ZM213.764 69.7254L213.917 69.9839L214.064 69.8969V69.7254H213.764ZM169.257 59.6341L169.105 59.3756L168.157 59.9341H169.257V59.6341ZM169.26 59.6341H169.56V59.3341H169.26V59.6341ZM169.26 95.9344H168.96V96.4592L169.413 96.1929L169.26 95.9344ZM168.955 59.6341V59.9341H169.67L169.168 59.4238L168.955 59.6341ZM153.233 49.0353L153.113 49.3103L153.233 49.0353ZM168.773 59.6341V59.3341H168.473V59.6341H168.773ZM168.773 95.6911L168.561 95.9039L169.073 96.412V95.6911H168.773ZM153.33 85.397L153.21 85.672L153.33 85.397ZM133.228 80.4673L133.252 80.1682L133.228 80.4673ZM112.269 82.1824L112.196 81.8913L112.269 82.1824ZM93.924 90.2608L94.0932 90.5085L93.924 90.2608ZM82.1324 101.973L81.8811 102.137L82.1297 102.518L82.382 102.14L82.1324 101.973ZM80.2986 98.834L80.0323 98.972L80.2986 98.834ZM76.5939 82.7818L76.8937 82.7926L76.5939 82.7818ZM81.451 66.9161L81.1943 66.7609L81.451 66.9161ZM94.0618 53.8769L93.8926 53.6291L94.0618 53.8769ZM112.328 45.8338L112.255 45.5427L112.328 45.8338ZM133.21 44.1251L133.233 43.826L133.21 44.1251ZM169.056 95.9756V95.6756H168.339L168.843 96.1863L169.056 95.9756ZM169.106 96.0255L168.892 96.2362L169.056 96.4027L169.258 96.284L169.106 96.0255ZM169.19 95.9756L169.343 96.2341L170.291 95.6756H169.19V95.9756ZM169.088 135.28L168.934 135.022L168.6 135.222L168.879 135.494L169.088 135.28ZM208.837 111.503L209.043 111.286L208.878 111.129L208.683 111.246L208.837 111.503ZM178.63 159.633L178.928 159.666L178.63 159.633ZM163.317 182.81L163.484 183.059L163.317 182.81ZM131.201 191.725L131.206 191.425H131.206L131.201 191.725ZM99.9826 181.875L100.159 181.633L99.979 181.501L99.8012 181.636L99.9826 181.875ZM64.2825 208.987L64.1011 208.748L63.7806 208.991L64.1053 209.229L64.2825 208.987ZM129.97 229.735L129.975 229.435H129.975L129.97 229.735ZM197.463 211.015L197.631 211.263L197.463 211.015ZM229.401 162.768L229.699 162.801L229.401 162.768ZM129.961 230.223L129.966 229.923L129.961 230.223ZM63.8773 209.295L63.6996 209.536L63.6997 209.536L63.8773 209.295ZM197.736 211.419L197.568 211.17L197.736 211.419ZM229.231 167.157L229.527 167.108L228.937 167.101L229.231 167.157ZM229.643 182.307L229.345 182.274L229.643 182.307ZM197.599 230.729L197.431 230.48L197.599 230.729ZM129.965 249.491L129.97 249.191L129.965 249.491ZM63.7557 228.415V228.115H62.8457L63.5773 228.656L63.7557 228.415ZM63.7921 228.415V228.715H64.0921V228.415H63.7921ZM63.7921 209.232L63.9698 208.99L63.4921 208.639V209.232H63.7921ZM63.4684 208.993L63.2869 208.754L62.9688 208.995L63.2895 209.233L63.4684 208.993ZM63.6758 209.146V209.446H64.587L63.854 208.905L63.6758 209.146ZM99.9781 181.266L100.157 181.025L99.9761 180.891L99.7966 181.027L99.9781 181.266ZM131.21 191.238L131.215 190.938H131.215L131.21 191.238ZM163.044 182.406L163.212 182.654V182.654L163.044 182.406ZM176.411 166.516L176.69 166.626L176.939 165.996L176.305 166.235L176.411 166.516ZM176.321 166.55L176.04 166.655L176.146 166.936L176.427 166.83L176.321 166.55ZM168.366 154.879L168.147 154.673L167.942 154.891L168.16 155.097L168.366 154.879ZM168.481 154.756L168.7 154.962L169.176 154.456H168.481V154.756ZM168.285 154.756H167.985V155.056H168.285V154.756ZM168.285 135.366V135.066H167.985V135.366H168.285ZM168.476 135.366V135.666H169.224L168.683 135.149L168.476 135.366ZM168.289 135.189L168.135 134.932L167.795 135.135L168.084 135.407L168.289 135.189ZM208.903 110.895L209.109 110.677L208.944 110.521L208.749 110.637L208.903 110.895ZM229.886 162.822L230.184 162.855L229.886 162.822ZM229.428 166.073L229.132 166.022L229.06 166.446L229.482 166.368L229.428 166.073ZM229.533 166.053L229.828 165.999L229.773 165.704L229.478 165.758L229.533 166.053ZM230.128 182.361L229.83 182.328L230.128 182.361ZM197.872 231.134L198.04 231.382L197.872 231.134ZM129.956 249.979L129.951 250.279L129.956 249.979ZM63.3227 228.701L63.0818 228.522L62.903 228.763L63.1438 228.942L63.3227 228.701ZM63.5351 228.415L63.776 228.593L64.1316 228.115H63.5351V228.415ZM63.3043 228.415H63.0043V228.715H63.3043V228.415ZM63.3043 209.146V208.846H63.0043V209.146H63.3043ZM168.773 135.653L168.982 135.438L168.473 134.94V135.653H168.773ZM168.773 154.592H168.473V154.721L168.566 154.81L168.773 154.592ZM178.145 159.579L177.847 159.546L178.145 159.579ZM176.62 165.97L176.341 166.08L176.629 166.809L176.901 166.074L176.62 165.97ZM97.5219 124.093L97.8085 124.004L97.505 123.025L97.2327 124.013L97.5219 124.093ZM164.915 124.092L165.204 124.012L164.932 123.024L164.629 124.003L164.915 124.092ZM97.3084 123.368L97.2217 123.655L97.744 123.813L97.5974 123.287L97.3084 123.368ZM97.2304 123.344L97.3172 123.057L97.0299 122.97L96.9432 123.257L97.2304 123.344ZM165.28 123.59L165.568 123.506L165.484 123.218L165.196 123.302L165.28 123.59ZM165.046 123.659L164.757 123.575L164.605 124.1L165.129 123.947L165.046 123.659ZM213.557 32.8939C204.677 23.9238 193.544 16.4404 180.827 10.8998L180.587 11.4498C193.241 16.9631 204.309 24.4051 213.131 33.316L213.557 32.8939ZM169.298 59.3922L213.496 33.3635L213.192 32.8464L168.994 58.8752L169.298 59.3922ZM153.308 48.8631C159.369 51.5041 164.684 55.0689 168.933 59.3452L169.359 58.9223C165.051 54.5873 159.672 50.9813 153.547 48.313L153.308 48.8631ZM133.224 43.9379C140.282 44.4903 147.119 46.1665 153.308 48.8631L153.547 48.313C147.294 45.5885 140.392 43.897 133.271 43.3397L133.224 43.9379ZM112.282 45.6515C119.038 43.9687 126.167 43.3855 133.224 43.9379L133.271 43.3397C126.15 42.7824 118.957 43.3706 112.137 45.0693L112.282 45.6515ZM93.956 53.7217C99.2882 50.0809 105.527 47.3343 112.282 45.6515L112.137 45.0693C105.318 46.7679 99.0132 49.5422 93.6176 53.2262L93.956 53.7217ZM81.2904 66.8189C84.3111 61.8204 88.6237 57.3626 93.956 53.7217L93.6176 53.2262C88.222 56.9103 83.8466 61.4289 80.7769 66.5086L81.2904 66.8189ZM76.4063 82.775C76.6058 77.2497 78.2694 71.8178 81.2904 66.8189L80.7769 66.5086C77.7063 71.5897 76.0101 77.1201 75.8067 82.7534L76.4063 82.775ZM80.132 98.9204C77.4759 93.7968 76.2068 88.3004 76.4063 82.775L75.8067 82.7534C75.6033 88.3869 76.8978 93.9854 79.5993 99.1966L80.132 98.9204ZM91.3421 112.169C86.5138 108.379 82.7011 103.876 80.132 98.9204L79.5993 99.1966C82.2117 104.236 86.0828 108.804 90.9716 112.641L91.3421 112.169ZM52.4684 143.33L91.3428 112.641L90.971 112.17L52.0966 142.859L52.4684 143.33ZM28.0036 115.152C33.4813 125.719 41.68 135.308 52.0994 143.332L52.4655 142.857C42.1082 134.881 33.9696 125.357 28.5363 114.876L28.0036 115.152ZM20.2496 81.5574C19.8347 93.0486 22.4734 104.485 28.0036 115.152L28.5363 114.876C23.0515 104.296 20.4382 92.9622 20.8492 81.579L20.2496 81.5574ZM30.4161 48.3508C24.1243 58.7622 20.6645 70.0661 20.2496 81.5574L20.8492 81.579C21.2602 70.1956 24.6875 58.9904 30.9296 48.6612L30.4161 48.3508ZM56.8272 21.0437C45.6979 28.6427 36.7082 37.9391 30.4161 48.3508L30.9296 48.6612C37.1727 38.3305 46.0995 29.0949 57.1655 21.5392L56.8272 21.0437ZM95.1011 4.19093C80.9853 7.70718 67.9565 13.4447 56.8272 21.0437L57.1655 21.5392C68.2316 13.9834 81.1939 8.27355 95.2462 4.77314L95.1011 4.19093ZM138.865 0.610042C124.115 -0.54442 109.217 0.674692 95.1011 4.19093L95.2462 4.77314C109.298 1.27278 124.132 0.0587036 138.819 1.20821L138.865 0.610042ZM180.827 10.8998C167.9 5.26764 153.616 1.76451 138.865 0.610042L138.819 1.20821C153.506 2.35773 167.725 5.84563 180.587 11.4498L180.827 10.8998ZM213.991 32.6389C205.049 23.5814 193.831 16.0336 181.022 10.4526L180.782 11.0026C193.529 16.5562 204.681 24.0625 213.564 33.0604L213.991 32.6389ZM214.344 32.9988C214.227 32.8786 214.109 32.7586 213.991 32.6389L213.564 33.0604C213.681 33.1793 213.798 33.2985 213.915 33.4179L214.344 32.9988ZM214.138 33.5512L214.282 33.4669L213.977 32.9499L213.834 33.0342L214.138 33.5512ZM214.252 32.9927H213.986V33.5927H214.252V32.9927ZM214.552 69.878V33.2927H213.952V69.878H214.552ZM214.179 70.178H214.252V69.578H214.179V70.178ZM214.511 69.8517L214.437 69.7259L213.92 70.0302L213.994 70.1561L214.511 69.8517ZM169.176 96.8981L214.405 70.2624L214.101 69.7454L168.872 96.3811L169.176 96.8981ZM168.676 96.7124L168.809 96.8492L169.239 96.4301L169.105 96.2933L168.676 96.7124ZM153.015 86.1192C159.126 88.7818 164.456 92.39 168.676 96.7124L169.105 96.2933C164.826 91.91 159.43 88.2596 153.255 85.5692L153.015 86.1192ZM133.167 81.2527C140.148 81.799 146.904 83.4567 153.015 86.1192L153.255 85.5692C147.08 82.8787 140.258 81.2058 133.214 80.6545L133.167 81.2527ZM112.459 82.9469C119.137 81.2834 126.186 80.7063 133.167 81.2527L133.214 80.6545C126.17 80.1032 119.055 80.6853 112.314 82.3646L112.459 82.9469ZM94.3681 90.9114C99.6233 87.3232 105.781 84.6103 112.459 82.9469L112.314 82.3646C105.572 84.044 99.3482 86.7845 94.0298 90.4159L94.3681 90.9114ZM82.6858 102.564C85.5929 98.1553 89.5527 94.1993 94.3681 90.9114L94.0298 90.4159C89.1563 93.7435 85.139 97.7538 82.1849 102.234L82.6858 102.564ZM82.2324 102.625L82.2702 102.65L82.6006 102.149L82.5627 102.124L82.2324 102.625ZM91.7355 111.858C88.0871 109.009 85.0254 105.753 82.6467 102.207L82.1484 102.541C84.5652 106.144 87.6716 109.445 91.3662 112.331L91.7355 111.858ZM92.1309 112.163C91.9983 112.062 91.8665 111.96 91.7355 111.858L91.3662 112.331C91.4989 112.434 91.6324 112.537 91.7666 112.64L92.1309 112.163ZM91.9341 112.795L92.1346 112.637L91.7628 112.166L91.5623 112.324L91.9341 112.795ZM91.8335 112.259L91.7461 112.26L91.7502 112.86L91.8375 112.859L91.8335 112.259ZM92.3794 149.021L92.1355 112.557L91.5355 112.561L91.7794 149.025L92.3794 149.021ZM91.9793 149.323L92.0814 149.323L92.0774 148.723L91.9752 148.723L91.9793 149.323ZM92.335 148.992L92.2127 148.838L91.7418 149.209L91.864 149.364L92.335 148.992ZM52.4748 180.842L92.2854 149.414L91.9136 148.943L52.1031 180.371L52.4748 180.842ZM51.9563 180.73L52.1068 180.845L52.4711 180.369L52.3206 180.254L51.9563 180.73ZM27.3539 152.075C32.9389 162.848 41.3171 172.601 51.9563 180.73L52.3206 180.254C41.7441 172.172 33.4268 162.486 27.8866 151.798L27.3539 152.075ZM19.5182 118.116C19.0985 129.739 21.7683 141.3 27.3539 152.075L27.8866 151.798C22.3464 141.111 19.7021 129.653 20.1178 118.138L19.5182 118.116ZM22.1309 101.922C20.5942 107.227 19.7156 112.65 19.5182 118.116L20.1178 118.138C20.3134 112.722 21.184 107.347 22.7072 102.089L22.1309 101.922ZM22.6605 101.763L22.5025 101.717L22.3355 102.293L22.4936 102.339L22.6605 101.763ZM19.7622 81.5398C19.5117 88.477 20.3659 95.3932 22.2886 102.133L22.8655 101.969C20.9598 95.2881 20.1136 88.4347 20.3618 81.5614L19.7622 81.5398ZM29.9987 48.0985C23.6665 58.5767 20.1802 69.9608 19.7622 81.5398L20.3618 81.5614C20.776 70.0903 24.2297 58.8049 30.5123 48.4088L29.9987 48.0985ZM56.5522 20.6408C45.3714 28.2749 36.3306 37.6208 29.9987 48.0985L30.5123 48.4088C36.7951 38.0123 45.7731 28.7272 56.8905 21.1363L56.5522 20.6408ZM94.9833 3.71759C80.8158 7.24671 67.733 13.0067 56.5522 20.6408L56.8905 21.1363C68.008 13.5454 81.0244 7.81308 95.1283 4.2998L94.9833 3.71759ZM138.903 0.123724C124.102 -1.03476 109.151 0.188441 94.9833 3.71759L95.1283 4.2998C109.232 0.786529 124.118 -0.43164 138.857 0.721895L138.903 0.123724ZM181.022 10.4526C168.043 4.79772 153.705 1.28221 138.903 0.123724L138.857 0.721895C153.595 1.87543 167.867 5.37571 180.782 11.0026L181.022 10.4526ZM91.1639 112.639L52.3883 143.25L52.7601 143.721L91.5357 113.11L91.1639 112.639ZM91.8911 148.956L91.6498 112.872L91.0498 112.876L91.2911 148.96L91.8911 148.956ZM52.7601 179.996L91.777 149.194L91.4052 148.723L52.3883 179.525L52.7601 179.996ZM52.2742 143.486V179.76H52.8742V143.486H52.2742ZM27.5706 115.377C33.1023 126.047 41.3854 135.718 51.9036 143.797L52.2691 143.321C41.8132 135.29 33.5904 125.685 28.1033 115.101L27.5706 115.377ZM22.4587 102.72C23.7288 107.027 25.436 111.259 27.5706 115.377L28.1033 115.101C25.9859 111.016 24.2932 106.819 23.0342 102.55L22.4587 102.72ZM20.6052 118.156C20.7932 112.949 21.6098 107.78 23.0352 102.716L22.4576 102.554C21.0195 107.663 20.1953 112.879 20.0056 118.134L20.6052 118.156ZM28.3195 151.574C22.8163 140.958 20.1926 129.583 20.6052 118.156L20.0056 118.134C19.5891 129.669 22.2382 141.147 27.7869 151.85L28.3195 151.574ZM52.2696 179.6C41.9093 171.611 33.7627 162.074 28.3195 151.574L27.7869 151.85C33.2743 162.435 41.481 172.039 51.9032 180.075L52.2696 179.6ZM51.7864 143.559V179.837H52.3864V143.559H51.7864ZM52.467 179.751L52.3223 179.64L51.9567 180.116L52.1014 180.227L52.467 179.751ZM52.2392 179.643L52.0983 179.754L52.4701 180.225L52.611 180.114L52.2392 179.643ZM52.1395 180.178H52.4251V179.578H52.1395V180.178ZM213.464 33.4233V69.7254H214.064V33.4233H213.464ZM169.409 59.8926L213.917 33.6818L213.612 33.1648L169.105 59.3756L169.409 59.8926ZM169.26 59.3341H169.257V59.9341H169.26V59.3341ZM169.56 95.9344V59.6341H168.96V95.9344H169.56ZM213.612 69.4669L169.108 95.6759L169.413 96.1929L213.917 69.9839L213.612 69.4669ZM169.168 59.4238C164.883 55.0665 159.5 51.4387 153.353 48.7602L153.113 49.3103C159.197 51.9611 164.514 55.5471 168.741 59.8445L169.168 59.4238ZM168.773 59.9341H168.955V59.3341H168.773V59.9341ZM169.073 95.6911V59.6341H168.473V95.6911H169.073ZM153.21 85.672C159.152 88.2609 164.369 91.7396 168.561 95.9039L168.984 95.4782C164.734 91.2567 159.453 87.7377 153.45 85.1219L153.21 85.672ZM133.205 80.7664C140.237 81.3167 147.047 82.9868 153.21 85.672L153.45 85.1219C147.223 82.4088 140.347 80.7235 133.252 80.1682L133.205 80.7664ZM112.341 82.4735C119.071 80.7972 126.173 80.216 133.205 80.7664L133.252 80.1682C126.157 79.6129 118.989 80.1991 112.196 81.8913L112.341 82.4735ZM94.0932 90.5085C99.3997 86.8853 105.612 84.1499 112.341 82.4735L112.196 81.8913C105.403 83.5835 99.1246 86.3465 93.7548 90.013L94.0932 90.5085ZM82.382 102.14C85.3174 97.7357 89.2872 93.79 94.0932 90.5085L93.7548 90.013C88.8914 93.3337 84.8648 97.333 81.8828 101.807L82.382 102.14ZM80.0323 98.972C80.5908 100.049 81.2079 101.105 81.8811 102.137L82.3836 101.809C81.7211 100.794 81.1141 99.7552 80.565 98.6959L80.0323 98.972ZM76.2941 82.771C76.0939 88.3166 77.3677 93.8321 80.0323 98.972L80.565 98.6959C77.9458 93.6435 76.6974 88.2302 76.8937 82.7926L76.2941 82.771ZM81.1943 66.7609C78.164 71.7752 76.4943 77.2254 76.2941 82.771L76.8937 82.7926C77.09 77.355 78.7272 72.0034 81.7078 67.0713L81.1943 66.7609ZM93.8926 53.6291C88.5485 57.278 84.2242 61.7472 81.1943 66.7609L81.7078 67.0713C84.6887 62.1386 88.9501 57.7303 94.2309 54.1246L93.8926 53.6291ZM112.255 45.5427C105.488 47.2284 99.2367 49.9802 93.8926 53.6291L94.2309 54.1246C99.5118 50.5189 105.697 47.7948 112.4 46.1249L112.255 45.5427ZM133.233 43.826C126.164 43.2727 119.023 43.8569 112.255 45.5427L112.4 46.1249C119.104 44.455 126.18 43.8759 133.186 44.4242L133.233 43.826ZM153.353 48.7602C147.151 46.0584 140.303 44.3793 133.233 43.826L133.186 44.4242C140.193 44.9726 146.976 46.6364 153.113 49.3103L153.353 48.7602ZM168.843 96.1863L168.892 96.2362L169.319 95.8148L169.27 95.7649L168.843 96.1863ZM169.19 95.6756H169.056V96.2756H169.19V95.6756ZM169.258 96.284L169.343 96.2341L169.038 95.7171L168.953 95.767L169.258 96.284ZM169.242 135.537L208.991 111.761L208.683 111.246L168.934 135.022L169.242 135.537ZM178.928 159.666C179.913 150.8 176.439 142.027 169.298 135.065L168.879 135.494C175.908 142.347 179.293 150.943 178.331 159.6L178.928 159.666ZM163.484 183.059C172.36 177.072 177.922 168.717 178.928 159.666L178.331 159.6C177.349 168.442 171.909 176.652 163.149 182.561L163.484 183.059ZM131.196 192.025C143.061 192.24 154.611 189.044 163.484 183.059L163.149 182.561C154.389 188.47 142.963 191.638 131.206 191.425L131.196 192.025ZM99.8058 182.117C108.258 188.285 119.469 191.813 131.196 192.025L131.206 191.425C119.587 191.215 108.5 187.719 100.159 181.633L99.8058 182.117ZM64.4639 209.226L100.164 182.114L99.8012 181.636L64.1011 208.748L64.4639 209.226ZM129.975 229.435C105.404 228.991 82.0047 221.583 64.4597 208.745L64.1053 209.229C81.7626 222.149 105.286 229.589 129.964 230.035L129.975 229.435ZM197.295 210.766C178.871 223.194 154.79 229.883 129.975 229.435L129.964 230.035C154.887 230.485 179.093 223.768 197.631 211.263L197.295 210.766ZM229.103 162.735C227.058 181.146 215.718 198.34 197.295 210.766L197.631 211.263C216.169 198.759 227.631 181.421 229.699 162.801L229.103 162.735ZM208.63 111.721C223.849 126.204 231.136 144.438 229.103 162.735L229.699 162.801C231.756 144.291 224.377 125.879 209.043 111.286L208.63 111.721ZM129.966 229.923C105.254 229.476 81.7041 222.01 64.0548 209.053L63.6997 209.536C81.4614 222.576 105.135 230.074 129.955 230.523L129.966 229.923ZM197.568 211.17C179.051 223.66 154.869 230.373 129.966 229.923L129.955 230.523C154.967 230.975 179.273 224.234 197.904 211.668L197.568 211.17ZM228.937 167.101C225.701 184.033 214.644 199.653 197.568 211.17L197.904 211.668C215.086 200.078 226.255 184.331 229.526 167.214L228.937 167.101ZM229.941 182.34C230.509 177.229 230.361 172.126 229.527 167.108L228.935 167.206C229.76 172.17 229.907 177.218 229.345 182.274L229.941 182.34ZM197.767 230.978C216.351 218.442 227.863 201.045 229.941 182.34L229.345 182.274C227.29 200.77 215.901 218.023 197.431 230.48L197.767 230.978ZM129.959 249.791C154.927 250.242 179.182 243.513 197.767 230.978L197.431 230.48C178.961 242.939 154.829 249.64 129.97 249.191L129.959 249.791ZM63.5773 228.656C81.3225 241.783 105.059 249.341 129.959 249.791L129.97 249.191C105.178 248.743 81.5664 241.217 63.9341 228.173L63.5773 228.656ZM63.7921 228.115H63.7557V228.715H63.7921V228.115ZM63.4921 209.232V228.415H64.0921V209.232H63.4921ZM64.0549 209.053L63.9698 208.99L63.6145 209.474L63.6996 209.536L64.0549 209.053ZM63.2895 209.233C63.3588 209.285 63.4281 209.336 63.4976 209.388L63.854 208.905C63.785 208.854 63.7161 208.803 63.6472 208.752L63.2895 209.233ZM99.7966 181.027L63.2869 208.754L63.6498 209.232L100.16 181.505L99.7966 181.027ZM131.215 190.938C119.547 190.727 108.438 187.176 100.157 181.025L99.7992 181.507C108.193 187.742 119.428 191.325 131.204 191.538L131.215 190.938ZM162.876 182.157C154.209 188.003 142.883 191.149 131.215 190.938L131.204 191.538C142.981 191.75 154.431 188.577 163.212 182.654L162.876 182.157ZM176.132 166.405C173.76 172.42 169.204 177.888 162.876 182.157L163.212 182.654C169.625 178.329 174.267 172.77 176.69 166.626L176.132 166.405ZM176.427 166.83L176.517 166.796L176.305 166.235L176.215 166.269L176.427 166.83ZM168.16 155.097C171.838 158.565 174.471 162.497 176.04 166.655L176.602 166.444C174.998 162.194 172.31 158.187 168.571 154.661L168.16 155.097ZM168.263 154.55L168.147 154.673L168.584 155.085L168.7 154.962L168.263 154.55ZM168.285 155.056H168.481V154.456H168.285V155.056ZM167.985 135.366V154.756H168.585V135.366H167.985ZM168.476 135.066H168.285V135.666H168.476V135.066ZM168.084 135.407C168.145 135.466 168.207 135.524 168.268 135.583L168.683 135.149C168.621 135.089 168.558 135.03 168.495 134.971L168.084 135.407ZM208.749 110.637L168.135 134.932L168.443 135.447L209.057 111.152L208.749 110.637ZM230.184 162.855C232.272 144.062 224.72 125.398 209.109 110.677L208.698 111.113C224.192 125.726 231.652 144.211 229.588 162.789L230.184 162.855ZM229.723 166.123C229.909 165.039 230.062 163.949 230.184 162.855L229.588 162.789C229.467 163.871 229.315 164.949 229.132 166.022L229.723 166.123ZM229.478 165.758L229.373 165.778L229.482 166.368L229.587 166.348L229.478 165.758ZM230.426 182.394C231.038 176.888 230.825 171.39 229.828 165.999L229.238 166.108C230.225 171.442 230.435 176.88 229.83 182.328L230.426 182.394ZM198.04 231.382C216.718 218.784 228.329 201.269 230.426 182.394L229.83 182.328C227.756 200.994 216.267 218.364 197.704 230.885L198.04 231.382ZM129.951 250.279C155.006 250.731 179.363 243.98 198.04 231.382L197.704 230.885C179.141 243.406 154.909 250.13 129.961 249.679L129.951 250.279ZM63.1438 228.942C80.9964 242.202 104.895 249.826 129.951 250.279L129.961 249.679C105.014 249.228 81.2409 241.637 63.5015 228.46L63.1438 228.942ZM63.2943 228.236L63.0818 228.522L63.5635 228.88L63.776 228.593L63.2943 228.236ZM63.3043 228.715H63.5351V228.115H63.3043V228.715ZM63.0043 209.146V228.415H63.6043V209.146H63.0043ZM63.6758 208.846H63.3043V209.446H63.6758V208.846ZM168.473 135.653V154.592H169.073V135.653H168.473ZM178.443 159.612C179.408 150.927 176.015 142.308 168.982 135.438L168.563 135.867C175.484 142.627 178.788 151.07 177.847 159.546L178.443 159.612ZM176.901 166.074C177.679 163.976 178.198 161.814 178.443 159.612L177.847 159.546C177.608 161.697 177.1 163.812 176.339 165.866L176.901 166.074ZM168.566 154.81C172.138 158.197 174.739 162.024 176.341 166.08L176.899 165.86C175.262 161.716 172.61 157.817 168.979 154.375L168.566 154.81ZM96.8908 130.976C96.8908 128.634 97.2093 126.356 97.8111 124.172L97.2327 124.013C96.6168 126.248 96.2908 128.579 96.2908 130.976H96.8908ZM131.219 160.432C112.18 160.432 96.8908 147.17 96.8908 130.976H96.2908C96.2908 147.583 111.937 161.032 131.219 161.032V160.432ZM165.546 130.976C165.546 147.17 150.257 160.432 131.219 160.432V161.032C150.501 161.032 166.146 147.583 166.146 130.976H165.546ZM164.626 124.172C165.228 126.356 165.546 128.633 165.546 130.976H166.146C166.146 128.579 165.82 126.247 165.204 124.012L164.626 124.172ZM131.218 146.641C147.471 146.641 161.185 137.139 165.202 124.181L164.629 124.003C160.702 136.669 147.254 146.041 131.218 146.041V146.641ZM97.2354 124.182C101.252 137.139 114.966 146.641 131.218 146.641V146.041C115.184 146.041 101.735 136.669 97.8085 124.004L97.2354 124.182ZM97.3951 123.08L97.3172 123.057L97.1437 123.631L97.2217 123.655L97.3951 123.08ZM96.9432 123.257C96.1992 125.723 95.8031 128.31 95.8031 130.976H96.4031C96.4031 128.369 96.7902 125.841 97.5177 123.431L96.9432 123.257ZM95.8031 130.976C95.8031 147.919 111.739 161.519 131.219 161.519V160.919C111.982 160.919 96.4031 147.505 96.4031 130.976H95.8031ZM131.219 161.519C150.698 161.519 166.634 147.919 166.634 130.976H166.034C166.034 147.505 150.455 160.919 131.219 160.919V161.519ZM166.634 130.976C166.634 128.399 166.264 125.897 165.568 123.506L164.992 123.674C165.673 126.011 166.034 128.457 166.034 130.976H166.634ZM165.196 123.302L164.962 123.371L165.129 123.947L165.364 123.878L165.196 123.302ZM165.334 123.742C166.024 121.374 166.39 118.894 166.39 116.341H165.79C165.79 118.836 165.432 121.259 164.757 123.575L165.334 123.742ZM166.39 116.341C166.39 99.5665 150.599 86.0415 131.218 86.0415V86.6415C150.356 86.6415 165.79 99.9794 165.79 116.341H166.39ZM131.218 86.0415C111.838 86.0415 96.0468 99.5665 96.0468 116.341H96.6468C96.6468 99.9794 112.081 86.6415 131.218 86.6415V86.0415ZM96.0468 116.341C96.0468 118.789 96.3836 121.169 97.0195 123.448L97.5974 123.287C96.9759 121.059 96.6468 118.733 96.6468 116.341H96.0468ZM131.218 146.154C150.402 146.154 165.902 132.781 165.902 116.341H165.302C165.302 132.368 150.158 145.554 131.218 145.554V146.154ZM96.5345 116.341C96.5345 132.781 112.035 146.154 131.218 146.154V145.554C112.279 145.554 97.1345 132.368 97.1345 116.341H96.5345ZM131.218 86.5293C112.035 86.5293 96.5345 99.9024 96.5345 116.341H97.1345C97.1345 100.315 112.279 87.1293 131.218 87.1293V86.5293ZM165.902 116.341C165.902 99.9024 150.402 86.5293 131.218 86.5293V87.1293C150.158 87.1293 165.302 100.315 165.302 116.341H165.902Z" fill="black" mask="url(#path-1-outside-1_4009_9140)"/>
<g filter="url(#filter0_ii_4009_9140)">
<path d="M213.5 33.5L169.5 59.5V96L213.5 70V33.5Z" fill="url(#paint0_linear_4009_9140)"/>
</g>
<g filter="url(#filter1_ii_4009_9140)">
<ellipse cx="131" cy="116" rx="34" ry="29" fill="url(#paint1_linear_4009_9140)"/>
</g>
<g filter="url(#filter2_ii_4009_9140)">
<path d="M53 179.5V143.5L91.5 113V149L53 179.5Z" fill="url(#paint2_linear_4009_9140)"/>
</g>
</g>
<defs>
<filter id="filter0_ii_4009_9140" x="169.5" y="33.5" width="44" height="62.5" filterUnits="userSpaceOnUse" color-interpolation-filters="sRGB">
<feFlood flood-opacity="0" result="BackgroundImageFix"/>
<feBlend mode="normal" in="SourceGraphic" in2="BackgroundImageFix" result="shape"/>
<feColorMatrix in="SourceAlpha" type="matrix" values="0 0 0 0 0 0 0 0 0 0 0 0 0 0 0 0 0 0 127 0" result="hardAlpha"/>
<feOffset/>
<feGaussianBlur stdDeviation="5"/>
<feComposite in2="hardAlpha" operator="arithmetic" k2="-1" k3="1"/>
<feColorMatrix type="matrix" values="0 0 0 0 1 0 0 0 0 1 0 0 0 0 1 0 0 0 0.3 0"/>
<feBlend mode="normal" in2="shape" result="effect1_innerShadow_4009_9140"/>
<feColorMatrix in="SourceAlpha" type="matrix" values="0 0 0 0 0 0 0 0 0 0 0 0 0 0 0 0 0 0 127 0" result="hardAlpha"/>
<feOffset/>
<feGaussianBlur stdDeviation="1.5"/>
<feComposite in2="hardAlpha" operator="arithmetic" k2="-1" k3="1"/>
<feColorMatrix type="matrix" values="0 0 0 0 0 0 0 0 0 0 0 0 0 0 0 0 0 0 0.1 0"/>
<feBlend mode="normal" in2="effect1_innerShadow_4009_9140" result="effect2_innerShadow_4009_9140"/>
</filter>
<filter id="filter1_ii_4009_9140" x="97" y="87" width="68" height="58" filterUnits="userSpaceOnUse" color-interpolation-filters="sRGB">
<feFlood flood-opacity="0" result="BackgroundImageFix"/>
<feBlend mode="normal" in="SourceGraphic" in2="BackgroundImageFix" result="shape"/>
<feColorMatrix in="SourceAlpha" type="matrix" values="0 0 0 0 0 0 0 0 0 0 0 0 0 0 0 0 0 0 127 0" result="hardAlpha"/>
<feOffset/>
<feGaussianBlur stdDeviation="5"/>
<feComposite in2="hardAlpha" operator="arithmetic" k2="-1" k3="1"/>
<feColorMatrix type="matrix" values="0 0 0 0 1 0 0 0 0 1 0 0 0 0 1 0 0 0 0.3 0"/>
<feBlend mode="normal" in2="shape" result="effect1_innerShadow_4009_9140"/>
<feColorMatrix in="SourceAlpha" type="matrix" values="0 0 0 0 0 0 0 0 0 0 0 0 0 0 0 0 0 0 127 0" result="hardAlpha"/>
<feOffset/>
<feGaussianBlur stdDeviation="1.5"/>
<feComposite in2="hardAlpha" operator="arithmetic" k2="-1" k3="1"/>
<feColorMatrix type="matrix" values="0 0 0 0 0 0 0 0 0 0 0 0 0 0 0 0 0 0 0.1 0"/>
<feBlend mode="normal" in2="effect1_innerShadow_4009_9140" result="effect2_innerShadow_4009_9140"/>
</filter>
<filter id="filter2_ii_4009_9140" x="53" y="113" width="38.5" height="66.5" filterUnits="userSpaceOnUse" color-interpolation-filters="sRGB">
<feFlood flood-opacity="0" result="BackgroundImageFix"/>
<feBlend mode="normal" in="SourceGraphic" in2="BackgroundImageFix" result="shape"/>
<feColorMatrix in="SourceAlpha" type="matrix" values="0 0 0 0 0 0 0 0 0 0 0 0 0 0 0 0 0 0 127 0" result="hardAlpha"/>
<feOffset/>
<feGaussianBlur stdDeviation="5"/>
<feComposite in2="hardAlpha" operator="arithmetic" k2="-1" k3="1"/>
<feColorMatrix type="matrix" values="0 0 0 0 1 0 0 0 0 1 0 0 0 0 1 0 0 0 0.3 0"/>
<feBlend mode="normal" in2="shape" result="effect1_innerShadow_4009_9140"/>
<feColorMatrix in="SourceAlpha" type="matrix" values="0 0 0 0 0 0 0 0 0 0 0 0 0 0 0 0 0 0 127 0" result="hardAlpha"/>
<feOffset/>
<feGaussianBlur stdDeviation="1.5"/>
<feComposite in2="hardAlpha" operator="arithmetic" k2="-1" k3="1"/>
<feColorMatrix type="matrix" values="0 0 0 0 0 0 0 0 0 0 0 0 0 0 0 0 0 0 0.1 0"/>
<feBlend mode="normal" in2="effect1_innerShadow_4009_9140" result="effect2_innerShadow_4009_9140"/>
</filter>
<linearGradient id="paint0_linear_4009_9140" x1="191.5" y1="33.5" x2="191.5" y2="96" gradientUnits="userSpaceOnUse">
<stop stop-color="#CAEBFF"/>
<stop offset="1" stop-color="#CAEBFF" stop-opacity="0"/>
</linearGradient>
<linearGradient id="paint1_linear_4009_9140" x1="131" y1="87" x2="131" y2="145" gradientUnits="userSpaceOnUse">
<stop stop-color="#CAEBFF"/>
<stop offset="1" stop-color="#CAEBFF" stop-opacity="0"/>
</linearGradient>
<linearGradient id="paint2_linear_4009_9140" x1="72.25" y1="113" x2="72.25" y2="179.5" gradientUnits="userSpaceOnUse">
<stop stop-color="#CAEBFF"/>
<stop offset="1" stop-color="#CAEBFF" stop-opacity="0"/>
</linearGradient>
<clipPath id="clip0_4009_9140">
<rect width="250" height="250" fill="white"/>
</clipPath>
</defs>
</svg>
