
<svg width="24" height="24" viewBox="0 0 24 24" fill="none" xmlns="http://www.w3.org/2000/svg">
<g clip-path="url(#clip0_2422_12566)">
<path d="M19 6.00056H14.321C13.9224 5.71647 13.4744 5.50894 13 5.38856V5.00056L16.53 3.34856C16.6747 3.25887 16.7941 3.13373 16.8769 2.98498C16.9598 2.83623 17.0032 2.6688 17.0032 2.49855C17.0032 2.32831 16.9598 2.16088 16.8769 2.01213C16.7941 1.86338 16.6747 1.73824 16.53 1.64856L13.33 0.148555C13.0802 0.0318068 12.8049 -0.0199286 12.5297 -0.00184918C12.2545 0.0162302 11.9883 0.103538 11.7559 0.251971C11.5235 0.400404 11.3323 0.605151 11.2002 0.847206C11.068 1.08926 10.9992 1.36078 11 1.63656V5.38856C10.5258 5.50877 10.0782 5.71632 9.68 6.00056H5C3.67441 6.00214 2.40356 6.52944 1.46622 7.46678C0.528882 8.40411 0.00158786 9.67496 0 11.0006L0 21.0006C0 21.7962 0.31607 22.5593 0.87868 23.1219C1.44129 23.6845 2.20435 24.0006 3 24.0006H21C21.7956 24.0006 22.5587 23.6845 23.1213 23.1219C23.6839 22.5593 24 21.7962 24 21.0006V11.0006C23.9984 9.67496 23.4711 8.40411 22.5338 7.46678C21.5964 6.52944 20.3256 6.00214 19 6.00056ZM21.816 10.0006H19.657C18.8618 9.99853 18.0995 9.68263 17.536 9.12156L16.414 8.00056H19C19.6183 8.00312 20.2206 8.19664 20.7247 8.55464C21.2288 8.91265 21.6099 9.41765 21.816 10.0006ZM5 8.00056H7.586L6.464 9.12156C5.90047 9.68263 5.13821 9.99853 4.343 10.0006H2.184C2.39008 9.41765 2.77123 8.91265 3.2753 8.55464C3.77937 8.19664 4.38174 8.00312 5 8.00056ZM13 22.0006H11V19.0006C11 18.7353 11.1054 18.481 11.2929 18.2934C11.4804 18.1059 11.7348 18.0006 12 18.0006C12.2652 18.0006 12.5196 18.1059 12.7071 18.2934C12.8946 18.481 13 18.7353 13 19.0006V22.0006ZM21 22.0006H15V19.0006C15 18.2049 14.6839 17.4418 14.1213 16.8792C13.5587 16.3166 12.7956 16.0006 12 16.0006C11.2044 16.0006 10.4413 16.3166 9.87868 16.8792C9.31607 17.4418 9 18.2049 9 19.0006V22.0006H3C2.73478 22.0006 2.48043 21.8952 2.29289 21.7077C2.10536 21.5201 2 21.2658 2 21.0006V12.0006H4.343C4.99982 12.0022 5.65043 11.8735 6.25721 11.6221C6.86398 11.3706 7.41487 11.0013 7.878 10.5356L10.586 7.82856C10.9611 7.45361 11.4697 7.24298 12 7.24298C12.5303 7.24298 13.0389 7.45361 13.414 7.82856L16.122 10.5356C16.5851 11.0013 17.136 11.3706 17.7428 11.6221C18.3496 11.8735 19.0002 12.0022 19.657 12.0006H22V21.0006C22 21.2658 21.8946 21.5201 21.7071 21.7077C21.5196 21.8952 21.2652 22.0006 21 22.0006ZM7 15.0006C7 15.2658 6.89464 15.5201 6.70711 15.7077C6.51957 15.8952 6.26522 16.0006 6 16.0006H5C4.73478 16.0006 4.48043 15.8952 4.29289 15.7077C4.10536 15.5201 4 15.2658 4 15.0006C4 14.7353 4.10536 14.481 4.29289 14.2935C4.48043 14.1059 4.73478 14.0006 5 14.0006H6C6.26522 14.0006 6.51957 14.1059 6.70711 14.2935C6.89464 14.481 7 14.7353 7 15.0006ZM7 19.0006C7 19.2658 6.89464 19.5201 6.70711 19.7077C6.51957 19.8952 6.26522 20.0006 6 20.0006H5C4.73478 20.0006 4.48043 19.8952 4.29289 19.7077C4.10536 19.5201 4 19.2658 4 19.0006C4 18.7353 4.10536 18.481 4.29289 18.2934C4.48043 18.1059 4.73478 18.0006 5 18.0006H6C6.26522 18.0006 6.51957 18.1059 6.70711 18.2934C6.89464 18.481 7 18.7353 7 19.0006ZM20 15.0006C20 15.2658 19.8946 15.5201 19.7071 15.7077C19.5196 15.8952 19.2652 16.0006 19 16.0006H18C17.7348 16.0006 17.4804 15.8952 17.2929 15.7077C17.1054 15.5201 17 15.2658 17 15.0006C17 14.7353 17.1054 14.481 17.2929 14.2935C17.4804 14.1059 17.7348 14.0006 18 14.0006H19C19.2652 14.0006 19.5196 14.1059 19.7071 14.2935C19.8946 14.481 20 14.7353 20 15.0006ZM20 19.0006C20 19.2658 19.8946 19.5201 19.7071 19.7077C19.5196 19.8952 19.2652 20.0006 19 20.0006H18C17.7348 20.0006 17.4804 19.8952 17.2929 19.7077C17.1054 19.5201 17 19.2658 17 19.0006C17 18.7353 17.1054 18.481 17.2929 18.2934C17.4804 18.1059 17.7348 18.0006 18 18.0006H19C19.2652 18.0006 19.5196 18.1059 19.7071 18.2934C19.8946 18.481 20 18.7353 20 19.0006ZM14 12.0006C14 12.3961 13.8827 12.7828 13.6629 13.1117C13.4432 13.4406 13.1308 13.6969 12.7654 13.8483C12.3999 13.9997 11.9978 14.0393 11.6098 13.9621C11.2219 13.885 10.8655 13.6945 10.5858 13.4148C10.3061 13.1351 10.1156 12.7787 10.0384 12.3907C9.96126 12.0028 10.0009 11.6006 10.1522 11.2352C10.3036 10.8697 10.56 10.5574 10.8889 10.3376C11.2178 10.1179 11.6044 10.0006 12 10.0006C12.5304 10.0006 13.0391 10.2113 13.4142 10.5863C13.7893 10.9614 14 11.4701 14 12.0006Z" fill="#fff"/>
</g>
<defs>
<clipPath id="clip0_2422_12566">
<rect width="24" height="24" fill="white"/>
</clipPath>
</defs>
</svg>
