
<svg width="40" height="40" viewBox="0 0 40 40" fill="none" xmlns="http://www.w3.org/2000/svg">
<circle cx="20" cy="20" r="19.5" stroke="white" stroke-opacity="0.3"/>
<g clip-path="url(#clip0_3873_28754)">
<path d="M25.1167 15.975C25.0782 15.9311 25.0308 15.8958 24.9777 15.8714C24.9245 15.847 24.8669 15.834 24.8084 15.8333H21.6667V14.6583C21.6667 14.425 21.7167 14.1583 22.0917 14.1583H24.5917C24.6466 14.1607 24.7013 14.1507 24.7518 14.129C24.8023 14.1074 24.8473 14.0747 24.8834 14.0333C24.9569 13.9571 24.9986 13.8558 25.0001 13.75V10.4167C25.0001 10.3062 24.9562 10.2002 24.878 10.122C24.7999 10.0439 24.6939 10 24.5834 10H20.9751C16.9751 10 16.6667 13.4167 16.6667 14.4583V15.8333H14.5834C14.4729 15.8333 14.3669 15.8772 14.2888 15.9554C14.2106 16.0335 14.1667 16.1395 14.1667 16.25V19.5833C14.1667 19.6938 14.2106 19.7998 14.2888 19.878C14.3669 19.9561 14.4729 20 14.5834 20H16.6667V29.5833C16.6667 29.6938 16.7106 29.7998 16.7888 29.878C16.8669 29.9561 16.9729 30 17.0834 30H21.2501C21.3606 30 21.4666 29.9561 21.5447 29.878C21.6228 29.7998 21.6667 29.6938 21.6667 29.5833V20H24.4584C24.5621 20.0005 24.6622 19.9624 24.7392 19.893C24.8163 19.8237 24.8647 19.7281 24.8751 19.625L25.2251 16.2917C25.2299 16.2343 25.2228 16.1765 25.2041 16.122C25.1855 16.0675 25.1557 16.0174 25.1167 15.975Z" fill="white" fill-opacity="0.5"/>
</g>
<defs>
<clipPath id="clip0_3873_28754">
<rect width="20" height="20" fill="white" transform="translate(10 10)"/>
</clipPath>
</defs>
</svg>
