
<svg width="24" height="24" viewBox="0 0 24 24" fill="none" xmlns="http://www.w3.org/2000/svg">
<g clip-path="url(#clip0_2422_11191)">
<path d="M16 16C16 16.1978 15.9414 16.3911 15.8315 16.5556C15.7216 16.72 15.5654 16.8482 15.3827 16.9239C15.2 16.9996 14.9989 17.0194 14.8049 16.9808C14.6109 16.9422 14.4328 16.847 14.2929 16.7071C14.1531 16.5673 14.0578 16.3891 14.0192 16.1951C13.9806 16.0011 14.0005 15.8 14.0761 15.6173C14.1518 15.4346 14.28 15.2784 14.4444 15.1685C14.6089 15.0586 14.8022 15 15 15C15.2652 15 15.5196 15.1054 15.7071 15.2929C15.8947 15.4804 16 15.7348 16 16ZM19 15C18.8022 15 18.6089 15.0586 18.4445 15.1685C18.28 15.2784 18.1518 15.4346 18.0761 15.6173C18.0005 15.8 17.9806 16.0011 18.0192 16.1951C18.0578 16.3891 18.1531 16.5673 18.2929 16.7071C18.4328 16.847 18.6109 16.9422 18.8049 16.9808C18.9989 17.0194 19.2 16.9996 19.3827 16.9239C19.5654 16.8482 19.7216 16.72 19.8315 16.5556C19.9414 16.3911 20 16.1978 20 16C20 15.7348 19.8947 15.4804 19.7071 15.2929C19.5196 15.1054 19.2652 15 19 15ZM17 12C16.8022 12 16.6089 12.0586 16.4445 12.1685C16.28 12.2784 16.1518 12.4346 16.0761 12.6173C16.0005 12.8 15.9806 13.0011 16.0192 13.1951C16.0578 13.3891 16.1531 13.5673 16.2929 13.7071C16.4328 13.847 16.6109 13.9422 16.8049 13.9808C16.9989 14.0194 17.2 13.9996 17.3827 13.9239C17.5654 13.8482 17.7216 13.72 17.8315 13.5556C17.9414 13.3911 18 13.1978 18 13C18 12.7348 17.8947 12.4804 17.7071 12.2929C17.5196 12.1054 17.2652 12 17 12ZM24 16C24.002 17.5294 23.5649 19.0272 22.7408 20.3156C21.9167 21.6039 20.7401 22.6287 19.3508 23.2682C17.9615 23.9077 16.4179 24.135 14.9032 23.9231C13.3886 23.7112 11.9665 23.0691 10.806 22.073C10.4497 22.6602 9.94827 23.1458 9.35004 23.4833C8.75182 23.8207 8.07686 23.9987 7.39002 24H4.61002C3.84984 24.0006 3.10522 23.7846 2.46339 23.3773C1.82156 22.9699 1.3091 22.3881 0.98602 21.7C0.31771 20.2243 -0.0188615 18.6199 2.02776e-05 17C0.12009 15.0638 0.716407 13.1873 1.73602 11.537C2.41765 10.4679 2.84968 9.25897 3.00002 8C2.88598 7.25882 2.70045 6.53042 2.44602 5.825C2.21793 5.23887 2.06798 4.62527 2.00002 4C2.00002 2.93913 2.42145 1.92172 3.17159 1.17157C3.92174 0.421427 4.93915 0 6.00002 0C7.06089 0 8.0783 0.421427 8.82845 1.17157C9.57859 1.92172 10 2.93913 10 4C9.93206 4.62527 9.78211 5.23887 9.55402 5.825C9.29959 6.53042 9.11406 7.25882 9.00002 8C9.08537 9.00243 9.39537 9.97276 9.90702 10.839C10.9632 9.58638 12.3792 8.68891 13.9628 8.26831C15.5464 7.8477 17.221 7.92432 18.7596 8.48776C20.2981 9.0512 21.6262 10.0742 22.5637 11.418C23.5011 12.7619 24.0026 14.3615 24 16ZM4.00002 4C4.01602 4.15 4.21102 4.772 4.35402 5.226C4.69192 6.11777 4.90917 7.05069 5.00002 8H7.00002C7.09087 7.05069 7.30812 6.11777 7.64602 5.226C7.78661 4.81505 7.90478 4.39677 8.00002 3.973C7.99644 3.44257 7.78229 2.93528 7.40469 2.56274C7.02708 2.1902 6.51695 1.98292 5.98652 1.9865C5.45609 1.99008 4.9488 2.20423 4.57626 2.58183C4.20372 2.95944 3.99644 3.46957 4.00002 4ZM9.20002 20.856C9.74544 19.6446 10.0185 18.3284 10 17C9.86728 15.3867 9.34871 13.829 8.48802 12.458C8.05495 11.6672 7.68061 10.8457 7.36802 10H4.63202C4.31944 10.8457 3.94509 11.6672 3.51202 12.458C2.65133 13.829 2.13276 15.3867 2.00002 17C1.98163 18.3287 2.2547 19.6452 2.80002 20.857C2.96242 21.1994 3.21878 21.4887 3.53922 21.691C3.85967 21.8934 4.23103 22.0006 4.61002 22H7.39002C7.76912 22.0005 8.14055 21.8932 8.46101 21.6906C8.78147 21.4881 9.03776 21.1986 9.20002 20.856ZM22 16C22.0018 14.6964 21.5783 13.4278 20.7938 12.3866C20.0093 11.3455 18.9066 10.5886 17.653 10.2309C16.3994 9.87315 15.0634 9.93407 13.8476 10.4044C12.6318 10.8747 11.6025 11.7288 10.916 12.837C11.5858 14.1255 11.9563 15.5485 12 17C12.0002 18.0332 11.863 19.0619 11.592 20.059C12.4087 20.9487 13.4751 21.5709 14.6515 21.8441C15.8279 22.1172 17.0593 22.0286 18.1845 21.5898C19.3096 21.151 20.276 20.3825 20.9568 19.385C21.6377 18.3876 22.0013 17.2077 22 16Z" fill="#fff"/>
</g>
<defs>
<clipPath id="clip0_2422_11191">
<rect width="24" height="24" fill="white"/>
</clipPath>
</defs>
</svg>
