
<svg width="40" height="40" viewBox="0 0 40 40" fill="none" xmlns="http://www.w3.org/2000/svg">
<circle cx="20" cy="20" r="19.5" stroke="white" stroke-opacity="0.3"/>
<g clip-path="url(#clip0_4020_137)">
<path d="M24.5833 10H15.4167C13.9808 10.0022 12.6043 10.5736 11.5889 11.5889C10.5736 12.6043 10.0022 13.9808 10 15.4167V24.5833C10.0022 26.0192 10.5736 27.3957 11.5889 28.4111C12.6043 29.4264 13.9808 29.9978 15.4167 30H24.5833C26.0192 29.9978 27.3957 29.4264 28.4111 28.4111C29.4264 27.3957 29.9978 26.0192 30 24.5833V15.4167C29.9978 13.9808 29.4264 12.6043 28.4111 11.5889C27.3957 10.5736 26.0192 10.0022 24.5833 10V10ZM20 24.5833C19.0935 24.5833 18.2074 24.3145 17.4536 23.8109C16.6999 23.3073 16.1125 22.5915 15.7656 21.754C15.4187 20.9165 15.3279 19.9949 15.5047 19.1058C15.6816 18.2168 16.1181 17.4001 16.7591 16.7591C17.4001 16.1181 18.2168 15.6816 19.1058 15.5047C19.9949 15.3279 20.9165 15.4187 21.754 15.7656C22.5915 16.1125 23.3073 16.6999 23.8109 17.4536C24.3145 18.2074 24.5833 19.0935 24.5833 20C24.5833 21.2156 24.1004 22.3814 23.2409 23.2409C22.3814 24.1004 21.2156 24.5833 20 24.5833ZM25.4167 15.4167C25.1694 15.4167 24.9278 15.3434 24.7222 15.206C24.5166 15.0687 24.3564 14.8734 24.2618 14.645C24.1672 14.4166 24.1425 14.1653 24.1907 13.9228C24.2389 13.6803 24.358 13.4576 24.5328 13.2828C24.7076 13.108 24.9303 12.9889 25.1728 12.9407C25.4153 12.8925 25.6666 12.9172 25.895 13.0118C26.1234 13.1064 26.3187 13.2666 26.456 13.4722C26.5934 13.6778 26.6667 13.9194 26.6667 14.1667C26.6667 14.4982 26.535 14.8161 26.3005 15.0505C26.0661 15.285 25.7482 15.4167 25.4167 15.4167Z" fill="white" fill-opacity="0.5"/>
</g>
<defs>
<clipPath id="clip0_4020_137">
<rect width="20" height="20" fill="white" transform="translate(10 10)"/>
</clipPath>
</defs>
</svg>
