
<svg width="230" height="230" viewBox="0 0 230 230" fill="none" xmlns="http://www.w3.org/2000/svg">
<g clip-path="url(#clip0_4009_9171)">
<g filter="url(#filter0_ii_4009_9171)">
<path d="M121.5 64.5V1.5C204.3 5.5 224.667 45.1667 224.5 64.5H121.5Z" fill="url(#paint0_linear_4009_9171)"/>
</g>
<g filter="url(#filter1_ii_4009_9171)">
<path d="M56.5 179V160L120 101.5V118.5L56.5 179Z" fill="url(#paint1_linear_4009_9171)"/>
</g>
<g filter="url(#filter2_ii_4009_9171)">
<path d="M122 119.5H225C225 137.5 205.667 159 196 167.5L122 119.5Z" fill="url(#paint2_linear_4009_9171)"/>
</g>
<mask id="path-4-outside-1_4009_9171" maskUnits="userSpaceOnUse" x="3.49219" y="-0.32605" width="223" height="231" fill="black">
<rect fill="white" x="3.49219" y="-0.32605" width="223" height="231"/>
<path fill-rule="evenodd" clip-rule="evenodd" d="M225.057 65.1368C224.984 56.8652 222.375 48.7517 217.354 41.0748C212.242 33.2582 204.729 26.1384 195.231 20.13C185.746 14.1299 172.468 9.35266 160.009 6.08427C147.709 2.85768 134.312 1.17265 120.983 1.12417L120.841 65.1368L225.057 65.1368ZM225.507 65.3001C225.508 65.3349 225.508 65.3698 225.508 65.4047L225.508 65.5051L225.508 65.586L225.732 65.5859V153.857C225.732 175.287 213.54 194.384 193.699 208.116C173.857 221.847 146.352 230.225 115.674 230.225C84.9937 230.225 57.2084 221.565 37.087 207.554C16.9664 193.543 4.49219 174.165 4.49219 152.734V152.732L4.94141 100.735H4.94158C4.93634 98.753 5.05027 96.7669 5.2847 94.7817C6.77963 82.122 13.1221 69.9412 23.6881 59.4021C34.2535 48.8636 48.6916 40.3152 65.6161 34.5678C81.7547 29.0873 102.092 26.3277 120.393 26.5126L120.388 26.9618C102.128 26.7773 81.8426 29.5319 65.7605 34.9932C48.8883 40.7228 34.5133 49.2389 24.0054 59.7201C13.4981 70.2007 7.21191 82.2918 5.73082 94.8344C5.50728 96.7274 5.39427 98.6215 5.39074 100.513H120.279V65.249H120.391L120.534 0.67394C120.679 0.674068 120.824 0.674389 120.969 0.674903L120.984 0.674954C134.348 0.723505 147.784 2.41289 160.123 5.64976C172.6 8.92289 185.929 13.7143 195.471 19.7503C205.013 25.7864 212.576 32.9489 217.73 40.829C222.793 48.5705 225.433 56.7682 225.506 65.1368C225.507 65.1912 225.507 65.2456 225.507 65.3001ZM120.728 65.586L225.283 65.5859V118.481H120.728V100.527L120.743 100.513H120.728V65.586ZM120.279 100.94L55.9277 160.133V180.276L120.279 118.61V100.94ZM55.9277 181.035V217.534H55.7636C73.0314 225.279 93.5961 229.775 115.674 229.775C146.275 229.775 173.687 221.418 193.443 207.746C194.286 207.163 195.115 206.569 195.93 205.967H195.748V168.318C186.955 175.255 176.311 180.975 164.362 185.134C147.092 191.144 127.773 193.659 108.577 192.397C89.5095 191.144 71.2703 189.097 55.9277 181.035ZM56.1775 180.659C71.4181 188.654 89.5539 190.697 108.606 191.949C127.745 193.207 147.004 190.699 164.214 184.709C176.199 180.538 186.856 174.795 195.637 167.833L120.531 118.991L56.1775 180.659ZM196.197 167.961V205.769C214.316 192.273 225.283 174.095 225.283 153.857V124.034C223.318 136.018 215.173 148.381 206.343 158.36C203.331 161.764 199.934 164.974 196.197 167.961ZM225.282 118.931C225.181 132.263 216.085 146.673 206.007 158.062C203.037 161.419 199.69 164.586 196.007 167.538L121.261 118.931H225.282ZM55.4785 160.016V217.406C48.9221 214.445 42.8444 211.016 37.3437 207.185C17.3057 193.232 4.94141 173.977 4.94141 152.734L5.33774 106.86C6.42406 115.418 9.73491 123.813 15.1632 131.661C19.1572 137.435 25.4619 142.694 32.674 147.434C39.8188 152.129 47.8693 156.326 55.4785 160.016ZM119.589 100.962L55.7765 159.661C48.1434 155.962 40.0732 151.759 32.9207 147.058C25.728 142.331 19.4787 137.11 15.5326 131.405C8.90921 121.83 5.46847 111.447 5.39196 100.962H119.589Z"/>
</mask>
<path fill-rule="evenodd" clip-rule="evenodd" d="M225.057 65.1368C224.984 56.8652 222.375 48.7517 217.354 41.0748C212.242 33.2582 204.729 26.1384 195.231 20.13C185.746 14.1299 172.468 9.35266 160.009 6.08427C147.709 2.85768 134.312 1.17265 120.983 1.12417L120.841 65.1368L225.057 65.1368ZM225.507 65.3001C225.508 65.3349 225.508 65.3698 225.508 65.4047L225.508 65.5051L225.508 65.586L225.732 65.5859V153.857C225.732 175.287 213.54 194.384 193.699 208.116C173.857 221.847 146.352 230.225 115.674 230.225C84.9937 230.225 57.2084 221.565 37.087 207.554C16.9664 193.543 4.49219 174.165 4.49219 152.734V152.732L4.94141 100.735H4.94158C4.93634 98.753 5.05027 96.7669 5.2847 94.7817C6.77963 82.122 13.1221 69.9412 23.6881 59.4021C34.2535 48.8636 48.6916 40.3152 65.6161 34.5678C81.7547 29.0873 102.092 26.3277 120.393 26.5126L120.388 26.9618C102.128 26.7773 81.8426 29.5319 65.7605 34.9932C48.8883 40.7228 34.5133 49.2389 24.0054 59.7201C13.4981 70.2007 7.21191 82.2918 5.73082 94.8344C5.50728 96.7274 5.39427 98.6215 5.39074 100.513H120.279V65.249H120.391L120.534 0.67394C120.679 0.674068 120.824 0.674389 120.969 0.674903L120.984 0.674954C134.348 0.723505 147.784 2.41289 160.123 5.64976C172.6 8.92289 185.929 13.7143 195.471 19.7503C205.013 25.7864 212.576 32.9489 217.73 40.829C222.793 48.5705 225.433 56.7682 225.506 65.1368C225.507 65.1912 225.507 65.2456 225.507 65.3001ZM120.728 65.586L225.283 65.5859V118.481H120.728V100.527L120.743 100.513H120.728V65.586ZM120.279 100.94L55.9277 160.133V180.276L120.279 118.61V100.94ZM55.9277 181.035V217.534H55.7636C73.0314 225.279 93.5961 229.775 115.674 229.775C146.275 229.775 173.687 221.418 193.443 207.746C194.286 207.163 195.115 206.569 195.93 205.967H195.748V168.318C186.955 175.255 176.311 180.975 164.362 185.134C147.092 191.144 127.773 193.659 108.577 192.397C89.5095 191.144 71.2703 189.097 55.9277 181.035ZM56.1775 180.659C71.4181 188.654 89.5539 190.697 108.606 191.949C127.745 193.207 147.004 190.699 164.214 184.709C176.199 180.538 186.856 174.795 195.637 167.833L120.531 118.991L56.1775 180.659ZM196.197 167.961V205.769C214.316 192.273 225.283 174.095 225.283 153.857V124.034C223.318 136.018 215.173 148.381 206.343 158.36C203.331 161.764 199.934 164.974 196.197 167.961ZM225.282 118.931C225.181 132.263 216.085 146.673 206.007 158.062C203.037 161.419 199.69 164.586 196.007 167.538L121.261 118.931H225.282ZM55.4785 160.016V217.406C48.9221 214.445 42.8444 211.016 37.3437 207.185C17.3057 193.232 4.94141 173.977 4.94141 152.734L5.33774 106.86C6.42406 115.418 9.73491 123.813 15.1632 131.661C19.1572 137.435 25.4619 142.694 32.674 147.434C39.8188 152.129 47.8693 156.326 55.4785 160.016ZM119.589 100.962L55.7765 159.661C48.1434 155.962 40.0732 151.759 32.9207 147.058C25.728 142.331 19.4787 137.11 15.5326 131.405C8.90921 121.83 5.46847 111.447 5.39196 100.962H119.589Z" fill="black"/>
<path d="M217.354 41.0748L217.103 41.239L217.354 41.0748ZM225.057 65.1368V65.4368H225.36L225.357 65.1341L225.057 65.1368ZM195.231 20.13L195.391 19.8764L195.231 20.13ZM160.009 6.08427L159.933 6.37445L160.009 6.08427ZM120.983 1.12417L120.984 0.824174L120.683 0.823082L120.683 1.12351L120.983 1.12417ZM120.841 65.1368L120.541 65.1361L120.54 65.4368H120.841V65.1368ZM225.508 65.4047L225.808 65.4044V65.404L225.508 65.4047ZM225.507 65.3001L225.207 65.3015V65.3015L225.507 65.3001ZM225.508 65.5051L225.808 65.5054V65.5048L225.508 65.5051ZM225.508 65.586L225.208 65.5857L225.207 65.8861L225.508 65.886L225.508 65.586ZM225.732 65.5859H226.032V65.2859L225.732 65.2859L225.732 65.5859ZM193.699 208.116L193.528 207.869L193.699 208.116ZM37.087 207.554L37.2584 207.308L37.087 207.554ZM4.49219 152.732L4.19219 152.73V152.732H4.49219ZM4.94141 100.735V100.435H4.644L4.64143 100.733L4.94141 100.735ZM4.94158 100.735V101.035H5.24237L5.24158 100.735L4.94158 100.735ZM5.2847 94.7817L5.58263 94.8169L5.2847 94.7817ZM23.6881 59.4021L23.4763 59.1897L23.6881 59.4021ZM65.6161 34.5678L65.5196 34.2838L65.6161 34.5678ZM120.393 26.5126L120.693 26.5157L120.696 26.2157L120.396 26.2126L120.393 26.5126ZM120.388 26.9618L120.385 27.2618L120.685 27.2648L120.688 26.9649L120.388 26.9618ZM65.7605 34.9932L65.857 35.2773L65.7605 34.9932ZM24.0054 59.7201L23.7935 59.5077L24.0054 59.7201ZM5.73082 94.8344L6.02875 94.8696L5.73082 94.8344ZM5.39074 100.513L5.09074 100.512L5.09018 100.813H5.39074V100.513ZM120.279 100.513V100.813H120.579V100.513H120.279ZM120.279 65.249V64.949H119.979V65.249H120.279ZM120.391 65.249V65.549H120.691L120.691 65.2497L120.391 65.249ZM120.534 0.67394L120.535 0.373941L120.235 0.373677L120.234 0.673276L120.534 0.67394ZM120.969 0.674903L120.97 0.374905L120.97 0.374905L120.969 0.674903ZM120.984 0.674954L120.985 0.374956L120.985 0.374956L120.984 0.674954ZM160.123 5.64976L160.199 5.35958L160.123 5.64976ZM195.471 19.7503L195.31 20.0039L195.471 19.7503ZM217.73 40.829L217.981 40.6647L217.73 40.829ZM225.506 65.1368L225.806 65.1342V65.1342L225.506 65.1368ZM225.283 65.5859H225.583V65.2859H225.283V65.5859ZM120.728 65.586V65.286H120.428V65.586H120.728ZM225.283 118.481V118.781H225.583V118.481H225.283ZM120.728 118.481H120.428V118.781H120.728V118.481ZM120.728 100.527L120.525 100.306L120.428 100.395V100.527H120.728ZM120.743 100.513L120.947 100.733L121.513 100.213H120.743V100.513ZM120.728 100.513H120.428V100.813H120.728V100.513ZM55.9277 160.133L55.7246 159.912L55.6277 160.001V160.133H55.9277ZM120.279 100.94H120.579V100.256L120.076 100.719L120.279 100.94ZM55.9277 180.276H55.6277V180.979L56.1353 180.492L55.9277 180.276ZM120.279 118.61L120.487 118.827L120.579 118.738V118.61H120.279ZM55.9277 217.534V217.834H56.2277V217.534H55.9277ZM55.9277 181.035L56.0673 180.769L55.6277 180.538V181.035H55.9277ZM55.7636 217.534V217.234L55.6408 217.808L55.7636 217.534ZM193.443 207.746L193.614 207.993L193.443 207.746ZM195.93 205.967L196.109 206.208L196.841 205.667H195.93V205.967ZM195.748 205.967H195.448V206.267H195.748V205.967ZM195.748 168.318H196.048V167.699L195.562 168.083L195.748 168.318ZM164.362 185.134L164.263 184.85L164.362 185.134ZM108.577 192.397L108.557 192.697L108.577 192.397ZM56.1775 180.659L55.9699 180.442L55.6688 180.73L56.0381 180.924L56.1775 180.659ZM108.606 191.949L108.587 192.249L108.606 191.949ZM164.214 184.709L164.312 184.993L164.214 184.709ZM195.637 167.833L195.824 168.068L196.15 167.809L195.801 167.582L195.637 167.833ZM120.531 118.991L120.694 118.74L120.495 118.61L120.323 118.775L120.531 118.991ZM196.197 205.769H195.897V206.366L196.376 206.009L196.197 205.769ZM196.197 167.961L196.01 167.727L195.897 167.817V167.961H196.197ZM225.283 124.034H225.583L224.987 123.985L225.283 124.034ZM206.343 158.36L206.119 158.161L206.343 158.36ZM206.007 158.062L205.782 157.863L206.007 158.062ZM225.282 118.931L225.582 118.933L225.584 118.631H225.282V118.931ZM196.007 167.538L195.844 167.789L196.026 167.908L196.195 167.772L196.007 167.538ZM121.261 118.931V118.631H120.25L121.098 119.182L121.261 118.931ZM55.4785 217.406L55.3551 217.679L55.7785 217.871V217.406H55.4785ZM55.4785 160.016H55.7785V159.828L55.6094 159.746L55.4785 160.016ZM37.3437 207.185L37.5151 206.939L37.3437 207.185ZM4.94141 152.734L4.64141 152.732V152.734H4.94141ZM5.33774 106.86L5.63535 106.822L5.03775 106.857L5.33774 106.86ZM15.1632 131.661L14.9165 131.831L15.1632 131.661ZM32.674 147.434L32.5092 147.684L32.674 147.434ZM55.7765 159.661L55.6457 159.931L55.8294 160.02L55.9796 159.882L55.7765 159.661ZM119.589 100.962L119.792 101.183L120.358 100.662H119.589V100.962ZM32.9207 147.058L33.0855 146.808L32.9207 147.058ZM15.5326 131.405L15.7794 131.235H15.7794L15.5326 131.405ZM5.39196 100.962V100.662H5.08976L5.09196 100.964L5.39196 100.962ZM217.103 41.239C222.096 48.8736 224.684 56.9318 224.757 65.1394L225.357 65.1341C225.283 56.7985 222.654 48.6298 217.605 40.9106L217.103 41.239ZM195.07 20.3835C204.539 26.3735 212.018 33.4648 217.103 41.239L217.605 40.9106C212.465 33.0516 204.918 25.9033 195.391 19.8764L195.07 20.3835ZM159.933 6.37445C172.38 9.63967 185.623 14.4074 195.07 20.3835L195.391 19.8764C185.868 13.8523 172.556 9.06565 160.085 5.79409L159.933 6.37445ZM120.981 1.42417C134.287 1.47256 147.659 3.15469 159.933 6.37445L160.085 5.79409C147.759 2.56067 134.337 0.872733 120.984 0.824174L120.981 1.42417ZM121.141 65.1374L121.283 1.12484L120.683 1.12351L120.541 65.1361L121.141 65.1374ZM225.057 64.8368L120.841 64.8368V65.4368L225.057 65.4368V64.8368ZM225.808 65.404C225.808 65.3689 225.808 65.3337 225.807 65.2986L225.207 65.3015C225.208 65.3361 225.208 65.3707 225.208 65.4054L225.808 65.404ZM225.808 65.5048L225.808 65.4044L225.208 65.405L225.208 65.5054L225.808 65.5048ZM225.808 65.5863L225.808 65.5054L225.208 65.5048L225.208 65.5857L225.808 65.5863ZM225.732 65.2859L225.508 65.286L225.508 65.886L225.732 65.8859L225.732 65.2859ZM226.032 153.857V65.5859H225.432V153.857H226.032ZM193.869 208.362C213.768 194.591 226.032 175.41 226.032 153.857H225.432C225.432 175.163 213.312 194.177 193.528 207.869L193.869 208.362ZM115.674 230.525C146.404 230.525 173.971 222.133 193.869 208.362L193.528 207.869C173.744 221.561 146.301 229.925 115.674 229.925V230.525ZM36.9156 207.8C57.0932 221.851 84.94 230.525 115.674 230.525V229.925C85.0474 229.925 57.3236 221.28 37.2584 207.308L36.9156 207.8ZM4.19219 152.734C4.19219 174.29 16.7398 193.75 36.9156 207.8L37.2584 207.308C17.193 193.335 4.79219 174.039 4.79219 152.734H4.19219ZM4.19219 152.732V152.734H4.79219V152.732H4.19219ZM4.64143 100.733L4.1922 152.73L4.79218 152.735L5.2414 100.738L4.64143 100.733ZM4.94158 100.435H4.94141V101.035H4.94158V100.435ZM4.98677 94.7465C4.75094 96.7436 4.63631 98.7418 4.64158 100.736L5.24158 100.735C5.23637 98.7643 5.34961 96.7901 5.58263 94.8169L4.98677 94.7465ZM23.4763 59.1897C12.8711 69.7679 6.49093 82.0085 4.98677 94.7465L5.58263 94.8169C7.06832 82.2354 13.3732 70.1145 23.9 59.6145L23.4763 59.1897ZM65.5196 34.2838C48.5602 40.043 34.0799 48.613 23.4763 59.1897L23.9 59.6145C34.427 49.1142 48.823 40.5874 65.7126 34.8519L65.5196 34.2838ZM120.396 26.2126C102.068 26.0274 81.696 28.7904 65.5196 34.2838L65.7126 34.8519C81.8134 29.3842 102.116 26.6279 120.39 26.8126L120.396 26.2126ZM120.688 26.9649L120.693 26.5157L120.093 26.5096L120.088 26.9588L120.688 26.9649ZM65.857 35.2773C81.9013 29.8288 102.152 27.0775 120.385 27.2618L120.391 26.6618C102.104 26.477 81.7839 29.235 65.6641 34.7091L65.857 35.2773ZM24.2172 59.9325C34.6869 49.4895 49.0196 40.995 65.857 35.2773L65.6641 34.7091C48.7569 40.4506 34.3398 48.9883 23.7935 59.5077L24.2172 59.9325ZM6.02875 94.8696C7.5006 82.4052 13.7491 70.374 24.2172 59.9325L23.7935 59.5077C13.247 70.0274 6.92322 82.1784 5.43289 94.7992L6.02875 94.8696ZM5.69074 100.513C5.69425 98.6337 5.80656 96.7511 6.02875 94.8696L5.43289 94.7992C5.20799 96.7037 5.09429 98.6094 5.09074 100.512L5.69074 100.513ZM120.279 100.213H5.39074V100.813H120.279V100.213ZM119.979 65.249V100.513H120.579V65.249H119.979ZM120.391 64.949H120.279V65.549H120.391V64.949ZM120.234 0.673276L120.091 65.2484L120.691 65.2497L120.834 0.674604L120.234 0.673276ZM120.97 0.374905C120.825 0.37439 120.68 0.374068 120.535 0.373941L120.534 0.97394C120.679 0.974068 120.823 0.974388 120.968 0.974901L120.97 0.374905ZM120.985 0.374956L120.97 0.374905L120.968 0.974901L120.982 0.974952L120.985 0.374956ZM160.199 5.35958C147.834 2.11588 134.373 0.423593 120.985 0.374956L120.982 0.974952C134.324 1.02342 147.734 2.7099 160.047 5.93994L160.199 5.35958ZM195.631 19.4968C186.051 13.4367 172.688 8.63588 160.199 5.35958L160.047 5.93994C172.512 9.2099 185.807 13.9918 195.31 20.0039L195.631 19.4968ZM217.981 40.6647C212.8 32.7424 205.202 25.5513 195.631 19.4968L195.31 20.0039C204.823 26.0215 212.353 33.1555 217.479 40.9932L217.981 40.6647ZM225.806 65.1342C225.732 56.7016 223.072 48.4486 217.981 40.6647L217.479 40.9932C222.514 48.6925 225.134 56.8348 225.206 65.1394L225.806 65.1342ZM225.807 65.2986C225.807 65.2438 225.807 65.189 225.806 65.1342L225.206 65.1394C225.207 65.1934 225.207 65.2474 225.207 65.3015L225.807 65.2986ZM225.283 65.2859L120.728 65.286V65.886L225.283 65.8859V65.2859ZM225.583 118.481V65.5859H224.983V118.481H225.583ZM120.728 118.781H225.283V118.181H120.728V118.781ZM120.428 100.527V118.481H121.028V100.527H120.428ZM120.54 100.292L120.525 100.306L120.932 100.747L120.947 100.733L120.54 100.292ZM120.728 100.813H120.743V100.213H120.728V100.813ZM120.428 65.586V100.513H121.028V65.586H120.428ZM56.1308 160.354L120.482 101.161L120.076 100.719L55.7246 159.912L56.1308 160.354ZM56.2277 180.276V160.133H55.6277V180.276H56.2277ZM120.072 118.394L55.7202 180.059L56.1353 180.492L120.487 118.827L120.072 118.394ZM119.979 100.94V118.61H120.579V100.94H119.979ZM56.2277 217.534V181.035H55.6277V217.534H56.2277ZM55.7636 217.834H55.9277V217.234H55.7636V217.834ZM115.674 229.475C93.636 229.475 73.1134 224.987 55.8864 217.26L55.6408 217.808C72.9494 225.571 93.5562 230.075 115.674 230.075V229.475ZM193.272 207.5C173.574 221.132 146.223 229.475 115.674 229.475V230.075C146.327 230.075 173.801 221.704 193.614 207.993L193.272 207.5ZM195.752 205.726C194.94 206.326 194.113 206.918 193.272 207.5L193.614 207.993C194.459 207.408 195.291 206.813 196.109 206.208L195.752 205.726ZM195.748 206.267H195.93V205.667H195.748V206.267ZM195.448 168.318V205.967H196.048V168.318H195.448ZM195.562 168.083C186.798 174.997 176.185 180.701 164.263 184.85L164.46 185.417C176.438 181.248 187.111 175.514 195.934 168.554L195.562 168.083ZM164.263 184.85C147.033 190.847 127.754 193.357 108.597 192.098L108.557 192.697C127.791 193.961 147.15 191.441 164.46 185.417L164.263 184.85ZM108.597 192.098C89.5279 190.845 71.3475 188.799 56.0673 180.769L55.7882 181.3C71.1931 189.395 89.4911 191.444 108.557 192.697L108.597 192.098ZM56.0381 180.924C71.341 188.952 89.5355 190.996 108.587 192.249L108.626 191.65C89.5723 190.398 71.4953 188.356 56.3169 180.393L56.0381 180.924ZM108.587 192.249C127.763 193.509 147.063 190.996 164.312 184.993L164.115 184.426C146.945 190.402 127.727 192.905 108.626 191.65L108.587 192.249ZM164.312 184.993C176.326 180.812 187.013 175.053 195.824 168.068L195.451 167.598C186.699 174.537 176.072 180.265 164.115 184.426L164.312 184.993ZM120.367 119.243L195.474 168.085L195.801 167.582L120.694 118.74L120.367 119.243ZM56.3851 180.875L120.738 119.208L120.323 118.775L55.9699 180.442L56.3851 180.875ZM196.497 205.769V167.961H195.897V205.769H196.497ZM224.983 153.857C224.983 173.978 214.081 192.073 196.018 205.528L196.376 206.009C214.551 192.472 225.583 174.213 225.583 153.857H224.983ZM224.983 124.034V153.857H225.583V124.034H224.983ZM224.987 123.985C223.036 135.884 214.937 148.195 206.119 158.161L206.568 158.558C215.41 148.567 223.6 136.151 225.579 124.082L224.987 123.985ZM206.119 158.161C203.118 161.552 199.734 164.75 196.01 167.727L196.384 168.196C200.134 165.198 203.543 161.977 206.568 158.558L206.119 158.161ZM206.232 158.261C216.318 146.862 225.48 132.381 225.582 118.933L224.982 118.928C224.882 132.145 215.853 146.483 205.782 157.863L206.232 158.261ZM196.195 167.772C199.89 164.81 203.249 161.631 206.232 158.261L205.782 157.863C202.824 161.206 199.489 164.362 195.82 167.304L196.195 167.772ZM196.171 167.286L121.425 118.679L121.098 119.182L195.844 167.789L196.171 167.286ZM121.261 119.231H225.282V118.631H121.261V119.231ZM55.7785 217.406V160.016H55.1785V217.406H55.7785ZM37.1723 207.431C42.689 211.273 48.7829 214.712 55.3551 217.679L55.602 217.132C49.0613 214.179 42.9998 210.758 37.5151 206.939L37.1723 207.431ZM4.64141 152.734C4.64141 174.102 17.0791 193.439 37.1723 207.431L37.5151 206.939C17.5324 193.024 5.24141 173.851 5.24141 152.734H4.64141ZM5.03775 106.857L4.64142 152.732L5.2414 152.737L5.63772 106.863L5.03775 106.857ZM15.4099 131.49C10.0064 123.678 6.71505 115.328 5.63535 106.822L5.04012 106.898C6.13307 115.508 9.46347 123.948 14.9165 131.831L15.4099 131.49ZM32.8388 147.183C25.6396 142.451 19.3719 137.218 15.4099 131.49L14.9165 131.831C18.9425 137.652 25.2842 142.936 32.5092 147.684L32.8388 147.183ZM55.6094 159.746C48.0043 156.058 39.9674 151.868 32.8388 147.183L32.5092 147.684C39.6702 152.391 47.7343 156.594 55.3476 160.286L55.6094 159.746ZM55.9796 159.882L119.792 101.183L119.385 100.741L55.5734 159.44L55.9796 159.882ZM32.756 147.309C39.9247 152.02 48.0085 156.23 55.6457 159.931L55.9073 159.391C48.2783 155.694 40.2218 151.498 33.0855 146.808L32.756 147.309ZM15.2859 131.576C19.264 137.327 25.5503 142.573 32.756 147.309L33.0855 146.808C25.9057 142.089 19.6934 136.893 15.7794 131.235L15.2859 131.576ZM5.09196 100.964C5.16896 111.516 8.63186 121.956 15.2859 131.576L15.7794 131.235C9.18656 121.703 5.76798 111.379 5.69195 100.96L5.09196 100.964ZM119.589 100.662H5.39196V101.262H119.589V100.662Z" fill="black" mask="url(#path-4-outside-1_4009_9171)"/>
</g>
<defs>
<filter id="filter0_ii_4009_9171" x="121.5" y="1.5" width="103.001" height="63" filterUnits="userSpaceOnUse" color-interpolation-filters="sRGB">
<feFlood flood-opacity="0" result="BackgroundImageFix"/>
<feBlend mode="normal" in="SourceGraphic" in2="BackgroundImageFix" result="shape"/>
<feColorMatrix in="SourceAlpha" type="matrix" values="0 0 0 0 0 0 0 0 0 0 0 0 0 0 0 0 0 0 127 0" result="hardAlpha"/>
<feOffset/>
<feGaussianBlur stdDeviation="5"/>
<feComposite in2="hardAlpha" operator="arithmetic" k2="-1" k3="1"/>
<feColorMatrix type="matrix" values="0 0 0 0 1 0 0 0 0 1 0 0 0 0 1 0 0 0 0.3 0"/>
<feBlend mode="normal" in2="shape" result="effect1_innerShadow_4009_9171"/>
<feColorMatrix in="SourceAlpha" type="matrix" values="0 0 0 0 0 0 0 0 0 0 0 0 0 0 0 0 0 0 127 0" result="hardAlpha"/>
<feOffset/>
<feGaussianBlur stdDeviation="1.5"/>
<feComposite in2="hardAlpha" operator="arithmetic" k2="-1" k3="1"/>
<feColorMatrix type="matrix" values="0 0 0 0 0 0 0 0 0 0 0 0 0 0 0 0 0 0 0.1 0"/>
<feBlend mode="normal" in2="effect1_innerShadow_4009_9171" result="effect2_innerShadow_4009_9171"/>
</filter>
<filter id="filter1_ii_4009_9171" x="56.5" y="101.5" width="63.5" height="77.5" filterUnits="userSpaceOnUse" color-interpolation-filters="sRGB">
<feFlood flood-opacity="0" result="BackgroundImageFix"/>
<feBlend mode="normal" in="SourceGraphic" in2="BackgroundImageFix" result="shape"/>
<feColorMatrix in="SourceAlpha" type="matrix" values="0 0 0 0 0 0 0 0 0 0 0 0 0 0 0 0 0 0 127 0" result="hardAlpha"/>
<feOffset/>
<feGaussianBlur stdDeviation="5"/>
<feComposite in2="hardAlpha" operator="arithmetic" k2="-1" k3="1"/>
<feColorMatrix type="matrix" values="0 0 0 0 1 0 0 0 0 1 0 0 0 0 1 0 0 0 0.3 0"/>
<feBlend mode="normal" in2="shape" result="effect1_innerShadow_4009_9171"/>
<feColorMatrix in="SourceAlpha" type="matrix" values="0 0 0 0 0 0 0 0 0 0 0 0 0 0 0 0 0 0 127 0" result="hardAlpha"/>
<feOffset/>
<feGaussianBlur stdDeviation="1.5"/>
<feComposite in2="hardAlpha" operator="arithmetic" k2="-1" k3="1"/>
<feColorMatrix type="matrix" values="0 0 0 0 0 0 0 0 0 0 0 0 0 0 0 0 0 0 0.1 0"/>
<feBlend mode="normal" in2="effect1_innerShadow_4009_9171" result="effect2_innerShadow_4009_9171"/>
</filter>
<filter id="filter2_ii_4009_9171" x="122" y="119.5" width="103" height="48" filterUnits="userSpaceOnUse" color-interpolation-filters="sRGB">
<feFlood flood-opacity="0" result="BackgroundImageFix"/>
<feBlend mode="normal" in="SourceGraphic" in2="BackgroundImageFix" result="shape"/>
<feColorMatrix in="SourceAlpha" type="matrix" values="0 0 0 0 0 0 0 0 0 0 0 0 0 0 0 0 0 0 127 0" result="hardAlpha"/>
<feOffset/>
<feGaussianBlur stdDeviation="5"/>
<feComposite in2="hardAlpha" operator="arithmetic" k2="-1" k3="1"/>
<feColorMatrix type="matrix" values="0 0 0 0 1 0 0 0 0 1 0 0 0 0 1 0 0 0 0.3 0"/>
<feBlend mode="normal" in2="shape" result="effect1_innerShadow_4009_9171"/>
<feColorMatrix in="SourceAlpha" type="matrix" values="0 0 0 0 0 0 0 0 0 0 0 0 0 0 0 0 0 0 127 0" result="hardAlpha"/>
<feOffset/>
<feGaussianBlur stdDeviation="1.5"/>
<feComposite in2="hardAlpha" operator="arithmetic" k2="-1" k3="1"/>
<feColorMatrix type="matrix" values="0 0 0 0 0 0 0 0 0 0 0 0 0 0 0 0 0 0 0.1 0"/>
<feBlend mode="normal" in2="effect1_innerShadow_4009_9171" result="effect2_innerShadow_4009_9171"/>
</filter>
<linearGradient id="paint0_linear_4009_9171" x1="173.001" y1="1.5" x2="173.001" y2="64.5" gradientUnits="userSpaceOnUse">
<stop stop-color="#CAEBFF"/>
<stop offset="1" stop-color="#CAEBFF" stop-opacity="0"/>
</linearGradient>
<linearGradient id="paint1_linear_4009_9171" x1="88.25" y1="101.5" x2="88.25" y2="179" gradientUnits="userSpaceOnUse">
<stop stop-color="#CAEBFF"/>
<stop offset="1" stop-color="#CAEBFF" stop-opacity="0"/>
</linearGradient>
<linearGradient id="paint2_linear_4009_9171" x1="173.5" y1="119.5" x2="173.5" y2="167.5" gradientUnits="userSpaceOnUse">
<stop stop-color="#CAEBFF"/>
<stop offset="1" stop-color="#CAEBFF" stop-opacity="0"/>
</linearGradient>
<clipPath id="clip0_4009_9171">
<rect width="230" height="230" fill="white"/>
</clipPath>
</defs>
</svg>
