
<svg width="230" height="230" viewBox="0 0 230 230" fill="none" xmlns="http://www.w3.org/2000/svg">
<g clip-path="url(#clip0_4009_9185)">
<g filter="url(#filter0_ii_4009_9185)">
<path d="M138.5 1L93.5 28L138.5 55L183.5 28L138.5 1Z" fill="url(#paint0_linear_4009_9185)"/>
</g>
<g filter="url(#filter1_ii_4009_9185)">
<path d="M91.5 81L46.5 108L91.5 135L136.5 108L91.5 81Z" fill="url(#paint1_linear_4009_9185)"/>
</g>
<g filter="url(#filter2_ii_4009_9185)">
<path d="M138.5 129L93.5 156L138.5 183L183.5 156L138.5 129Z" fill="url(#paint2_linear_4009_9185)"/>
</g>
<mask id="path-4-outside-1_4009_9185" maskUnits="userSpaceOnUse" x="43.9219" y="-1" width="142" height="232" fill="black">
<rect fill="white" x="43.9219" y="-1" width="142" height="232"/>
<path fill-rule="evenodd" clip-rule="evenodd" d="M185.078 27.8826L138.777 0L91.7924 27.8816V80.1278L91.7899 80.1236L44.9219 107.936V177.45L92.1336 203.973V203.924L138.55 230L184.85 203.603V155.697L165.216 143.814L185.078 132.647V80.3192L185.078 27.8826ZM164.769 143.544L184.623 132.381V80.6089L139.004 108.194V127.851H138.84L164.769 143.544ZM138.714 127.851H138.549V108.398L92.1336 136.054V155.493L138.714 127.851ZM91.6785 155.763L91.5754 155.824L91.6785 155.886V203.196L45.3769 177.184V108.466L91.6785 136.054V155.763ZM92.1336 156.158L138.321 183.814V229.35L92.1336 203.402V156.158ZM92.0222 80.5148L91.9826 80.448L138.275 108.031L91.906 135.66L45.5944 108.066L92.0222 80.5148ZM138.549 56.0001L92.2474 28.4114V80.0763L138.549 107.665V56.0001ZM184.623 80.0773L139.004 107.662V55.9991L184.623 28.4145V80.0773ZM184.41 28.0115L138.776 55.6056L92.4649 28.0115L138.776 0.52999L184.41 28.0115ZM138.776 229.347V183.813L184.395 156.228V203.339L138.776 229.347ZM138.548 183.419L184.183 155.825L138.775 128.344L92.4638 155.826L138.548 183.419Z"/>
</mask>
<path fill-rule="evenodd" clip-rule="evenodd" d="M185.078 27.8826L138.777 0L91.7924 27.8816V80.1278L91.7899 80.1236L44.9219 107.936V177.45L92.1336 203.973V203.924L138.55 230L184.85 203.603V155.697L165.216 143.814L185.078 132.647V80.3192L185.078 27.8826ZM164.769 143.544L184.623 132.381V80.6089L139.004 108.194V127.851H138.84L164.769 143.544ZM138.714 127.851H138.549V108.398L92.1336 136.054V155.493L138.714 127.851ZM91.6785 155.763L91.5754 155.824L91.6785 155.886V203.196L45.3769 177.184V108.466L91.6785 136.054V155.763ZM92.1336 156.158L138.321 183.814V229.35L92.1336 203.402V156.158ZM92.0222 80.5148L91.9826 80.448L138.275 108.031L91.906 135.66L45.5944 108.066L92.0222 80.5148ZM138.549 56.0001L92.2474 28.4114V80.0763L138.549 107.665V56.0001ZM184.623 80.0773L139.004 107.662V55.9991L184.623 28.4145V80.0773ZM184.41 28.0115L138.776 55.6056L92.4649 28.0115L138.776 0.52999L184.41 28.0115ZM138.776 229.347V183.813L184.395 156.228V203.339L138.776 229.347ZM138.548 183.419L184.183 155.825L138.775 128.344L92.4638 155.826L138.548 183.419Z" fill="black"/>
<path d="M138.777 0L138.932 -0.256997L138.779 -0.349516L138.624 -0.257994L138.777 0ZM185.078 27.8826H185.378V27.713L185.233 27.6256L185.078 27.8826ZM91.7924 27.8816L91.6393 27.6236L91.4924 27.7108V27.8816H91.7924ZM91.7924 80.1278L91.5344 80.281L92.0924 81.2209V80.1278H91.7924ZM91.7899 80.1236L92.0479 79.9705L91.8948 79.7126L91.6368 79.8656L91.7899 80.1236ZM44.9219 107.936L44.7688 107.678L44.6219 107.765V107.936H44.9219ZM44.9219 177.45H44.6219V177.625L44.7749 177.711L44.9219 177.45ZM92.1336 203.973L91.9866 204.235L92.4336 204.486V203.973H92.1336ZM92.1336 203.924L92.2805 203.662L91.8336 203.411V203.924H92.1336ZM138.55 230L138.403 230.262L138.551 230.345L138.698 230.261L138.55 230ZM184.85 203.603L184.999 203.864L185.15 203.777V203.603H184.85ZM184.85 155.697H185.15V155.528L185.006 155.44L184.85 155.697ZM165.216 143.814L165.069 143.553L164.621 143.805L165.061 144.071L165.216 143.814ZM185.078 132.647L185.225 132.908L185.378 132.822V132.647H185.078ZM185.078 80.3192H185.378H185.078ZM164.769 143.544L164.614 143.8L164.764 143.891L164.916 143.805L164.769 143.544ZM184.623 132.381L184.77 132.642L184.923 132.556V132.381H184.623ZM184.623 80.6089H184.923V80.0769L184.468 80.3522L184.623 80.6089ZM139.004 108.194L138.849 107.937L138.704 108.024V108.194H139.004ZM139.004 127.851V128.151H139.304V127.851H139.004ZM138.84 127.851V127.551H137.765L138.684 128.108L138.84 127.851ZM138.714 127.851L138.867 128.109L139.807 127.551H138.714V127.851ZM138.549 127.851H138.249V128.151H138.549V127.851ZM138.549 108.398H138.849V107.87L138.396 108.14L138.549 108.398ZM92.1336 136.054L91.98 135.797L91.8336 135.884V136.054H92.1336ZM92.1336 155.493H91.8336V156.02L92.2867 155.751L92.1336 155.493ZM91.5754 155.824L91.4223 155.566L90.9895 155.823L91.4212 156.081L91.5754 155.824ZM91.6785 155.763L91.8316 156.021L91.9785 155.934V155.763H91.6785ZM91.6785 155.886H91.9785V155.716L91.8326 155.628L91.6785 155.886ZM91.6785 203.196L91.5316 203.457L91.9785 203.708V203.196H91.6785ZM45.3769 177.184H45.0769V177.359L45.23 177.445L45.3769 177.184ZM45.3769 108.466L45.5305 108.208L45.0769 107.938V108.466H45.3769ZM91.6785 136.054H91.9785V135.884L91.8321 135.797L91.6785 136.054ZM138.321 183.814H138.621V183.644L138.475 183.556L138.321 183.814ZM92.1336 156.158L92.2877 155.901L91.8336 155.629V156.158H92.1336ZM138.321 229.35L138.174 229.611L138.621 229.863V229.35H138.321ZM92.1336 203.402H91.8336V203.577L91.9866 203.663L92.1336 203.402ZM91.9826 80.448L92.1361 80.1903L91.7246 80.6012L91.9826 80.448ZM92.0222 80.5148L92.1753 80.7728L92.4334 80.6196L92.2801 80.3616L92.0222 80.5148ZM138.275 108.031L138.429 108.289L138.861 108.031L138.429 107.774L138.275 108.031ZM91.906 135.66L91.7525 135.918L91.906 136.01L92.0596 135.918L91.906 135.66ZM45.5944 108.066L45.4413 107.808L45.0075 108.065L45.4409 108.323L45.5944 108.066ZM92.2474 28.4114L92.401 28.1537L91.9474 27.8834V28.4114H92.2474ZM138.549 56.0001H138.849V55.8296L138.703 55.7423L138.549 56.0001ZM92.2474 80.0763H91.9474V80.2468L92.0939 80.334L92.2474 80.0763ZM138.549 107.665L138.395 107.923L138.849 108.193V107.665H138.549ZM139.004 107.662H138.704V108.194L139.159 107.919L139.004 107.662ZM184.623 80.0773L184.778 80.334L184.923 80.2465V80.0773H184.623ZM139.004 55.9991L138.849 55.7424L138.704 55.8299V55.9991H139.004ZM184.623 28.4145H184.923V27.8825L184.468 28.1577L184.623 28.4145ZM138.776 55.6056L138.622 55.8633L138.777 55.9555L138.931 55.8623L138.776 55.6056ZM184.41 28.0115L184.566 28.2682L184.991 28.0109L184.565 27.7545L184.41 28.0115ZM92.4649 28.0115L92.3118 27.7535L91.878 28.0109L92.3114 28.2692L92.4649 28.0115ZM138.776 0.52999L138.93 0.272993L138.777 0.180474L138.623 0.271996L138.776 0.52999ZM138.776 183.813L138.621 183.556L138.476 183.644V183.813H138.776ZM138.776 229.347H138.476V229.863L138.925 229.608L138.776 229.347ZM184.395 156.228H184.695V155.696L184.24 155.972L184.395 156.228ZM184.395 203.339L184.544 203.599L184.695 203.513V203.339H184.395ZM184.183 155.825L184.339 156.082L184.763 155.825L184.339 155.568L184.183 155.825ZM138.548 183.419L138.394 183.677L138.549 183.769L138.703 183.676L138.548 183.419ZM138.775 128.344L138.93 128.087L138.777 127.994L138.622 128.086L138.775 128.344ZM92.4638 155.826L92.3107 155.568L91.8779 155.825L92.3097 156.083L92.4638 155.826ZM138.623 0.256997L184.923 28.1396L185.233 27.6256L138.932 -0.256997L138.623 0.256997ZM91.9455 28.1396L138.931 0.257994L138.624 -0.257994L91.6393 27.6236L91.9455 28.1396ZM92.0924 80.1278V27.8816H91.4924V80.1278H92.0924ZM91.5319 80.2768L91.5344 80.281L92.0504 79.9747L92.0479 79.9705L91.5319 80.2768ZM45.075 108.194L91.943 80.3816L91.6368 79.8656L44.7688 107.678L45.075 108.194ZM45.2219 177.45V107.936H44.6219V177.45H45.2219ZM92.2805 203.712L45.0688 177.188L44.7749 177.711L91.9866 204.235L92.2805 203.712ZM91.8336 203.924V203.973H92.4336V203.924H91.8336ZM138.696 229.738L92.2805 203.662L91.9866 204.185L138.403 230.262L138.696 229.738ZM184.702 203.342L138.401 229.739L138.698 230.261L184.999 203.864L184.702 203.342ZM184.55 155.697V203.603H185.15V155.697H184.55ZM165.061 144.071L184.695 155.953L185.006 155.44L165.371 143.558L165.061 144.071ZM184.931 132.385L165.069 143.553L165.363 144.076L185.225 132.908L184.931 132.385ZM184.778 80.3192V132.647H185.378V80.3192H184.778ZM184.778 27.8826L184.778 80.3192H185.378L185.378 27.8826H184.778ZM164.916 143.805L184.77 132.642L184.476 132.119L164.622 143.282L164.916 143.805ZM184.923 132.381V80.6089H184.323V132.381H184.923ZM184.468 80.3522L138.849 107.937L139.159 108.45L184.778 80.8656L184.468 80.3522ZM138.704 108.194V127.851H139.304V108.194H138.704ZM139.004 127.551H138.84V128.151H139.004V127.551ZM138.684 128.108L164.614 143.8L164.924 143.287L138.995 127.595L138.684 128.108ZM138.714 127.551H138.549V128.151H138.714V127.551ZM138.849 127.851V108.398H138.249V127.851H138.849ZM138.396 108.14L91.98 135.797L92.2871 136.312L138.703 108.655L138.396 108.14ZM91.8336 136.054V155.493H92.4336V136.054H91.8336ZM92.2867 155.751L138.867 128.109L138.561 127.593L91.9805 155.235L92.2867 155.751ZM91.7285 156.082L91.8316 156.021L91.5254 155.505L91.4223 155.566L91.7285 156.082ZM91.8326 155.628L91.7295 155.567L91.4212 156.081L91.5244 156.143L91.8326 155.628ZM91.9785 203.196V155.886H91.3785V203.196H91.9785ZM45.23 177.445L91.5316 203.457L91.8255 202.934L45.5239 176.922L45.23 177.445ZM45.0769 108.466V177.184H45.6769V108.466H45.0769ZM91.8321 135.797L45.5305 108.208L45.2234 108.723L91.525 136.312L91.8321 135.797ZM91.9785 155.763V136.054H91.3785V155.763H91.9785ZM138.475 183.556L92.2877 155.901L91.9795 156.416L138.167 184.071L138.475 183.556ZM138.621 229.35V183.814H138.021V229.35H138.621ZM91.9866 203.663L138.174 229.611L138.468 229.088L92.2805 203.14L91.9866 203.663ZM91.8336 156.158V203.402H92.4336V156.158H91.8336ZM91.7246 80.6012L91.7643 80.668L92.2801 80.3616L92.2405 80.2948L91.7246 80.6012ZM138.429 107.774L92.1361 80.1903L91.829 80.7058L138.122 108.289L138.429 107.774ZM92.0596 135.918L138.429 108.289L138.122 107.774L91.7525 135.403L92.0596 135.918ZM45.4409 108.323L91.7525 135.918L92.0596 135.403L45.748 107.808L45.4409 108.323ZM91.8691 80.2568L45.4413 107.808L45.7475 108.324L92.1753 80.7728L91.8691 80.2568ZM92.0939 28.6691L138.395 56.2578L138.703 55.7423L92.401 28.1537L92.0939 28.6691ZM92.5474 80.0763V28.4114H91.9474V80.0763H92.5474ZM138.703 107.407L92.401 79.8186L92.0939 80.334L138.395 107.923L138.703 107.407ZM138.249 56.0001V107.665H138.849V56.0001H138.249ZM139.159 107.919L184.778 80.334L184.468 79.8206L138.849 107.405L139.159 107.919ZM138.704 55.9991V107.662H139.304V55.9991H138.704ZM184.468 28.1577L138.849 55.7424L139.159 56.2558L184.778 28.6712L184.468 28.1577ZM184.923 80.0773V28.4145H184.323V80.0773H184.923ZM138.931 55.8623L184.566 28.2682L184.255 27.7547L138.62 55.3489L138.931 55.8623ZM92.3114 28.2692L138.622 55.8633L138.929 55.3479L92.6185 27.7537L92.3114 28.2692ZM138.623 0.271996L92.3118 27.7535L92.618 28.2695L138.929 0.787984L138.623 0.271996ZM184.565 27.7545L138.93 0.272993L138.621 0.786988L184.256 28.2685L184.565 27.7545ZM138.476 183.813V229.347H139.076V183.813H138.476ZM184.24 155.972L138.621 183.556L138.931 184.07L184.55 156.485L184.24 155.972ZM184.695 203.339V156.228H184.095V203.339H184.695ZM138.925 229.608L184.544 203.599L184.247 203.078L138.628 229.086L138.925 229.608ZM184.028 155.568L138.393 183.163L138.703 183.676L184.339 156.082L184.028 155.568ZM138.62 128.601L184.028 156.081L184.339 155.568L138.93 128.087L138.62 128.601ZM92.6169 156.084L138.928 128.602L138.622 128.086L92.3107 155.568L92.6169 156.084ZM138.702 183.162L92.6179 155.568L92.3097 156.083L138.394 183.677L138.702 183.162Z" fill="black" mask="url(#path-4-outside-1_4009_9185)"/>
</g>
<defs>
<filter id="filter0_ii_4009_9185" x="93.5" y="1" width="90" height="54" filterUnits="userSpaceOnUse" color-interpolation-filters="sRGB">
<feFlood flood-opacity="0" result="BackgroundImageFix"/>
<feBlend mode="normal" in="SourceGraphic" in2="BackgroundImageFix" result="shape"/>
<feColorMatrix in="SourceAlpha" type="matrix" values="0 0 0 0 0 0 0 0 0 0 0 0 0 0 0 0 0 0 127 0" result="hardAlpha"/>
<feOffset/>
<feGaussianBlur stdDeviation="5"/>
<feComposite in2="hardAlpha" operator="arithmetic" k2="-1" k3="1"/>
<feColorMatrix type="matrix" values="0 0 0 0 1 0 0 0 0 1 0 0 0 0 1 0 0 0 0.3 0"/>
<feBlend mode="normal" in2="shape" result="effect1_innerShadow_4009_9185"/>
<feColorMatrix in="SourceAlpha" type="matrix" values="0 0 0 0 0 0 0 0 0 0 0 0 0 0 0 0 0 0 127 0" result="hardAlpha"/>
<feOffset/>
<feGaussianBlur stdDeviation="1.5"/>
<feComposite in2="hardAlpha" operator="arithmetic" k2="-1" k3="1"/>
<feColorMatrix type="matrix" values="0 0 0 0 0 0 0 0 0 0 0 0 0 0 0 0 0 0 0.1 0"/>
<feBlend mode="normal" in2="effect1_innerShadow_4009_9185" result="effect2_innerShadow_4009_9185"/>
</filter>
<filter id="filter1_ii_4009_9185" x="46.5" y="81" width="90" height="54" filterUnits="userSpaceOnUse" color-interpolation-filters="sRGB">
<feFlood flood-opacity="0" result="BackgroundImageFix"/>
<feBlend mode="normal" in="SourceGraphic" in2="BackgroundImageFix" result="shape"/>
<feColorMatrix in="SourceAlpha" type="matrix" values="0 0 0 0 0 0 0 0 0 0 0 0 0 0 0 0 0 0 127 0" result="hardAlpha"/>
<feOffset/>
<feGaussianBlur stdDeviation="5"/>
<feComposite in2="hardAlpha" operator="arithmetic" k2="-1" k3="1"/>
<feColorMatrix type="matrix" values="0 0 0 0 1 0 0 0 0 1 0 0 0 0 1 0 0 0 0.3 0"/>
<feBlend mode="normal" in2="shape" result="effect1_innerShadow_4009_9185"/>
<feColorMatrix in="SourceAlpha" type="matrix" values="0 0 0 0 0 0 0 0 0 0 0 0 0 0 0 0 0 0 127 0" result="hardAlpha"/>
<feOffset/>
<feGaussianBlur stdDeviation="1.5"/>
<feComposite in2="hardAlpha" operator="arithmetic" k2="-1" k3="1"/>
<feColorMatrix type="matrix" values="0 0 0 0 0 0 0 0 0 0 0 0 0 0 0 0 0 0 0.1 0"/>
<feBlend mode="normal" in2="effect1_innerShadow_4009_9185" result="effect2_innerShadow_4009_9185"/>
</filter>
<filter id="filter2_ii_4009_9185" x="93.5" y="129" width="90" height="54" filterUnits="userSpaceOnUse" color-interpolation-filters="sRGB">
<feFlood flood-opacity="0" result="BackgroundImageFix"/>
<feBlend mode="normal" in="SourceGraphic" in2="BackgroundImageFix" result="shape"/>
<feColorMatrix in="SourceAlpha" type="matrix" values="0 0 0 0 0 0 0 0 0 0 0 0 0 0 0 0 0 0 127 0" result="hardAlpha"/>
<feOffset/>
<feGaussianBlur stdDeviation="5"/>
<feComposite in2="hardAlpha" operator="arithmetic" k2="-1" k3="1"/>
<feColorMatrix type="matrix" values="0 0 0 0 1 0 0 0 0 1 0 0 0 0 1 0 0 0 0.3 0"/>
<feBlend mode="normal" in2="shape" result="effect1_innerShadow_4009_9185"/>
<feColorMatrix in="SourceAlpha" type="matrix" values="0 0 0 0 0 0 0 0 0 0 0 0 0 0 0 0 0 0 127 0" result="hardAlpha"/>
<feOffset/>
<feGaussianBlur stdDeviation="1.5"/>
<feComposite in2="hardAlpha" operator="arithmetic" k2="-1" k3="1"/>
<feColorMatrix type="matrix" values="0 0 0 0 0 0 0 0 0 0 0 0 0 0 0 0 0 0 0.1 0"/>
<feBlend mode="normal" in2="effect1_innerShadow_4009_9185" result="effect2_innerShadow_4009_9185"/>
</filter>
<linearGradient id="paint0_linear_4009_9185" x1="138.5" y1="1" x2="138.5" y2="55" gradientUnits="userSpaceOnUse">
<stop stop-color="#CAEBFF"/>
<stop offset="1" stop-color="#CAEBFF" stop-opacity="0"/>
</linearGradient>
<linearGradient id="paint1_linear_4009_9185" x1="91.5" y1="81" x2="91.5" y2="135" gradientUnits="userSpaceOnUse">
<stop stop-color="#CAEBFF"/>
<stop offset="1" stop-color="#CAEBFF" stop-opacity="0"/>
</linearGradient>
<linearGradient id="paint2_linear_4009_9185" x1="138.5" y1="129" x2="138.5" y2="183" gradientUnits="userSpaceOnUse">
<stop stop-color="#CAEBFF"/>
<stop offset="1" stop-color="#CAEBFF" stop-opacity="0"/>
</linearGradient>
<clipPath id="clip0_4009_9185">
<rect width="230" height="230" fill="white"/>
</clipPath>
</defs>
</svg>
