
<svg width="24" height="24" viewBox="0 0 24 24" fill="none" xmlns="http://www.w3.org/2000/svg">
<g clip-path="url(#clip0_2422_11195)">
<path d="M19 14.0006C18.177 14.006 17.3684 14.2174 16.648 14.6156L13.3 10.6006L20.767 1.64061C20.9293 1.4361 21.0051 1.17625 20.9784 0.916564C20.9516 0.656879 20.8244 0.417951 20.6238 0.250824C20.4233 0.0836972 20.1653 0.00162366 19.9051 0.0221372C19.6448 0.0426507 19.4029 0.164125 19.231 0.360608L12 9.03861L4.768 0.360608C4.59611 0.164125 4.3542 0.0426507 4.09394 0.0221372C3.83369 0.00162366 3.57573 0.0836972 3.37518 0.250824C3.17463 0.417951 3.04739 0.656879 3.02063 0.916564C2.99388 1.17625 3.06974 1.4361 3.232 1.64061L10.7 10.6006L7.352 14.6156C6.63146 14.2179 5.82299 14.0065 5 14.0006C4.0111 14.0006 3.0444 14.2939 2.22215 14.8433C1.39991 15.3927 0.759043 16.1736 0.380605 17.0872C0.00216642 18.0008 -0.0968503 19.0062 0.0960759 19.9761C0.289002 20.946 0.765206 21.8369 1.46447 22.5361C2.16373 23.2354 3.05465 23.7116 4.02455 23.9045C4.99446 24.0975 5.99979 23.9984 6.91342 23.62C7.82705 23.2416 8.60794 22.6007 9.15735 21.7785C9.70676 20.9562 10 19.9895 10 19.0006C9.99428 17.8706 9.60185 16.7766 8.888 15.9006L12 12.1626L15.111 15.9006C14.3981 16.7771 14.0061 17.8708 14 19.0006C14 19.9895 14.2932 20.9562 14.8427 21.7785C15.3921 22.6007 16.173 23.2416 17.0866 23.62C18.0002 23.9984 19.0055 24.0975 19.9755 23.9045C20.9454 23.7116 21.8363 23.2354 22.5355 22.5361C23.2348 21.8369 23.711 20.946 23.9039 19.9761C24.0969 19.0062 23.9978 18.0008 23.6194 17.0872C23.241 16.1736 22.6001 15.3927 21.7779 14.8433C20.9556 14.2939 19.9889 14.0006 19 14.0006ZM5 22.0006C4.40666 22.0006 3.82664 21.8247 3.33329 21.495C2.83994 21.1654 2.45543 20.6968 2.22836 20.1487C2.0013 19.6005 1.94189 18.9973 2.05765 18.4153C2.1734 17.8334 2.45912 17.2988 2.87868 16.8793C3.29824 16.4597 3.83279 16.174 4.41473 16.0583C4.99667 15.9425 5.59987 16.0019 6.14805 16.229C6.69623 16.456 7.16477 16.8406 7.49441 17.3339C7.82406 17.8272 8 18.4073 8 19.0006C8 19.7963 7.68393 20.5593 7.12132 21.1219C6.55871 21.6845 5.79565 22.0006 5 22.0006ZM19 22.0006C18.4067 22.0006 17.8266 21.8247 17.3333 21.495C16.8399 21.1654 16.4554 20.6968 16.2284 20.1487C16.0013 19.6005 15.9419 18.9973 16.0576 18.4153C16.1734 17.8334 16.4591 17.2988 16.8787 16.8793C17.2982 16.4597 17.8328 16.174 18.4147 16.0583C18.9967 15.9425 19.5999 16.0019 20.1481 16.229C20.6962 16.456 21.1648 16.8406 21.4944 17.3339C21.8241 17.8272 22 18.4073 22 19.0006C22 19.7963 21.6839 20.5593 21.1213 21.1219C20.5587 21.6845 19.7957 22.0006 19 22.0006Z" fill="#fff"/>
</g>
<defs>
<clipPath id="clip0_2422_11195">
<rect width="24" height="24" fill="white"/>
</clipPath>
</defs>
</svg>
