
<svg width="40" height="40" viewBox="0 0 40 40" fill="none" xmlns="http://www.w3.org/2000/svg">
<circle cx="20" cy="20" r="19.5" stroke="white" stroke-opacity="0.3"/>
<path d="M29.4333 15.3666C29.4926 15.3173 29.5371 15.2526 29.5618 15.1795C29.5864 15.1065 29.5903 15.028 29.5731 14.9529C29.5558 14.8777 29.518 14.8088 29.4639 14.7539C29.4098 14.6989 29.3415 14.6601 29.2667 14.6416L28.6083 14.475C28.5485 14.46 28.4927 14.4319 28.445 14.3927C28.3973 14.3535 28.3589 14.3043 28.3326 14.2484C28.3063 14.1926 28.2927 14.1317 28.2929 14.07C28.293 14.0083 28.3068 13.9473 28.3333 13.8916L28.7 13.15C28.7346 13.0781 28.7479 12.9978 28.7382 12.9186C28.7286 12.8394 28.6964 12.7647 28.6455 12.7032C28.5946 12.6418 28.5271 12.5963 28.4511 12.5721C28.3751 12.5478 28.2937 12.546 28.2167 12.5666L26.55 13.0333C26.4879 13.0514 26.4224 13.0548 26.3588 13.0432C26.2951 13.0317 26.2351 13.0054 26.1833 12.9666C25.4621 12.4257 24.5849 12.1333 23.6833 12.1333C22.5783 12.1333 21.5184 12.5723 20.737 13.3537C19.9556 14.1351 19.5167 15.1949 19.5167 16.3V16.6C19.517 16.6512 19.4985 16.7007 19.4647 16.7391C19.4309 16.7775 19.3841 16.8022 19.3333 16.8083C16.9917 17.0833 14.75 15.8916 12.3333 13.1083C12.2808 13.0504 12.2134 13.0081 12.1384 12.986C12.0634 12.964 11.9838 12.963 11.9083 12.9833C11.8403 13.0146 11.782 13.0636 11.7395 13.1251C11.6969 13.1867 11.6718 13.2586 11.6667 13.3333C11.3329 14.7044 11.4678 16.1478 12.05 17.4333C12.0672 17.4674 12.0747 17.5056 12.0717 17.5437C12.0687 17.5817 12.0553 17.6183 12.0329 17.6492C12.0106 17.6802 11.9801 17.7044 11.9449 17.7192C11.9097 17.7341 11.8711 17.7389 11.8333 17.7333L10.9 17.55C10.8337 17.5393 10.7658 17.5448 10.7021 17.566C10.6385 17.5873 10.5808 17.6236 10.5342 17.6718C10.4875 17.7201 10.4533 17.779 10.4342 17.8433C10.4152 17.9077 10.4121 17.9758 10.425 18.0416C10.4969 18.6812 10.7118 19.2963 11.0537 19.8416C11.3955 20.3869 11.8557 20.8483 12.4 21.1916C12.4352 21.2087 12.4649 21.2353 12.4857 21.2685C12.5065 21.3017 12.5175 21.34 12.5175 21.3791C12.5175 21.4183 12.5065 21.4566 12.4857 21.4898C12.4649 21.5229 12.4352 21.5496 12.4 21.5666L11.9583 21.7416C11.9047 21.7631 11.8561 21.7956 11.8157 21.8368C11.7752 21.8781 11.7438 21.9274 11.7235 21.9815C11.7031 22.0355 11.6942 22.0933 11.6973 22.151C11.7005 22.2087 11.7156 22.2651 11.7417 22.3166C11.9859 22.8511 12.3561 23.3183 12.8206 23.6782C13.285 24.0382 13.8298 24.2801 14.4083 24.3833C14.4485 24.3979 14.4833 24.4245 14.5079 24.4596C14.5324 24.4946 14.5456 24.5363 14.5456 24.5791C14.5456 24.6219 14.5324 24.6637 14.5079 24.6987C14.4833 24.7337 14.4485 24.7604 14.4083 24.775C13.2753 25.2436 12.0594 25.4788 10.8333 25.4666C10.7228 25.4445 10.6081 25.4672 10.5143 25.5297C10.4205 25.5923 10.3554 25.6895 10.3333 25.8C10.3112 25.9105 10.3339 26.0252 10.3964 26.119C10.459 26.2128 10.5562 26.2779 10.6667 26.3C12.7896 27.3068 15.101 27.8549 17.45 27.9083C19.5162 27.9398 21.5456 27.36 23.2833 26.2416C24.7127 25.2875 25.8838 23.9945 26.6922 22.478C27.5006 20.9615 27.9213 19.2685 27.9167 17.55V16.825C27.9172 16.7645 27.9308 16.7048 27.9568 16.6501C27.9827 16.5954 28.0202 16.547 28.0667 16.5083L29.4333 15.3666Z" fill="white" fill-opacity="0.5"/>
</svg>
