
<svg width="40" height="40" viewBox="0 0 40 40" fill="none" xmlns="http://www.w3.org/2000/svg">
<circle cx="20" cy="20" r="19.5" stroke="white" stroke-opacity="0.3"/>
<g clip-path="url(#clip0_4020_133)">
<path d="M26.7167 12.9165H13.2833C12.4125 12.9165 11.5774 13.2624 10.9617 13.8782C10.3459 14.4939 10 15.329 10 16.1998V23.7998C10 24.6706 10.3459 25.5058 10.9617 26.1215C11.5774 26.7373 12.4125 27.0832 13.2833 27.0832H26.7167C27.5875 27.0832 28.4226 26.7373 29.0383 26.1215C29.6541 25.5058 30 24.6706 30 23.7998V16.1998C30 15.329 29.6541 14.4939 29.0383 13.8782C28.4226 13.2624 27.5875 12.9165 26.7167 12.9165ZM23.7833 19.9998L18.1417 23.6332C18.0788 23.6735 18.0062 23.6962 17.9315 23.6989C17.8568 23.7015 17.7828 23.6841 17.7171 23.6483C17.6515 23.6125 17.5968 23.5597 17.5586 23.4955C17.5203 23.4312 17.5001 23.3579 17.5 23.2832V16.0665C17.5001 15.9918 17.5203 15.9184 17.5586 15.8542C17.5968 15.79 17.6515 15.7372 17.7171 15.7014C17.7828 15.6656 17.8568 15.6481 17.9315 15.6508C18.0062 15.6535 18.0788 15.6761 18.1417 15.7165L23.7833 19.3248C23.8418 19.3626 23.8899 19.4144 23.9232 19.4756C23.9565 19.5367 23.9739 19.6052 23.9739 19.6748C23.9739 19.7445 23.9565 19.813 23.9232 19.8741C23.8899 19.9352 23.8418 19.9871 23.7833 20.0248V19.9998Z" fill="white" fill-opacity="0.5"/>
</g>
<defs>
<clipPath id="clip0_4020_133">
<rect width="20" height="20" fill="white" transform="translate(10 10)"/>
</clipPath>
</defs>
</svg>
