
<svg width="50" height="50" viewBox="0 0 50 50" fill="none" xmlns="http://www.w3.org/2000/svg">
<path d="M24.9997 27.7083C24.7288 27.7083 24.458 27.6459 24.208 27.5L5.81217 16.8542C5.06217 16.4167 4.81213 15.4583 5.24963 14.7083C5.68713 13.9583 6.62463 13.7083 7.39546 14.1458L24.9997 24.3333L42.4996 14.2084C43.2496 13.7709 44.208 14.0417 44.6455 14.7709C45.083 15.5209 44.8122 16.4792 44.083 16.9167L25.8122 27.5C25.5413 27.625 25.2705 27.7083 24.9997 27.7083Z" fill="#202428"/>
<path d="M25 46.5835C24.1458 46.5835 23.4375 45.8751 23.4375 45.021V26.1251C23.4375 25.271 24.1458 24.5626 25 24.5626C25.8542 24.5626 26.5625 25.271 26.5625 26.1251V45.021C26.5625 45.8751 25.8542 46.5835 25 46.5835Z" fill="#202428"/>
<path d="M24.9997 47.3958C23.1039 47.3958 21.2914 46.9582 19.9164 46.1874L8.79139 40.0208C5.77056 38.3541 3.39557 34.3333 3.39557 30.8749V19.0832C3.39557 15.6249 5.77056 11.625 8.79139 9.93746L19.9164 3.77075C22.7497 2.18742 27.208 2.18742 30.0622 3.77075L41.1872 9.93746C44.208 11.6041 46.583 15.6249 46.583 19.0832V26.7083C46.583 27.5624 45.8747 28.2708 45.0205 28.2708C44.1664 28.2708 43.458 27.5624 43.458 26.7083V19.0832C43.458 16.7915 41.6872 13.7916 39.6872 12.6875L28.5622 6.52077C26.6664 5.45827 23.3539 5.45827 21.458 6.52077L10.333 12.6875C8.31221 13.8125 6.56221 16.7915 6.56221 19.0832V30.8749C6.56221 33.1666 8.33304 36.1666 10.333 37.2708L21.458 43.4374C23.2914 44.4582 26.7497 44.4582 28.5622 43.4374C29.3122 43.0207 30.2706 43.2916 30.6872 44.0416C31.1039 44.7916 30.8331 45.7499 30.0831 46.1665C28.7081 46.9582 26.8956 47.3958 24.9997 47.3958Z" fill="#202428"/>
<path d="M40 46.1459C35.4583 46.1459 31.7708 42.4584 31.7708 37.9167C31.7708 33.375 35.4583 29.6875 40 29.6875C44.5417 29.6875 48.2291 33.375 48.2291 37.9167C48.2291 42.4584 44.5417 46.1459 40 46.1459ZM40 32.8125C37.1875 32.8125 34.8958 35.1042 34.8958 37.9167C34.8958 40.7292 37.1875 43.0209 40 43.0209C42.8125 43.0209 45.1041 40.7292 45.1041 37.9167C45.1041 35.1042 42.8125 32.8125 40 32.8125Z" fill="#202428"/>
<path d="M47.9166 47.3958C47.5207 47.3958 47.1249 47.25 46.8124 46.9375L44.7291 44.8542C44.1249 44.25 44.1249 43.2499 44.7291 42.6458C45.3332 42.0416 46.3332 42.0416 46.9374 42.6458L49.0207 44.7291C49.6249 45.3333 49.6249 46.3334 49.0207 46.9375C48.7082 47.25 48.3124 47.3958 47.9166 47.3958Z" fill="#202428"/>
</svg>
