
<svg width="20" height="20" viewBox="0 0 20 20" fill="none" xmlns="http://www.w3.org/2000/svg">
<path d="M10 18.9582C5.05835 18.9582 1.04169 14.9415 1.04169 9.99984C1.04169 5.05817 5.05835 1.0415 10 1.0415C14.9417 1.0415 18.9584 5.05817 18.9584 9.99984C18.9584 14.9415 14.9417 18.9582 10 18.9582ZM10 2.2915C5.75002 2.2915 2.29169 5.74984 2.29169 9.99984C2.29169 14.2498 5.75002 17.7082 10 17.7082C14.25 17.7082 17.7084 14.2498 17.7084 9.99984C17.7084 5.74984 14.25 2.2915 10 2.2915Z" fill="white"/>
<path d="M8.8167 12.9832C8.65003 12.9832 8.4917 12.9165 8.37503 12.7998L6.0167 10.4415C5.77503 10.1998 5.77503 9.79984 6.0167 9.55817C6.25837 9.3165 6.65837 9.3165 6.90003 9.55817L8.8167 11.4748L13.1 7.1915C13.3417 6.94984 13.7417 6.94984 13.9834 7.1915C14.225 7.43317 14.225 7.83317 13.9834 8.07484L9.25837 12.7998C9.1417 12.9165 8.98337 12.9832 8.8167 12.9832Z" fill="white"/>
</svg>
