
<svg width="57" height="56" viewBox="0 0 57 56" fill="none" xmlns="http://www.w3.org/2000/svg">
<path d="M27.185 34.0895C26.7922 34.0408 26.4174 33.8472 26.1458 33.4986L21.5105 27.5486C20.9854 26.8746 21.1086 25.8822 21.7827 25.3571C22.4567 24.832 23.4491 24.9552 23.9742 25.6293L27.6498 30.3475L32.368 26.6718C33.042 26.1467 34.0344 26.27 34.5595 26.944C35.0846 27.618 34.9613 28.6104 34.2873 29.1355L28.3373 33.7708C27.9887 34.0424 27.5779 34.1383 27.185 34.0895Z" fill="#202428"/>
<path d="M27.203 33.9447C26.3553 33.8394 25.7397 33.0492 25.845 32.2015L28.4565 11.1756C28.5617 10.3279 29.352 9.71231 30.1996 9.81759C31.0473 9.92287 31.6629 10.7131 31.5576 11.5608L28.9462 32.5867C28.8409 33.4344 28.0506 34.05 27.203 33.9447Z" fill="#202428"/>
<path d="M25.9078 46.4008C15.2605 45.0784 8.74207 36.7111 10.0645 26.0638C10.1698 25.2161 10.96 24.6005 11.8077 24.7058C12.6553 24.8111 13.2709 25.6013 13.1657 26.4489C12.0692 35.2769 17.465 42.2031 26.293 43.2996C35.121 44.3961 42.0472 39.0003 43.1437 30.1723C43.2489 29.3246 44.0392 28.709 44.8868 28.8143C45.7345 28.9196 46.3501 29.7098 46.2448 30.5574C44.9224 41.2048 36.5552 47.7232 25.9078 46.4008Z" fill="#202428"/>
</svg>
