
<svg width="50" height="50" viewBox="0 0 50 50" fill="none" xmlns="http://www.w3.org/2000/svg">
<path d="M20.8125 47.3958C20.3958 47.3958 20.0625 47.3125 19.8125 47.2083C18.9792 46.8958 17.5625 45.875 17.5625 42.6458V29.2083H12.6875C9.89583 29.2083 8.89583 27.8958 8.54167 27.125C8.1875 26.3333 7.875 24.7291 9.70833 22.625L25.4792 4.70832C27.6042 2.29165 29.3333 2.45832 30.1667 2.77082C31 3.08332 32.4167 4.10415 32.4167 7.33332V20.7708H37.2917C40.0833 20.7708 41.0833 22.0833 41.4375 22.8542C41.7917 23.6458 42.1042 25.25 40.2708 27.3541L24.5 45.2708C23.0208 46.9583 21.7292 47.3958 20.8125 47.3958ZM29.0208 5.70832C28.9583 5.79165 28.5208 5.99998 27.8333 6.79165L12.0625 24.7083C11.4792 25.375 11.3958 25.7916 11.3958 25.875C11.4375 25.8958 11.8125 26.1041 12.6875 26.1041H19.125C19.9792 26.1041 20.6875 26.8125 20.6875 27.6666V42.6666C20.6875 43.7083 20.875 44.1666 20.9583 44.2916C21.0208 44.2083 21.4583 44 22.1458 43.2083L37.9167 25.2917C38.5 24.625 38.5833 24.2083 38.5833 24.125C38.5417 24.1041 38.1667 23.8958 37.2917 23.8958H30.8542C30 23.8958 29.2917 23.1875 29.2917 22.3333V7.33332C29.3125 6.29165 29.1042 5.85415 29.0208 5.70832Z" fill="#2B2B33"/>
</svg>
