
<svg width="70" height="70" viewBox="0 0 70 70" fill="none" xmlns="http://www.w3.org/2000/svg">
<path d="M10.2083 66.354H59.7916C60.9875 66.354 61.9791 65.3623 61.9791 64.1665C61.9791 62.9707 60.9875 61.979 59.7916 61.979H10.2083C9.01246 61.979 8.02079 62.9707 8.02079 64.1665C8.02079 65.3623 9.01246 66.354 10.2083 66.354Z" fill="#202428"/>
<path d="M14.5835 53.2294C15.1377 53.2294 15.6918 53.0252 16.1293 52.5877L56.9627 11.7544C57.8085 10.9085 57.8085 9.50853 56.9627 8.6627C56.1168 7.81686 54.7168 7.81686 53.871 8.6627L13.0377 49.496C12.1918 50.3419 12.1918 51.7419 13.0377 52.5877C13.4752 53.0252 14.0293 53.2294 14.5835 53.2294Z" fill="#202428"/>
<path d="M55.4166 42.3502C56.6125 42.3502 57.6041 41.3585 57.6041 40.1627V10.2085C57.6041 9.01266 56.6125 8.021 55.4166 8.021H25.4625C24.2666 8.021 23.275 9.01266 23.275 10.2085C23.275 11.4043 24.2666 12.396 25.4625 12.396H53.2291V40.1627C53.2291 41.3585 54.2208 42.3502 55.4166 42.3502Z" fill="#202428"/>
</svg>
