
<svg width="50" height="50" viewBox="0 0 50 50" fill="none" xmlns="http://www.w3.org/2000/svg">
<path d="M38.1667 26.5625H31.25C26.0625 26.5625 23.4375 23.625 23.4375 17.8125V11.8333C23.4375 9.70829 23.6875 6.66663 25.8958 4.99996C27.75 3.62496 30.4167 3.52079 34.3542 4.66663C39.5208 6.16663 43.8333 10.4791 45.3333 15.6458C46.4792 19.5625 46.375 22.25 45 24.0833C43.3333 26.3125 40.2917 26.5625 38.1667 26.5625ZM29.75 6.99996C28.8958 6.99996 28.2292 7.16663 27.7917 7.49996C26.9792 8.10413 26.5833 9.52079 26.5833 11.8333V17.8333C26.5833 22.5 28.375 23.4583 31.2708 23.4583H38.1875C40.4792 23.4583 41.8958 23.0625 42.5208 22.25C43.25 21.2916 43.1875 19.375 42.375 16.5625C41.1667 12.4583 37.625 8.89579 33.5208 7.70829C31.9792 7.22913 30.7292 6.99996 29.75 6.99996Z" fill="#202428"/>
<path d="M23.0625 47.3958C21.9583 47.3958 20.8333 47.3125 19.7083 47.125C11.1875 45.75 4.25 38.8333 2.875 30.3125C1.10417 19.3541 8.16667 9.02081 18.9792 6.81248C19.8333 6.64581 20.6458 7.18748 20.8333 8.02081C21 8.87498 20.4583 9.68748 19.625 9.87498C10.4792 11.75 4.47917 20.5 6 29.8125C7.16667 37.0208 13.0208 42.875 20.2292 44.0416C29.5833 45.5416 38.3125 39.5208 40.1667 30.3333C40.3333 29.4791 41.1667 28.9375 42 29.1041C42.8542 29.2708 43.3958 30.1041 43.2292 30.9375C41.25 40.6666 32.75 47.3958 23.0625 47.3958Z" fill="#202428"/>
</svg>
