
<svg width="60" height="61" viewBox="0 0 60 61" fill="none" xmlns="http://www.w3.org/2000/svg">
<path d="M45.4614 25.3472L37.2405 27.1517C33.1504 28.0494 30.7388 26.4885 29.8455 22.4187L28.041 14.1978C27.1432 10.1076 28.7042 7.69607 32.7739 6.80276L40.9949 4.99827C45.085 4.10049 47.4966 5.66143 48.3899 9.73121L50.1944 17.9522C51.0877 22.0219 49.5312 24.4539 45.4614 25.3472ZM33.4439 9.85509C31.0427 10.3821 30.5663 11.1266 31.0933 13.5278L32.8978 21.7487C33.4249 24.1499 34.1693 24.6264 36.5705 24.0993L44.7915 22.2948C47.1926 21.7678 47.6691 21.0233 47.142 18.6222L45.3376 10.4012C44.8105 8.00002 44.066 7.52355 41.6649 8.05061L33.4439 9.85509Z" fill="#202428"/>
<path d="M22.0602 30.4839L13.8392 32.2884C9.74911 33.1862 7.37774 31.8084 6.5559 28.0642L4.52808 18.8258C3.70624 15.0816 5.30291 12.8328 9.37269 11.9395L17.5936 10.135C21.6838 9.23721 24.0551 10.615 24.877 14.3592L26.9003 23.5773C27.7266 27.3418 26.13 29.5906 22.0602 30.4839ZM10.0427 14.9918C7.31592 15.5903 7.20076 16.4261 7.58042 18.1558L9.60377 27.3738C9.98789 29.1238 10.438 29.8142 13.1648 29.2157L21.3857 27.4112C24.1125 26.8127 24.2277 25.9769 23.848 24.2472L21.8246 15.0292C21.4405 13.2792 20.9904 12.5888 18.2636 13.1873L10.0427 14.9918Z" fill="#202428"/>
<path d="M27.1967 53.8853L18.9757 55.6897C14.8856 56.5875 12.474 55.0266 11.5807 50.9568L9.77622 42.7358C8.87845 38.6457 10.4394 36.2342 14.5092 35.3408L22.7301 33.5364C26.8202 32.6386 29.2318 34.1995 30.1251 38.2693L31.9296 46.4903C32.8229 50.56 31.2665 52.9919 27.1967 53.8853ZM15.1791 38.3932C12.778 38.9202 12.3015 39.6647 12.8286 42.0659L14.633 50.2868C15.1601 52.688 15.9046 53.1645 18.3057 52.6374L26.5267 50.8329C28.9279 50.3059 29.4043 49.5614 28.8773 47.1602L27.0728 38.9393C26.5457 36.5381 25.8013 36.0616 23.4001 36.5887L15.1791 38.3932Z" fill="#202428"/>
<path d="M50.0735 39.2654L37.8641 41.9454C37.0298 42.1285 36.1861 41.5885 36.003 40.7542C35.8198 39.9199 36.3598 39.0762 37.1941 38.893L49.4035 36.2131C50.2378 36.03 51.0815 36.57 51.2646 37.4043C51.4478 38.2386 50.9078 39.0823 50.0735 39.2654Z" fill="#202428"/>
<path d="M45.3088 46.7099C44.4745 46.893 43.6308 46.353 43.4477 45.5187L40.7677 33.3094C40.5846 32.4751 41.1246 31.6313 41.9589 31.4482C42.7932 31.2651 43.6369 31.8051 43.8201 32.6394L46.5 44.8487C46.6831 45.683 46.1431 46.5268 45.3088 46.7099Z" fill="#202428"/>
</svg>
