
<svg width="50" height="50" viewBox="0 0 50 50" fill="none" xmlns="http://www.w3.org/2000/svg">
<path d="M20.8333 36.875H12.9375C5.02079 36.875 2.60413 34.4584 2.60413 26.5417V14.0417C2.60413 6.12504 5.02079 3.70837 12.9375 3.70837H34.875C42.7916 3.70837 45.2083 6.12504 45.2083 14.0417C45.2083 14.8959 44.5 15.6042 43.6458 15.6042C42.7916 15.6042 42.0833 14.8959 42.0833 14.0417C42.0833 7.91671 41 6.83337 34.875 6.83337H12.9375C6.81246 6.83337 5.72913 7.91671 5.72913 14.0417V26.5417C5.72913 32.6667 6.81246 33.75 12.9375 33.75H20.8333C21.6875 33.75 22.3958 34.4584 22.3958 35.3125C22.3958 36.1667 21.6875 36.875 20.8333 36.875Z" fill="#202428"/>
<path d="M20.8334 46.2916C19.9792 46.2916 19.2709 45.5833 19.2709 44.7291V35.2916C19.2709 34.4375 19.9792 33.7291 20.8334 33.7291C21.6875 33.7291 22.3959 34.4375 22.3959 35.2916V44.7291C22.3959 45.6041 21.6875 46.2916 20.8334 46.2916Z" fill="#202428"/>
<path d="M20.8333 28.5416H4.16663C3.31246 28.5416 2.60413 27.8333 2.60413 26.9791C2.60413 26.125 3.31246 25.4166 4.16663 25.4166H20.8333C21.6875 25.4166 22.3958 26.125 22.3958 26.9791C22.3958 27.8333 21.6875 28.5416 20.8333 28.5416Z" fill="#202428"/>
<path d="M20.8333 46.2916H14.0416C13.1875 46.2916 12.4791 45.5833 12.4791 44.7291C12.4791 43.875 13.1875 43.1666 14.0416 43.1666H20.8333C21.6875 43.1666 22.3958 43.875 22.3958 44.7291C22.3958 45.5833 21.6875 46.2916 20.8333 46.2916Z" fill="#202428"/>
<path d="M39.6666 46.2917H32.2708C26.5 46.2917 24.5416 44.3333 24.5416 38.5625V26.6667C24.5416 20.8958 26.5 18.9375 32.2708 18.9375H39.6666C45.4375 18.9375 47.3958 20.8958 47.3958 26.6667V38.5625C47.3958 44.3542 45.4375 46.2917 39.6666 46.2917ZM32.2708 22.0625C28.1875 22.0625 27.6666 22.5833 27.6666 26.6667V38.5625C27.6666 42.6458 28.1875 43.1667 32.2708 43.1667H39.6666C43.75 43.1667 44.2708 42.6458 44.2708 38.5625V26.6667C44.2708 22.5833 43.75 22.0625 39.6666 22.0625H32.2708Z" fill="#202428"/>
<path d="M36.0417 39.5209C35.5 39.5209 34.9584 39.3125 34.5625 38.9167C34.375 38.7292 34.2292 38.5 34.125 38.25C34.0209 37.9792 33.9584 37.7084 33.9584 37.4375C33.9584 36.8959 34.1875 36.3542 34.5625 35.9792C35.0417 35.5 35.7709 35.2709 36.4584 35.3959C36.5834 35.4375 36.7084 35.4792 36.8334 35.5209C36.9584 35.5834 37.0834 35.6459 37.1875 35.7084C37.3125 35.7917 37.4167 35.875 37.5209 35.9792C37.8959 36.3542 38.125 36.8959 38.125 37.4375C38.125 37.7084 38.0625 37.9792 37.9584 38.25C37.8542 38.5 37.7084 38.7292 37.5209 38.9167C37.4167 39.0209 37.3125 39.1042 37.1875 39.1667C37.0834 39.25 36.9584 39.3125 36.8334 39.375C36.7084 39.4167 36.5834 39.4584 36.4584 39.4792C36.3125 39.5209 36.1875 39.5209 36.0417 39.5209Z" fill="#202428"/>
</svg>
