
<svg width="60" height="60" viewBox="0 0 60 60" fill="none" xmlns="http://www.w3.org/2000/svg">
<path d="M25.3893 51.7198C23.801 51.3762 22.4298 50.2268 21.6794 48.5724L20.2176 45.3785C19.9134 44.7158 19.4138 44.2666 18.8117 44.0937C18.2052 43.9412 17.5371 44.0737 16.9383 44.477L16.0023 43.1874L16.8975 44.4682C13.2869 46.9694 11.0795 46.236 10.0929 45.5749C9.08585 44.9094 7.53693 43.1034 8.5151 38.583L13.4764 15.6554C15.4328 6.6146 18.6339 4.42971 27.1656 6.27589L42.5594 9.60694C51.0911 11.4531 53.1026 14.766 51.1462 23.8067L46.1849 46.7344C45.2112 51.2344 43.0542 52.2385 41.8577 52.4485C40.686 52.6426 38.3933 52.4022 36.1193 48.6276C35.7452 47.9924 35.196 47.5752 34.5516 47.4997C33.9319 47.4082 33.2709 47.6062 32.7199 48.0838L30.0685 50.3877C28.7013 51.5839 26.9775 52.0635 25.3893 51.7198ZM19.3549 40.9926C19.4363 41.0102 19.5381 41.0323 19.6196 41.0499C21.1087 41.4574 22.3622 42.5599 23.0417 44.0498L24.5034 47.2437C25.2147 48.7832 26.7419 49.1136 28.026 48.006L30.6774 45.7021C31.9324 44.6308 33.5092 44.1407 35.054 44.3897C36.5784 44.6344 37.9486 45.5916 38.7926 47.0106C39.9832 48.9948 40.9369 49.4143 41.3343 49.3511C41.867 49.2532 42.652 48.1867 43.1102 46.0691L48.0716 23.1414C49.6622 15.7907 48.679 14.1285 41.8781 12.6568L26.5047 9.3302C19.7038 7.85854 18.1214 8.96558 16.5307 16.3163L11.5694 39.244C11.1068 41.382 11.3806 42.6775 11.8296 42.9665C12.145 43.184 13.2071 43.2007 15.1115 41.8862C16.4534 41.0042 17.9499 40.6886 19.3549 40.9926Z" fill="#202428"/>
<path d="M38.8492 31.1856L27.65 28.7622C26.8152 28.5816 26.2727 27.7394 26.4534 26.9046C26.634 26.0698 27.4761 25.5273 28.311 25.7079L39.5101 28.1313C40.3449 28.3119 40.8874 29.1541 40.7068 29.9889C40.5261 30.8237 39.684 31.3662 38.8492 31.1856Z" fill="#202428"/>
<path d="M40.6116 23.0406L29.4125 20.6172C28.5777 20.4365 28.0352 19.5944 28.2158 18.7596C28.3965 17.9247 29.2386 17.3822 30.0734 17.5629L41.2726 19.9863C42.1074 20.1669 42.6499 21.009 42.4692 21.8439C42.2886 22.6787 41.4465 23.2212 40.6116 23.0406Z" fill="#202428"/>
<path d="M23.2955 19.8265C22.1756 19.5842 21.4575 18.4696 21.6999 17.3497C21.9422 16.2298 23.0568 15.5118 24.1767 15.7541C25.2966 15.9964 26.0146 17.111 25.7723 18.2309C25.53 19.3508 24.4154 20.0688 23.2955 19.8265Z" fill="#202428"/>
<path d="M21.533 27.9715C20.4131 27.7292 19.6951 26.6146 19.9374 25.4947C20.1798 24.3748 21.2943 23.6568 22.4143 23.8991C23.5342 24.1415 24.2522 25.256 24.0098 26.3759C23.7675 27.4958 22.6529 28.2139 21.533 27.9715Z" fill="#202428"/>
</svg>
