
<svg width="50" height="50" viewBox="0 0 50 50" fill="none" xmlns="http://www.w3.org/2000/svg">
<path d="M37.8958 36.9791H15.7083C13.6458 36.9791 11.6666 36.1041 10.2708 34.5833C8.87494 33.0625 8.16663 31.0208 8.33329 28.9583L10.0625 8.2083C10.125 7.56246 9.89578 6.93747 9.45828 6.45831C9.02078 5.97914 8.41662 5.72913 7.77078 5.72913H4.16663C3.31246 5.72913 2.60413 5.02079 2.60413 4.16663C2.60413 3.31246 3.31246 2.60413 4.16663 2.60413H7.79164C9.31247 2.60413 10.7499 3.24995 11.7708 4.35412C12.3333 4.97912 12.75 5.7083 12.9791 6.5208H39C41.1041 6.5208 43.0416 7.35413 44.4583 8.85413C45.8541 10.375 46.5625 12.3541 46.3958 14.4583L45.2708 30.0833C45.0416 33.8958 41.7083 36.9791 37.8958 36.9791ZM13.0833 9.62495L11.4583 29.2083C11.3541 30.4166 11.75 31.5624 12.5625 32.4583C13.375 33.3541 14.4999 33.8333 15.7083 33.8333H37.8958C40.0625 33.8333 42.0208 32 42.1875 29.8333L43.3124 14.2083C43.3958 12.9791 43 11.8125 42.1875 10.9583C41.375 10.0833 40.25 9.60409 39.0208 9.60409H13.0833V9.62495Z" fill="#202428"/>
<path d="M33.8542 47.3958C31.5625 47.3958 29.6875 45.5208 29.6875 43.2292C29.6875 40.9375 31.5625 39.0625 33.8542 39.0625C36.1458 39.0625 38.0208 40.9375 38.0208 43.2292C38.0208 45.5208 36.1458 47.3958 33.8542 47.3958ZM33.8542 42.1875C33.2708 42.1875 32.8125 42.6458 32.8125 43.2292C32.8125 43.8125 33.2708 44.2708 33.8542 44.2708C34.4375 44.2708 34.8958 43.8125 34.8958 43.2292C34.8958 42.6458 34.4375 42.1875 33.8542 42.1875Z" fill="#202428"/>
<path d="M17.1875 47.3958C14.8959 47.3958 13.0209 45.5208 13.0209 43.2292C13.0209 40.9375 14.8959 39.0625 17.1875 39.0625C19.4792 39.0625 21.3542 40.9375 21.3542 43.2292C21.3542 45.5208 19.4792 47.3958 17.1875 47.3958ZM17.1875 42.1875C16.6042 42.1875 16.1459 42.6458 16.1459 43.2292C16.1459 43.8125 16.6042 44.2708 17.1875 44.2708C17.7709 44.2708 18.2292 43.8125 18.2292 43.2292C18.2292 42.6458 17.7709 42.1875 17.1875 42.1875Z" fill="#202428"/>
<path d="M43.75 18.2291H18.75C17.8958 18.2291 17.1875 17.5208 17.1875 16.6666C17.1875 15.8125 17.8958 15.1041 18.75 15.1041H43.75C44.6042 15.1041 45.3125 15.8125 45.3125 16.6666C45.3125 17.5208 44.6042 18.2291 43.75 18.2291Z" fill="#202428"/>
</svg>
